<svg width="153" height="130" viewBox="0 0 153 130" fill="none" xmlns="http://www.w3.org/2000/svg">
<g clip-path="url(#clip0_2304_56985)">
<g opacity="0.2">
<path d="M16.1914 51.0146H136.762C136.537 49.6757 136.27 48.3508 135.959 47.043H16.9949C16.6842 48.3508 16.4164 49.6757 16.1914 51.0146Z" fill="url(#paint0_linear_2304_56985)"/>
<path d="M76.4734 122.254C83.8778 122.254 90.9729 120.939 97.5419 118.531H55.4062C61.9738 120.939 69.0699 122.254 76.4734 122.254Z" fill="url(#paint1_linear_2304_56985)"/>
<path d="M15.3867 58.9599H137.567C137.519 57.6246 137.432 56.2992 137.3 54.9883H15.6536C15.522 56.2997 15.4354 57.6246 15.3867 58.9599Z" fill="url(#paint2_linear_2304_56985)"/>
<path d="M18.0786 43.0693H134.874C134.456 41.7245 133.991 40.4019 133.485 39.0977H19.4673C18.9614 40.4019 18.4961 41.7245 18.0781 43.0693H18.0786Z" fill="url(#paint3_linear_2304_56985)"/>
<path d="M21.1762 35.1279H131.772C131.134 33.7764 130.446 32.451 129.711 31.1562H23.2381C22.5036 32.4514 21.8169 33.7764 21.1758 35.1279H21.1762Z" fill="url(#paint4_linear_2304_56985)"/>
<path d="M22.9599 90.7294H129.989C130.708 89.4333 131.38 88.1093 132.004 86.7578H20.9453C21.5698 88.1093 22.2421 89.4333 22.9603 90.7294H22.9599Z" fill="url(#paint5_linear_2304_56985)"/>
<path d="M46.7529 114.557H106.198C108.354 113.357 110.43 112.03 112.416 110.586H40.5352C42.5213 112.03 44.5958 113.357 46.7529 114.557Z" fill="url(#paint6_linear_2304_56985)"/>
<path d="M15.6084 66.9013H137.342C137.464 65.589 137.548 64.265 137.585 62.9297H15.3672C15.4042 64.265 15.4876 65.589 15.6084 66.9013Z" fill="url(#paint7_linear_2304_56985)"/>
<path d="M19.2783 82.7855H133.672C134.166 81.4813 134.615 80.1572 135.021 78.8125H17.9297C18.3337 80.1572 18.7841 81.4813 19.2783 82.7855Z" fill="url(#paint8_linear_2304_56985)"/>
<path d="M28.2136 98.6747H124.74C125.741 97.3899 126.69 96.065 127.587 94.7031H25.3672C26.2644 96.065 27.2136 97.3903 28.2132 98.6747H28.2136Z" fill="url(#paint9_linear_2304_56985)"/>
<path d="M16.8772 74.8427H136.077C136.376 73.534 136.631 72.21 136.845 70.8711H16.1094C16.3231 72.21 16.5783 73.534 16.8772 74.8427Z" fill="url(#paint10_linear_2304_56985)"/>
<path d="M35.626 106.616H117.33C118.736 105.355 120.079 104.029 121.362 102.645H31.5938C32.8752 104.03 34.2206 105.355 35.626 106.616Z" fill="url(#paint11_linear_2304_56985)"/>
<path d="M76.4772 0.128906C69.599 0.128906 62.9868 1.26378 56.8164 3.35563H96.138C89.9677 1.26378 83.355 0.128906 76.4772 0.128906Z" fill="url(#paint12_linear_2304_56985)"/>
<path d="M41.2227 11.2997H111.727C109.672 9.84781 107.522 8.52154 105.29 7.32812H47.6599C45.4281 8.52154 43.2782 9.84781 41.2231 11.2997H41.2227Z" fill="url(#paint13_linear_2304_56985)"/>
<path d="M25.6914 27.1864H127.257C126.339 25.8223 125.367 24.4983 124.345 23.2148H28.6032C27.5815 24.4983 26.6094 25.8223 25.6914 27.1864Z" fill="url(#paint14_linear_2304_56985)"/>
<path d="M32.0547 19.2402H120.898C119.584 17.8541 118.205 16.5291 116.768 15.2695H36.1834C34.746 16.5287 33.3672 17.8541 32.0547 19.2402Z" fill="url(#paint15_linear_2304_56985)"/>
</g>
<path d="M115.067 8.04688C119.767 10.712 124.108 14.0666 127.983 17.9198C131.657 21.9572 134.852 26.4331 137.44 31.2397C142.639 40.8438 145.366 51.7534 145.365 62.668C145.366 73.5812 142.639 84.4917 137.44 94.0963C134.85 98.9006 131.662 103.383 127.979 107.413C124.076 111.236 119.762 114.614 115.066 117.288C119.357 114.014 123.292 110.333 126.658 106.206C130.243 102.285 133.345 97.9233 135.865 93.2483C140.923 83.9022 143.576 73.2925 143.576 62.668C143.576 52.0434 140.923 41.4333 135.865 32.0877C133.342 27.4149 130.249 23.0461 126.653 19.1344C123.261 15.0344 119.354 11.3303 115.067 8.04733V8.04688Z" fill="url(#paint16_linear_2304_56985)"/>
<path d="M121.164 17.1372C124.417 19.8982 127.35 23.052 129.956 26.4647C132.443 29.9626 134.574 33.714 136.294 37.6464C139.744 45.5067 141.517 54.0894 141.519 62.6694C141.517 71.2507 139.742 79.8321 136.292 87.6933C134.572 91.6235 132.443 95.3762 129.952 98.8727C127.342 102.282 124.411 105.436 121.16 108.201C124.163 105.172 126.892 101.89 129.224 98.3548C131.679 94.9088 133.777 91.2092 135.473 87.3344C138.875 79.5857 140.623 71.13 140.625 62.6689C140.623 54.2087 138.875 45.7521 135.474 38.0035C133.778 34.1287 131.681 30.4291 129.225 26.9844C126.887 23.4519 124.162 20.1711 121.164 17.1367V17.1372Z" fill="url(#paint17_linear_2304_56985)"/>
<path d="M129.978 113.51C130.676 112.876 131.382 112.259 132.072 111.616C131.955 110.812 131.831 110.017 131.687 109.23L132.679 108.248C133.011 107.917 133.314 107.559 133.637 107.22C134.424 107.327 135.22 107.435 136.034 107.523C136.293 107.246 136.543 106.96 136.785 106.666L134.728 104.888C134.728 104.879 134.737 104.871 134.746 104.871L136.812 106.64C138.332 104.843 139.791 102.994 141.114 101.046C140.837 100.286 140.551 99.5368 140.264 98.8032C140.532 98.419 140.775 98.0272 141.016 97.6246L141.749 96.4357C142.26 95.6503 142.678 94.8199 143.136 94.0056C143.931 93.9259 144.746 93.8269 145.542 93.7116C146.043 92.6749 146.57 91.6472 147.045 90.6024L147.733 89.0122C147.957 88.4853 148.198 87.9579 148.386 87.4126C147.939 86.7344 147.492 86.0723 147.035 85.4211C147.197 84.983 147.367 84.5538 147.518 84.1075L147.939 82.7767C148.708 82.5439 149.477 82.2935 150.246 82.035C150.532 81.0339 150.792 80.0251 151.06 79.024C150.55 78.416 149.995 77.8085 149.45 77.219L149.745 75.8522L149.897 75.1731L150.014 74.4858C150.73 74.1458 151.454 73.7973 152.179 73.4397C152.251 72.9763 152.34 72.5115 152.392 72.0468L152.554 70.6444C151.955 70.099 151.356 69.5811 150.757 69.0632C150.837 68.1337 150.881 67.2042 150.945 66.2747L151.972 65.6325L152.965 64.9624L152.983 63.8275L149.54 63.7825V63.7559L152.983 63.7915C152.983 63.202 153.01 62.6116 152.992 62.0225L152.93 60.2626C152.903 59.0827 152.786 57.9217 152.688 56.7427C151.981 56.3401 151.31 55.9469 150.596 55.5722L150.21 52.8021C150.068 51.8816 149.871 50.9706 149.701 50.0505C150.255 49.4795 150.828 48.881 151.346 48.2816L150.935 46.6117C150.792 46.0488 150.675 45.4863 150.496 44.9405L150.004 43.2787C149.835 42.7252 149.683 42.1704 149.477 41.6354C148.699 41.4025 147.93 41.1796 147.161 40.9747C146.999 40.5365 146.856 40.0902 146.686 39.661L146.159 38.3659C146.589 37.6957 147.018 37.0072 147.438 36.3199C147.027 35.3638 146.561 34.4343 146.132 33.4877C145.345 33.3445 144.54 33.2373 143.743 33.1396C143.297 32.3173 142.885 31.4778 142.402 30.6821C142.742 29.9588 143.073 29.2346 143.396 28.4934L142.671 27.2788L141.884 26.1083C141.079 26.0818 140.274 26.0633 139.487 26.0543C138.959 25.2865 138.386 24.5537 137.832 23.7949C138.091 23.0347 138.332 22.2574 138.547 21.4986L137.822 20.6141L135.989 22.1147L135.962 22.0881L137.796 20.5785C137.419 20.1309 137.061 19.658 136.669 19.2293L135.488 17.9156C134.719 17.0217 133.86 16.2102 133.036 15.3694C132.25 15.5031 131.472 15.6464 130.675 15.826C130.56 15.7189 130.443 15.6103 130.318 15.5031C129.084 14.2345 127.796 13.0204 126.471 11.8495L124.494 10.1877C123.735 9.56263 122.973 8.95511 122.188 8.36561C118.975 6.18593 115.587 4.27377 112.062 2.68359V3.67526C115.255 5.47078 118.287 7.51671 121.114 9.81257C122.276 10.6799 123.395 11.591 124.494 12.5191V12.5282C124.593 12.6088 124.692 12.6885 124.79 12.7601C128.77 16.1827 132.366 20.0683 135.416 24.3385C135.926 25.0176 136.418 25.7143 136.865 26.4375C137.331 27.1617 137.804 27.8674 138.252 28.592C139.093 30.0741 139.978 31.5305 140.721 33.0675C141.526 34.5681 142.17 36.1502 142.858 37.7034L143.771 40.0974C144.092 40.8837 144.352 41.6971 144.603 42.5099C146.723 48.9958 147.716 55.8217 147.778 62.6291C147.725 69.446 146.749 76.271 144.63 82.7564C144.156 84.3916 143.493 85.9638 142.903 87.563C142.205 89.1176 141.571 90.7077 140.766 92.2083C139.254 95.2644 137.455 98.1763 135.479 100.945C131.516 106.503 126.652 111.4 121.203 115.499C118.35 117.823 115.291 119.896 112.063 121.7V122.673C115.613 121.066 119.03 119.135 122.269 116.929C123.028 116.365 124.728 115.249 125.461 114.659C126.213 114.106 126.92 113.489 127.644 112.909C128.422 113.122 129.209 113.338 129.978 113.507V113.51Z" fill="url(#paint18_linear_2304_56985)"/>
<path d="M37.9348 116.314C33.2343 113.65 28.8941 110.295 25.0183 106.443C21.3445 102.405 18.1495 97.9293 15.5619 93.1223C10.3637 83.5182 7.63537 72.6086 7.63672 61.694C7.63537 50.7798 10.3637 39.8702 15.5619 30.2657C18.1527 25.4614 21.3395 20.9786 25.0228 16.9494C28.9252 13.1264 33.2393 9.74747 37.9348 7.07422C33.6442 10.3482 29.7093 14.0285 26.3435 18.1559C22.7585 22.077 19.6568 26.4386 17.1364 31.1137C12.0779 40.4597 9.42493 51.0694 9.42493 61.694C9.42493 72.3185 12.0784 82.9287 17.1364 92.2743C19.6591 96.947 22.7535 101.316 26.348 105.228C29.7404 109.327 33.6487 113.032 37.9344 116.314L37.9348 116.314Z" fill="url(#paint19_linear_2304_56985)"/>
<path d="M31.834 107.229C28.5791 104.467 25.6461 101.314 23.0404 97.9009C20.5533 94.4022 18.4229 90.6504 16.7037 86.7193C13.2526 78.8576 11.4788 70.2776 11.4766 61.6963C11.4788 53.1149 13.2535 44.5336 16.7037 36.6724C18.4251 32.7408 20.5542 28.9881 23.0436 25.4916C25.6542 22.0839 28.5845 18.9296 31.8358 16.1641C28.8325 19.1935 26.1042 22.4748 23.7717 26.0104C21.3171 29.4565 19.2192 33.1561 17.5229 37.0308C14.1224 44.7781 12.3734 53.2352 12.3711 61.6963C12.3734 70.1565 14.1215 78.6131 17.522 86.3617C19.2182 90.2356 21.3149 93.9361 23.7722 97.3808C26.1091 100.913 28.8338 104.194 31.834 107.229Z" fill="url(#paint20_linear_2304_56985)"/>
<path d="M23.021 10.8555C22.3235 11.4896 21.617 12.1066 20.9276 12.7501C21.0444 13.554 21.1688 14.3484 21.3122 15.1351L20.3202 16.1178C19.9888 16.4488 19.6854 16.8064 19.363 17.1455C18.5758 17.0383 17.78 16.9311 16.9648 16.8424C16.7059 17.1194 16.4557 17.4053 16.214 17.6994L18.2714 19.4778C18.2714 19.4868 18.2624 19.4949 18.2529 19.4949L16.1861 17.7269C14.6666 19.5215 13.2084 21.3711 11.8842 23.3188C12.1615 24.0777 12.4487 24.8284 12.7341 25.562C12.4663 25.9461 12.2251 26.3393 11.9834 26.7405L11.2489 27.9286C10.7398 28.7149 10.3196 29.5453 9.86332 30.3586C9.06661 30.4392 8.25276 30.5374 7.45695 30.6541C6.95602 31.6898 6.42803 32.7171 5.9537 33.7632L5.26565 35.3534C5.04156 35.8803 4.80034 36.4077 4.61232 36.9517C5.0605 37.6308 5.50733 38.2928 5.96317 38.9445C5.80266 39.3827 5.63177 39.8105 5.48072 40.2581L5.0605 41.5889C4.29039 41.8208 3.52118 42.0721 2.75242 42.3306C2.46611 43.3317 2.2064 44.3405 1.93858 45.3416C2.44898 45.9482 3.00311 46.5562 3.54823 47.1453L3.25381 48.513L3.10141 49.1921L2.98463 49.8793C2.26998 50.2193 1.54495 50.5679 0.819931 50.9241C0.748241 51.3889 0.659416 51.8536 0.606212 52.3184L0.444345 53.7208C1.04357 54.2661 1.64415 54.784 2.24202 55.3019C2.16221 56.2314 2.11713 57.161 2.0549 58.0891L1.02599 58.7327L0.0331379 59.4028L0.0146517 60.5377L3.45896 60.5827V60.6093L0.0146517 60.5737C0.0146517 61.1632 -0.0119505 61.7536 0.00653575 62.3426L0.0687578 64.1026C0.09536 65.2825 0.212139 66.4435 0.309981 67.6225C1.01652 68.0251 1.68743 68.4183 2.40344 68.7929L2.78759 71.563C2.93097 72.4822 3.12711 73.3932 3.29799 74.3146C2.7425 74.8857 2.17123 75.4842 1.65136 76.0827L2.06257 77.7539C2.20595 78.3169 2.32228 78.8793 2.50128 79.4238L2.99319 81.0856C3.16273 81.6404 3.31558 82.1939 3.52073 82.7303C4.29896 82.9622 5.06771 83.186 5.83692 83.3909C5.99879 83.8291 6.14172 84.2754 6.31125 84.7046L6.83879 85.9998C6.41045 86.6699 5.97985 87.3585 5.55963 88.0457C5.97174 89.0018 6.43705 89.9313 6.86539 90.8779C7.65264 91.0211 8.45746 91.1283 9.25418 91.226C9.701 92.0484 10.1122 92.8878 10.596 93.6836C10.2556 94.4068 9.92509 95.1296 9.60316 95.8713L10.3273 97.0868L11.1145 98.2573C11.9194 98.2839 12.7255 98.3023 13.5114 98.3104C14.039 99.0796 14.6116 99.8119 15.1662 100.572C14.9078 101.331 14.6661 102.108 14.4515 102.867L15.1756 103.751L17.0094 102.251L17.036 102.278L15.2022 103.787C15.5787 104.233 15.9367 104.708 16.329 105.136L17.5103 106.449C18.2795 107.343 19.1385 108.155 19.9618 108.996C20.7481 108.861 21.5264 108.718 22.3231 108.54C22.4398 108.647 22.5553 108.754 22.6811 108.861C23.9151 110.13 25.2029 111.345 26.5271 112.516L28.5038 114.177C29.2635 114.803 30.0246 115.41 30.8105 116C34.0226 118.179 37.4128 120.091 40.9365 121.682V120.69C37.7429 118.894 34.7107 116.848 31.8841 114.553C30.7212 113.687 29.6035 112.776 28.5033 111.845V111.837C28.4041 111.756 28.3072 111.676 28.2076 111.604C24.2276 108.183 20.6322 104.297 17.5816 100.026C17.0712 99.3471 16.5792 98.6504 16.1324 97.9263C15.6671 97.203 15.1937 96.4973 14.746 95.7732C13.9051 94.2902 13.0195 92.8347 12.2774 91.2976C11.4725 89.7971 10.8282 88.215 10.1402 86.6618L9.22803 84.2677C8.90609 83.4814 8.64593 82.6681 8.39569 81.8552C6.27563 75.3693 5.28279 68.5434 5.22056 61.736C5.27377 54.9191 6.24903 48.0942 8.36909 41.6074C8.84342 39.9731 9.50532 38.4014 10.0951 36.8017C10.7926 35.2471 11.4274 33.657 12.2336 32.1564C13.745 29.1004 15.5427 26.1871 17.5193 23.4183C21.4822 17.862 26.3477 12.9654 31.7952 8.86542C34.6484 6.54298 37.7068 4.47049 40.9365 2.6646V1.69141C37.3849 3.29914 33.9685 5.22932 30.7307 7.43557C29.9696 7.9985 28.2702 9.11581 27.538 9.70531C26.785 10.2588 26.0785 10.8758 25.3548 11.4558C24.5766 11.2414 23.7893 11.028 23.0201 10.8573L23.021 10.8555Z" fill="url(#paint21_linear_2304_56985)"/>
<path style="mix-blend-mode:color-dodge" d="M140.956 65.0002C140.956 100.9 111.82 130 75.8783 130C39.9369 130 10.8008 100.899 10.8008 65.0002C10.8008 29.1014 39.9378 0 75.8787 0C111.82 0 140.957 29.1018 140.957 65.0002H140.956Z" fill="url(#paint22_radial_2304_56985)"/>
<path d="M98.8212 72.6211C97.4234 72.7821 60.7777 72.7769 59.5523 72.6224C59.6251 72.2276 59.6921 71.8347 59.7707 71.4445C60.573 67.4797 59.4866 64.1006 56.4025 61.5039C50.6914 56.6957 41.7862 59.5455 40.1194 67.1784C39.9256 68.066 39.9965 69.0108 39.9432 69.9296C39.9328 70.1082 39.9126 70.2861 39.8977 70.4542C39.4049 70.7029 38.955 70.5244 38.5143 70.451C37.6958 70.3153 36.889 70.0809 36.066 70.0023C33.9642 69.8017 32.1784 67.6751 32.0626 65.6635C31.9833 64.2843 31.9827 62.8961 32.0418 61.5163C32.0646 60.9883 32.2928 60.4429 32.5307 59.9559C32.8428 59.315 33.0014 58.6638 32.9981 57.9599C32.9936 57.0839 32.9955 56.2074 33.0001 55.3314C33.002 54.9626 32.9962 54.5918 33.0313 54.2263C33.162 52.8763 33.8797 52.0049 35.2098 51.7147C36.6056 51.4101 38.0156 51.1627 39.427 50.9381C41.4014 50.6238 43.2828 50.0284 45.0901 49.1862C48.1417 47.7641 51.1926 46.3428 54.2448 44.9227C58.3346 43.0195 62.6247 41.7858 67.1026 41.2813C75.8452 40.2956 84.1028 41.8962 91.8111 46.1532C94.8796 47.8479 97.9019 49.6258 100.928 51.3945C101.67 51.8276 102.41 52.0023 103.277 52.0133C105.167 52.038 107.058 52.1666 108.943 52.3179C111.889 52.5542 114.815 52.9406 117.681 53.6893C119.79 54.2399 121.813 54.9977 123.648 56.2002C124.852 56.9891 125.7 58.0378 126.062 59.4514C126.284 60.3176 126.287 61.1942 126.109 62.0565C125.629 64.3662 124.762 66.5537 123.935 68.753C123.643 69.5303 123.063 70.0698 122.261 70.2861C121.065 70.6088 119.853 70.8718 118.532 71.1873C118.499 70.7737 118.437 70.475 118.456 70.1822C118.556 68.692 118.408 67.2375 117.903 65.8245C116.496 61.8896 112.527 58.767 107.491 59.1969C103.677 59.5228 99.6884 62.1974 98.5806 67.0751C98.24 68.5744 98.2764 70.0958 98.6411 71.601C98.7152 71.9074 98.7523 72.223 98.8212 72.6191V72.6211Z" fill="#70CDDD"/>
<path d="M108.363 76.9944C104.689 77.1152 100.606 74.1217 100.586 69.1505C100.567 64.5169 104.531 61.4177 108.323 61.3755C112.43 61.33 116.239 64.7104 116.252 69.2531C116.263 73.1627 112.991 77.0807 108.363 76.9944Z" fill="#70CDDD"/>
<path d="M50.0478 76.9943C45.9366 77.1229 42.1419 73.7886 42.1328 69.1426C42.1244 64.7045 45.9327 61.4143 49.8775 61.3754C54.0369 61.3345 57.7997 64.7824 57.7951 69.2608C57.7912 73.3892 54.3177 77.0612 50.0472 76.9936L50.0478 76.9943Z" fill="#70CDDD"/>
<path d="M79.0223 63.0675C77.2001 65.1674 75.3915 67.2797 73.5978 69.4036C73.4425 69.588 73.2923 69.777 73.146 69.9685C72.9256 70.2575 72.4693 70.0127 72.5869 69.6692C73.4353 67.1991 75.1542 62.6701 76.3939 59.7799H69.7206C69.4476 59.7799 69.2987 59.4618 69.4742 59.2527C71.1912 57.2073 77.6057 49.7725 80.1645 46.9174C80.3999 46.6551 80.8251 46.9083 80.7067 47.2401L77.5901 55.9489C78.5055 55.9489 79.244 55.9301 79.9812 55.9528C81.3237 55.9943 82.6655 56.0528 84.008 56.1073C84.2654 56.1177 84.4071 56.4106 84.2544 56.6177C83.3137 57.8943 80.5345 61.324 79.0223 63.0668V63.0675Z" fill="white"/>
</g>
<defs>
<linearGradient id="paint0_linear_2304_56985" x1="16.1914" y1="49.0285" x2="136.762" y2="49.0285" gradientUnits="userSpaceOnUse">
<stop stop-color="#1172BA"/>
<stop offset="1" stop-color="#70CDDD"/>
</linearGradient>
<linearGradient id="paint1_linear_2304_56985" x1="55.4062" y1="120.393" x2="97.5414" y2="120.393" gradientUnits="userSpaceOnUse">
<stop stop-color="#1172BA"/>
<stop offset="1" stop-color="#70CDDD"/>
</linearGradient>
<linearGradient id="paint2_linear_2304_56985" x1="15.3867" y1="56.9739" x2="137.567" y2="56.9739" gradientUnits="userSpaceOnUse">
<stop stop-color="#1172BA"/>
<stop offset="1" stop-color="#70CDDD"/>
</linearGradient>
<linearGradient id="paint3_linear_2304_56985" x1="18.0786" y1="41.0837" x2="134.874" y2="41.0837" gradientUnits="userSpaceOnUse">
<stop stop-color="#1172BA"/>
<stop offset="1" stop-color="#70CDDD"/>
</linearGradient>
<linearGradient id="paint4_linear_2304_56985" x1="21.1762" y1="33.1418" x2="131.772" y2="33.1418" gradientUnits="userSpaceOnUse">
<stop stop-color="#1172BA"/>
<stop offset="1" stop-color="#70CDDD"/>
</linearGradient>
<linearGradient id="paint5_linear_2304_56985" x1="20.9453" y1="88.7438" x2="132.004" y2="88.7438" gradientUnits="userSpaceOnUse">
<stop stop-color="#1172BA"/>
<stop offset="1" stop-color="#70CDDD"/>
</linearGradient>
<linearGradient id="paint6_linear_2304_56985" x1="40.5352" y1="112.572" x2="112.416" y2="112.572" gradientUnits="userSpaceOnUse">
<stop stop-color="#1172BA"/>
<stop offset="1" stop-color="#70CDDD"/>
</linearGradient>
<linearGradient id="paint7_linear_2304_56985" x1="15.3672" y1="64.9153" x2="137.585" y2="64.9153" gradientUnits="userSpaceOnUse">
<stop stop-color="#1172BA"/>
<stop offset="1" stop-color="#70CDDD"/>
</linearGradient>
<linearGradient id="paint8_linear_2304_56985" x1="17.9297" y1="80.799" x2="135.021" y2="80.799" gradientUnits="userSpaceOnUse">
<stop stop-color="#1172BA"/>
<stop offset="1" stop-color="#70CDDD"/>
</linearGradient>
<linearGradient id="paint9_linear_2304_56985" x1="25.3672" y1="96.6887" x2="127.587" y2="96.6887" gradientUnits="userSpaceOnUse">
<stop stop-color="#1172BA"/>
<stop offset="1" stop-color="#70CDDD"/>
</linearGradient>
<linearGradient id="paint10_linear_2304_56985" x1="16.1094" y1="72.8571" x2="136.845" y2="72.8571" gradientUnits="userSpaceOnUse">
<stop stop-color="#1172BA"/>
<stop offset="1" stop-color="#70CDDD"/>
</linearGradient>
<linearGradient id="paint11_linear_2304_56985" x1="31.5938" y1="104.63" x2="121.362" y2="104.63" gradientUnits="userSpaceOnUse">
<stop stop-color="#1172BA"/>
<stop offset="1" stop-color="#70CDDD"/>
</linearGradient>
<linearGradient id="paint12_linear_2304_56985" x1="56.8164" y1="1.74204" x2="96.138" y2="1.74204" gradientUnits="userSpaceOnUse">
<stop stop-color="#1172BA"/>
<stop offset="1" stop-color="#70CDDD"/>
</linearGradient>
<linearGradient id="paint13_linear_2304_56985" x1="41.2227" y1="9.3137" x2="111.727" y2="9.3137" gradientUnits="userSpaceOnUse">
<stop stop-color="#1172BA"/>
<stop offset="1" stop-color="#70CDDD"/>
</linearGradient>
<linearGradient id="paint14_linear_2304_56985" x1="25.6914" y1="25.2009" x2="127.258" y2="25.2009" gradientUnits="userSpaceOnUse">
<stop stop-color="#1172BA"/>
<stop offset="1" stop-color="#70CDDD"/>
</linearGradient>
<linearGradient id="paint15_linear_2304_56985" x1="32.0547" y1="17.2547" x2="120.898" y2="17.2547" gradientUnits="userSpaceOnUse">
<stop stop-color="#1172BA"/>
<stop offset="1" stop-color="#70CDDD"/>
</linearGradient>
<linearGradient id="paint16_linear_2304_56985" x1="187.196" y1="62.6671" x2="115.629" y2="62.6671" gradientUnits="userSpaceOnUse">
<stop stop-color="#1172BA"/>
<stop offset="1" stop-color="#70CDDD"/>
</linearGradient>
<linearGradient id="paint17_linear_2304_56985" x1="187.196" y1="62.6694" x2="115.626" y2="62.6694" gradientUnits="userSpaceOnUse">
<stop stop-color="#1172BA"/>
<stop offset="1" stop-color="#70CDDD"/>
</linearGradient>
<linearGradient id="paint18_linear_2304_56985" x1="187.196" y1="62.6805" x2="115.628" y2="62.6805" gradientUnits="userSpaceOnUse">
<stop stop-color="#1172BA"/>
<stop offset="1" stop-color="#70CDDD"/>
</linearGradient>
<linearGradient id="paint19_linear_2304_56985" x1="-39.7661" y1="61.6944" x2="41.1911" y2="61.6944" gradientUnits="userSpaceOnUse">
<stop stop-color="#1172BA"/>
<stop offset="1" stop-color="#70CDDD"/>
</linearGradient>
<linearGradient id="paint20_linear_2304_56985" x1="-39.7714" y1="61.6963" x2="41.1885" y2="61.6963" gradientUnits="userSpaceOnUse">
<stop stop-color="#1172BA"/>
<stop offset="1" stop-color="#70CDDD"/>
</linearGradient>
<linearGradient id="paint21_linear_2304_56985" x1="-39.7696" y1="61.6851" x2="41.1899" y2="61.6851" gradientUnits="userSpaceOnUse">
<stop stop-color="#1172BA"/>
<stop offset="1" stop-color="#70CDDD"/>
</linearGradient>
<radialGradient id="paint22_radial_2304_56985" cx="0" cy="0" r="1" gradientUnits="userSpaceOnUse" gradientTransform="translate(75.0062 64.7628) scale(65.0476 64.9699)">
<stop offset="0.02" stop-color="#BCBCBC"/>
<stop offset="0.88" stop-color="#010101"/>
</radialGradient>
<clipPath id="clip0_2304_56985">
<rect width="153" height="130" fill="white"/>
</clipPath>
</defs>
</svg>
