<svg width="137" height="117" viewBox="0 0 137 117" fill="none" xmlns="http://www.w3.org/2000/svg">
<g clip-path="url(#clip0_2304_60683)">
<g opacity="0.2">
<path d="M14.5039 45.9109H122.459C122.265 44.709 122.014 43.507 121.744 42.3438H15.2185C14.9481 43.5264 14.697 44.709 14.5039 45.9109Z" fill="url(#paint0_linear_2304_60683)"/>
<path d="M68.4812 110.022C75.1052 110.022 81.4589 108.839 87.3491 106.668H49.6133C55.4842 108.839 61.8571 110.022 68.4812 110.022Z" fill="url(#paint1_linear_2304_60683)"/>
<path d="M13.7695 53.0633H123.173C123.134 51.8613 123.057 50.6593 122.941 49.4961H14.0206C13.9047 50.6787 13.8275 51.8613 13.7888 53.0633H13.7695Z" fill="url(#paint2_linear_2304_60683)"/>
<path d="M16.1836 38.7547H120.759C120.392 37.5527 119.967 36.3507 119.523 35.1875H17.4196C16.9754 36.3701 16.5505 37.5527 16.1836 38.7547Z" fill="url(#paint3_linear_2304_60683)"/>
<path d="M18.9646 31.6219H117.997C117.418 30.4005 116.8 29.2179 116.143 28.0547H20.7993C20.1427 29.2179 19.5247 30.4199 18.9453 31.6219H18.9646Z" fill="url(#paint4_linear_2304_60683)"/>
<path d="M20.546 81.657H116.373C117.01 80.4938 117.628 79.2918 118.169 78.0898H18.75C19.3101 79.3112 19.9087 80.4938 20.546 81.657Z" fill="url(#paint5_linear_2304_60683)"/>
<path d="M41.8703 103.102H95.0944C97.0256 102.017 98.8796 100.834 100.656 99.5352H36.2891C38.0658 100.834 39.9197 102.036 41.8509 103.102H41.8703Z" fill="url(#paint6_linear_2304_60683)"/>
<path d="M13.9817 60.2156H122.979C123.095 59.033 123.172 57.8504 123.192 56.6484H13.75C13.7886 57.8504 13.8659 59.033 13.9624 60.2156H13.9817Z" fill="url(#paint7_linear_2304_60683)"/>
<path d="M17.2635 74.5047H119.695C120.139 73.3221 120.545 72.1395 120.912 70.9375H16.0469C16.4138 72.1395 16.8194 73.3415 17.2635 74.5047Z" fill="url(#paint8_linear_2304_60683)"/>
<path d="M25.2601 88.7938H111.682C112.57 87.6305 113.42 86.4479 114.231 85.2266H22.7109C23.522 86.4479 24.3718 87.6499 25.2601 88.7938Z" fill="url(#paint9_linear_2304_60683)"/>
<path d="M15.1017 67.3523H121.84C122.11 66.1697 122.342 64.9871 122.535 63.7852H14.4258C14.6189 64.9871 14.8506 66.1891 15.121 67.3523H15.1017Z" fill="url(#paint10_linear_2304_60683)"/>
<path d="M31.9043 95.9461H105.059C106.314 94.8023 107.511 93.6197 108.67 92.3789H28.293C29.4324 93.6197 30.649 94.8217 31.9043 95.9461Z" fill="url(#paint11_linear_2304_60683)"/>
<path d="M68.4798 0.117188C62.3193 0.117188 56.4098 1.14469 50.8672 3.02522H86.0731C80.5499 1.14469 74.6404 0.117188 68.4798 0.117188Z" fill="url(#paint12_linear_2304_60683)"/>
<path d="M36.9062 10.1805H100.037C98.2028 8.88155 96.2716 7.67956 94.2825 6.61328H42.6806C40.6914 7.67956 38.7602 8.88155 36.9256 10.1805H36.9062Z" fill="url(#paint13_linear_2304_60683)"/>
<path d="M23 24.4656H113.941C113.11 23.2443 112.241 22.0423 111.334 20.8984H25.6071C24.6995 22.0617 23.8304 23.2443 23 24.4656Z" fill="url(#paint14_linear_2304_60683)"/>
<path d="M28.6992 17.3133H108.246C107.068 16.0725 105.832 14.8705 104.557 13.7461H32.4071C31.1132 14.8705 29.8773 16.0725 28.7185 17.3133H28.6992Z" fill="url(#paint15_linear_2304_60683)"/>
</g>
<path d="M103.031 7.25376C107.241 9.65774 111.123 12.6627 114.599 16.133C117.882 19.7583 120.74 23.7908 123.058 28.1141C127.712 36.7606 130.165 46.5704 130.145 56.3996C130.145 66.2287 127.712 76.0385 123.058 84.6851C120.74 89.0084 117.882 93.0408 114.58 96.6662C111.084 100.098 107.222 103.141 103.012 105.545C106.855 102.599 110.37 99.2834 113.382 95.5805C116.588 92.0521 119.369 88.136 121.629 83.929C126.167 75.5151 128.542 65.9767 128.542 56.3996C128.542 46.8224 126.167 37.2841 121.629 28.8702C119.369 24.6632 116.607 20.7277 113.382 17.2186C110.35 13.5351 106.855 10.2006 103.012 7.23438L103.031 7.25376Z" fill="url(#paint16_linear_2304_60683)"/>
<path d="M108.496 15.4336C111.412 17.9151 114.039 20.765 116.375 23.8281C118.596 26.9688 120.508 30.3615 122.053 33.8899C125.143 40.9662 126.727 48.6821 126.727 56.4175C126.727 64.1335 125.143 71.8689 122.053 78.9451C120.508 82.4735 118.616 85.8662 116.375 89.0069C114.039 92.0701 111.412 94.9199 108.496 97.4015C111.18 94.6679 113.633 91.7211 115.719 88.5416C117.92 85.4397 119.794 82.1052 121.319 78.6155C124.371 71.6362 125.935 64.0366 125.935 56.4175C125.935 48.7985 124.371 41.1988 121.319 34.2195C119.794 30.7299 117.92 27.3953 115.719 24.2934C113.633 21.114 111.18 18.1671 108.496 15.4336Z" fill="url(#paint17_linear_2304_60683)"/>
<path d="M116.376 102.151C116.994 101.589 117.631 101.027 118.249 100.445C118.153 99.7281 118.037 99.0108 117.902 98.2935L118.79 97.4017C119.08 97.1109 119.35 96.7813 119.64 96.4711C120.335 96.568 121.05 96.665 121.783 96.7425C122.015 96.4905 122.247 96.2385 122.459 95.967L120.625 94.3579L122.479 95.9477C123.83 94.3385 125.144 92.6713 126.322 90.9071C126.071 90.2285 125.82 89.55 125.569 88.8908C125.8 88.5419 126.032 88.1929 126.245 87.8245L126.901 86.7583C127.365 86.0603 127.732 85.3042 128.137 84.5675C128.852 84.49 129.586 84.4124 130.3 84.2961C130.744 83.3656 131.227 82.435 131.652 81.5044L132.27 80.0698C132.463 79.6045 132.695 79.1198 132.849 78.6352C132.444 78.0342 132.057 77.4332 131.633 76.8516C131.768 76.4638 131.922 76.0761 132.057 75.669L132.444 74.467C133.139 74.2537 133.815 74.0405 134.51 73.8078C134.761 72.916 134.993 72.0048 135.244 71.0936C134.78 70.5508 134.298 70.008 133.796 69.4651L134.066 68.2438L134.201 67.6234L134.298 67.003C134.935 66.6928 135.592 66.3826 136.229 66.053C136.287 65.6265 136.364 65.2194 136.422 64.7929L136.557 63.5327C136.016 63.0481 135.476 62.5828 134.954 62.1175C135.032 61.2839 135.07 60.4502 135.128 59.6166L136.055 59.035L136.943 58.434V57.4065L133.873 57.3677H136.963C136.963 56.8443 136.982 56.3014 136.963 55.778L136.905 54.1883C136.885 53.122 136.77 52.0751 136.692 51.0282C136.055 50.6598 135.456 50.3109 134.819 49.9813L134.471 47.4804C134.336 46.6467 134.162 45.8325 134.008 44.9989C134.51 44.4948 135.012 43.952 135.476 43.4091L135.109 41.897C134.974 41.3929 134.877 40.8888 134.723 40.3848L134.278 38.892C134.124 38.3879 133.989 37.9033 133.815 37.4186C133.12 37.2053 132.424 37.0114 131.748 36.8176C131.613 36.4298 131.478 36.0227 131.324 35.635L130.86 34.4718C131.246 33.8708 131.633 33.2504 132 32.63C131.633 31.777 131.208 30.924 130.821 30.0903C130.107 29.9546 129.392 29.8577 128.678 29.7801C128.272 29.0434 127.905 28.2873 127.48 27.57C127.789 26.9109 128.079 26.2711 128.369 25.5926L127.712 24.5069L126.998 23.46C126.283 23.4406 125.549 23.4212 124.854 23.4018C124.391 22.7039 123.869 22.0448 123.367 21.3662C123.599 20.6877 123.811 19.9897 124.004 19.2918L123.348 18.497L121.706 19.854H121.687L123.328 18.4776C123 18.0704 122.672 17.6439 122.324 17.2562L121.262 16.0736C120.567 15.2787 119.814 14.542 119.06 13.7859C118.365 13.9023 117.651 14.038 116.955 14.1931C116.859 14.0961 116.743 13.9992 116.627 13.9023C115.526 12.7584 114.368 11.6728 113.19 10.6065L111.413 9.11369C110.737 8.55147 110.042 8.00863 109.346 7.4658C106.469 5.50772 103.437 3.78229 100.289 2.34766V3.23945C103.147 4.84857 105.87 6.69032 108.4 8.76472C109.443 9.5402 110.447 10.3738 111.432 11.2075C111.432 11.2075 111.606 11.3626 111.703 11.4207C115.275 14.5032 118.481 17.9929 121.223 21.8315C121.687 22.4519 122.112 23.0723 122.517 23.712C122.942 24.3712 123.367 24.9916 123.753 25.6507C124.506 26.9884 125.298 28.2873 125.955 29.6832C126.669 31.0403 127.249 32.4555 127.867 33.8514L128.678 36.0033C128.968 36.7206 129.199 37.438 129.431 38.1747C131.324 44.0101 132.212 50.1558 132.27 56.282C132.231 62.4083 131.343 68.554 129.45 74.3894C129.025 75.8628 128.427 77.2781 127.905 78.7127C127.287 80.1086 126.708 81.5432 125.993 82.9003C124.642 85.6532 123.039 88.2704 121.262 90.7714C117.709 95.7732 113.363 100.174 108.477 103.877C105.928 105.971 103.186 107.832 100.289 109.46V110.333C103.476 108.879 106.527 107.153 109.424 105.156C110.1 104.652 111.625 103.644 112.282 103.121C112.958 102.617 113.595 102.074 114.232 101.55C114.928 101.744 115.642 101.938 116.318 102.093L116.376 102.151Z" fill="url(#paint18_linear_2304_60683)"/>
<path d="M33.9698 104.671C29.7597 102.267 25.878 99.2616 22.4018 95.7913C19.1188 92.166 16.2606 88.1335 13.9431 83.8102C9.28891 75.1637 6.83627 65.3539 6.85558 55.5247C6.85558 45.6956 9.28891 35.8858 13.9431 27.2392C16.2606 22.9159 19.1188 18.8835 22.4211 15.2581C25.9166 11.8266 29.779 8.78288 33.9891 6.37891C30.146 9.32572 26.6312 12.6409 23.6185 16.3438C20.4127 19.8722 17.6317 23.7884 15.3722 27.9953C10.8339 36.4092 8.45849 45.9476 8.45849 55.5247C8.45849 65.1019 10.8339 74.6402 15.3722 83.0541C17.6317 87.2611 20.3934 91.1966 23.6185 94.7057C26.6505 98.3892 30.146 101.724 33.9891 104.69L33.9698 104.671Z" fill="url(#paint19_linear_2304_60683)"/>
<path d="M28.5041 96.4874C25.5879 94.0059 22.9615 91.156 20.6247 88.0929C18.4038 84.9522 16.4919 81.5595 14.947 78.0311C11.857 70.9548 10.2734 63.2388 10.2734 55.5035C10.2734 47.7875 11.857 40.0521 14.947 32.9759C16.4919 29.4475 18.4038 26.0547 20.6247 22.9141C22.9615 19.8509 25.5879 17.0011 28.5041 14.5195C25.8197 17.2531 23.367 20.1999 21.2813 23.3794C19.0798 26.4813 17.2065 29.8158 15.6808 33.3054C12.6295 40.2847 11.0652 47.8844 11.0652 55.5035C11.0652 63.1225 12.6295 70.7222 15.6808 77.7015C17.2065 81.1911 19.0798 84.5257 21.2813 87.6276C23.367 90.807 25.8197 93.7538 28.5041 96.4874Z" fill="url(#paint20_linear_2304_60683)"/>
<path d="M20.6072 9.77112C19.9892 10.3333 19.3519 10.8956 18.7339 11.4772C18.8305 12.1945 18.9464 12.9118 19.0816 13.6291L18.1932 14.5209C17.9035 14.8117 17.6332 15.1413 17.3435 15.4515C16.6289 15.3545 15.9337 15.2576 15.1998 15.1801C14.9681 15.4321 14.7363 15.6841 14.5239 15.9555L16.3586 17.5647L14.5046 15.9749C13.1527 17.584 11.8395 19.2513 10.6615 21.0155C10.9125 21.6941 11.1636 22.3726 11.4147 23.0318C11.1829 23.3807 10.9512 23.7297 10.7387 24.098L10.0821 25.1643C9.61863 25.8816 9.2517 26.6183 8.84615 27.355C8.1316 27.4326 7.39774 27.5101 6.68319 27.6265C6.23902 28.557 5.75621 29.4876 5.33135 30.4182L4.71336 31.8528C4.52024 32.3181 4.28849 32.8028 4.134 33.2874C4.53955 33.9078 4.92579 34.4894 5.35066 35.0904C5.21547 35.4782 5.06098 35.8659 4.92579 36.273L4.55886 37.475C3.86363 37.6883 3.1877 37.9015 2.49247 38.1342C2.24141 39.026 2.00967 39.9372 1.75861 40.8483C2.2221 41.3912 2.7049 41.934 3.20702 42.4768L2.93665 43.6982L2.80146 44.3186L2.7049 44.939C2.0676 45.2492 1.41099 45.5594 0.773693 45.8889C0.715756 46.3154 0.638508 46.7226 0.580572 47.1491L0.445387 48.4092C0.986126 48.8939 1.52686 49.3592 2.04829 49.8245C1.97104 50.6581 1.93242 51.4918 1.87448 52.3254L0.947502 52.907L0.0591452 53.508V54.5355L3.12977 54.5743H0.0398332C0.0398332 55.0977 0.0205211 55.6405 0.0398332 56.164L0.0977694 57.7537C0.117082 58.82 0.232954 59.8669 0.310202 60.9138C0.947502 61.2821 1.54618 61.6311 2.18348 61.9607L2.53109 64.4616C2.66628 65.2952 2.84009 66.1095 2.99458 66.9431C2.49247 67.4472 1.99035 67.99 1.52686 68.5328L1.89379 70.045C2.02898 70.5491 2.12554 71.0531 2.28004 71.5572L2.72421 73.05C2.87871 73.5541 3.0139 74.0387 3.1877 74.5234C3.88294 74.7367 4.57818 74.9305 5.2541 75.1244C5.38928 75.5121 5.52447 75.9193 5.67896 76.307L6.14245 77.4702C5.75621 78.0712 5.36997 78.6916 5.00304 79.312C5.36997 80.165 5.79484 81.018 6.18108 81.8517C6.89563 81.9874 7.61017 82.0843 8.32472 82.1618C8.73028 82.8985 9.09721 83.6546 9.52207 84.3719C9.21308 85.0311 8.9234 85.6709 8.63371 86.3494L9.29033 87.4351L10.0049 88.482C10.7194 88.5014 11.4533 88.5208 12.1485 88.5208C12.612 89.2187 13.1334 89.8778 13.6355 90.5564C13.4038 91.2349 13.1914 91.9328 12.9982 92.6308L13.6549 93.4256L15.2964 92.0686H15.3157L13.6742 93.445C14.0025 93.8521 14.3308 94.2787 14.6784 94.6664L15.7406 95.849C16.4358 96.6632 17.189 97.3806 17.9421 98.1367C18.6374 98.0203 19.3519 97.8846 20.0472 97.7295C20.1437 97.8265 20.2596 97.9234 20.3755 98.0203C21.4763 99.1642 22.635 100.25 23.813 101.316L25.5897 102.809C26.2657 103.371 26.9609 103.914 27.6561 104.457C30.5336 106.415 33.5656 108.14 36.7135 109.575V108.683C33.8553 107.074 31.1323 105.232 28.6024 103.158C27.5596 102.382 26.5553 101.568 25.5704 100.715C25.5704 100.715 25.3966 100.56 25.3001 100.502C21.7273 97.4193 18.5215 93.9297 15.7792 90.0911C15.3157 89.4707 14.8908 88.8503 14.4853 88.2106C14.0604 87.5514 13.6355 86.931 13.2493 86.2719C12.4961 84.9342 11.7043 83.6352 11.0477 82.2394C10.3332 80.8823 9.75382 79.4671 9.13583 78.0712L8.32472 75.9193C8.03504 75.2019 7.80329 74.4846 7.57155 73.7479C5.67896 67.9125 4.79061 61.7668 4.73267 55.6406C4.7713 49.5143 5.65965 43.3686 7.55224 37.5332C7.9771 36.0598 8.57578 34.6445 9.09721 33.2099C9.71519 31.814 10.2946 30.3794 11.0091 29.0223C12.3609 26.2694 13.9639 23.6521 15.7406 21.1512C19.294 16.1494 23.6392 11.7486 28.5252 8.04569C31.0744 5.9519 33.8167 4.09075 36.7135 2.46225V1.58984C33.527 3.04386 30.4757 4.7693 27.5789 6.76615C26.903 7.27021 25.3773 8.27833 24.7207 8.80177C24.0448 9.30583 23.4075 9.84867 22.7702 10.3721C22.0749 10.1782 21.3604 9.98438 20.6845 9.82928L20.6072 9.77112Z" fill="url(#paint21_linear_2304_60683)"/>
<path style="mix-blend-mode:color-dodge" d="M67.9404 116.981C100.119 116.981 126.205 90.7936 126.205 58.4903C126.205 26.187 100.119 0 67.9404 0C35.7617 0 9.67578 26.187 9.67578 58.4903C9.67578 90.7936 35.7617 116.981 67.9404 116.981Z" fill="url(#paint22_radial_2304_60683)"/>
<path fill-rule="evenodd" clip-rule="evenodd" d="M56.932 69.736H53.8614C53.2048 69.736 52.6061 70.0074 52.1619 70.4533C51.7371 70.8798 51.4667 71.5002 51.4667 72.1594C51.4667 72.8185 51.7371 73.4195 52.1619 73.8654C52.6061 74.2919 53.2048 74.5634 53.8614 74.5634H88.9128C89.7046 74.5634 90.3806 75.2225 90.3806 76.0368C90.3806 76.851 89.7239 77.5102 88.9128 77.5102H53.8614C52.3937 77.5102 51.0611 76.9092 50.0955 75.9398C49.1299 74.9705 48.5312 73.6328 48.5312 72.1594C48.5312 70.686 49.1299 69.3483 50.0955 68.3789C50.4431 68.03 50.8487 67.7198 51.2736 67.4871V66.8086H57.2989V69.736H56.932Z" fill="#00FFFF"/>
<path fill-rule="evenodd" clip-rule="evenodd" d="M83.1594 79.8164C83.8546 79.8164 84.5498 79.9715 85.1678 80.2235C85.8051 80.495 86.3845 80.8827 86.8673 81.3674C87.3501 81.852 87.7363 82.4336 88.0067 83.0734C88.2578 83.6938 88.4122 84.3723 88.4122 85.0896C88.4122 85.807 88.2771 86.4661 88.0067 87.1059C87.7363 87.7457 87.3501 88.3273 86.8673 88.8119C86.3845 89.2966 85.8051 89.7037 85.1678 89.9558C84.5498 90.2078 83.8739 90.3435 83.1594 90.3435C82.4448 90.3435 81.7882 90.2078 81.1509 89.9558C80.5136 89.6844 79.9342 89.2966 79.4514 88.8119C78.9686 88.3273 78.5631 87.7457 78.312 87.1059C78.061 86.4661 77.9258 85.807 77.9258 85.0896C77.9258 84.3723 78.061 83.6938 78.312 83.0734C78.5824 82.4336 78.9686 81.852 79.4514 81.3674C79.9342 80.8827 80.5136 80.4756 81.1509 80.2235C81.7882 79.9715 82.4641 79.8164 83.1594 79.8164ZM84.0477 82.9183C83.7773 82.8214 83.4877 82.7438 83.14 82.7438C82.7924 82.7438 82.5028 82.802 82.2324 82.9183C81.962 83.0346 81.6916 83.2285 81.4792 83.4224C81.2668 83.6356 81.093 83.907 80.9771 84.1979C80.8805 84.4693 80.8033 84.7795 80.8033 85.109C80.8033 85.4386 80.8612 85.7294 80.9771 86.0008C81.093 86.2916 81.2668 86.5437 81.4792 86.7763C81.6916 86.9896 81.962 87.1641 82.2517 87.2804C82.5221 87.3967 82.8311 87.4549 83.1594 87.4549C83.4877 87.4549 83.7967 87.3967 84.067 87.2804C84.3567 87.1641 84.6078 86.9702 84.8202 86.7569C85.0326 86.5437 85.2064 86.2723 85.3223 86.0008C85.4189 85.7294 85.4961 85.4192 85.4961 85.0896C85.4961 84.7601 85.4382 84.4499 85.3223 84.1785C85.2064 83.907 85.0133 83.6356 84.8202 83.4224C84.6078 83.2091 84.3374 83.0346 84.067 82.9183H84.0477Z" fill="#00FFFF"/>
<path fill-rule="evenodd" clip-rule="evenodd" d="M55.6005 79.8164C56.2958 79.8164 56.9717 79.9715 57.609 80.2235C58.2463 80.495 58.8257 80.8827 59.3085 81.3674C59.7913 81.8714 60.1775 82.453 60.4479 83.0928C60.6989 83.7132 60.8534 84.3917 60.8534 85.109C60.8534 85.8264 60.7183 86.4855 60.4479 87.1253C60.1775 87.765 59.7913 88.3467 59.3085 88.8313C58.8257 89.316 58.2463 89.7231 57.609 89.9752C56.9717 90.2272 56.2958 90.3629 55.6005 90.3629C54.9053 90.3629 54.2101 90.2272 53.5921 89.9752C52.9548 89.7037 52.3754 89.316 51.8926 88.8313C51.4098 88.3467 51.0043 87.765 50.7532 87.1253C50.5022 86.4855 50.3477 85.8264 50.3477 85.109C50.3477 84.3917 50.4828 83.7132 50.7532 83.0928C51.0043 82.453 51.4098 81.8714 51.8926 81.3867C52.3754 80.9021 52.9548 80.5143 53.5921 80.2429C54.2101 79.9909 54.9053 79.8358 55.6005 79.8358V79.8164ZM56.5082 82.9183C56.2378 82.8214 55.9289 82.7438 55.6005 82.7438C55.2722 82.7438 54.9632 82.802 54.6929 82.9183C54.4032 83.0346 54.1521 83.2285 53.9397 83.4224C53.7273 83.6356 53.5535 83.907 53.4376 84.1979C53.3217 84.4693 53.2638 84.7795 53.2638 85.109C53.2638 85.4386 53.3217 85.7294 53.4376 86.0008C53.5535 86.2916 53.7273 86.5437 53.9397 86.7763C54.1521 86.9896 54.4032 87.164 54.6929 87.2804C54.9632 87.3967 55.2529 87.4549 55.6005 87.4549C55.9482 87.4549 56.2185 87.3967 56.4889 87.2804C56.7786 87.164 57.0296 86.9702 57.2614 86.7569C57.4738 86.5437 57.6476 86.2723 57.7635 86.0008C57.8794 85.7294 57.9373 85.4192 57.9373 85.0896C57.9373 84.7601 57.8794 84.4499 57.7635 84.1785C57.6476 83.907 57.4738 83.6356 57.2614 83.4224C57.049 83.2091 56.7786 83.0346 56.5082 82.8989V82.9183Z" fill="#00FFFF"/>
<path fill-rule="evenodd" clip-rule="evenodd" d="M70.1435 41.8555H94.2643C94.3802 41.8555 94.5153 41.8555 94.6505 41.8942C95.0947 41.9718 95.4809 42.185 95.7899 42.4952C96.1569 42.8636 96.3886 43.3483 96.3886 43.9105C96.3886 44.0074 96.3886 44.1237 96.35 44.2594C95.0175 51.4326 93.6849 58.5864 92.3717 65.7401C92.1593 66.8258 91.6958 67.8339 90.9619 68.5706C90.2281 69.2879 89.2818 69.7532 88.1424 69.7532H54.6745C53.5351 69.7532 52.5695 69.2879 51.8549 68.5706C51.1404 67.8339 50.6576 66.8452 50.4645 65.7401C49.3057 59.4976 48.147 53.255 46.9883 47.0124H49.943C51.0631 53.0805 52.1832 59.1486 53.3226 65.2167C53.4192 65.7208 53.6316 66.186 53.9406 66.4962C54.1338 66.6901 54.3848 66.8258 54.6938 66.8258H88.1617C88.4707 66.8258 88.7217 66.7095 88.9148 66.4962C89.2238 66.186 89.4363 65.7208 89.5328 65.2167C90.7881 58.4119 92.0627 51.6071 93.318 44.8023H51.5846V41.8749H70.1628L70.1435 41.8555Z" fill="#00FFFF"/>
<path fill-rule="evenodd" clip-rule="evenodd" d="M50.0964 47.9446C49.1887 43.1367 48.3004 38.3093 47.412 33.5014C47.1996 32.4157 46.7361 31.4076 46.0022 30.6709C45.2684 29.9342 44.3221 29.4883 43.1827 29.4883H34.2412C33.4494 29.4883 32.7734 30.1474 32.7734 30.9617C32.7734 31.7759 33.43 32.4351 34.2412 32.4351H43.1827C43.4917 32.4351 43.7427 32.5514 43.9358 32.7647C44.2448 33.0749 44.4573 33.5401 44.5538 34.0442C45.4035 38.6777 46.2726 43.3305 47.1416 47.964H50.0964V47.9446Z" fill="#00FFFF"/>
<path fill-rule="evenodd" clip-rule="evenodd" d="M49.0732 41.8555H74.3527C75.1638 41.8555 75.8204 42.5146 75.8204 43.3289C75.8204 44.1237 75.1638 44.8023 74.3527 44.8023H49.0732C48.2814 44.8023 47.6055 44.1431 47.6055 43.3289C47.6055 42.5146 48.2621 41.8555 49.0732 41.8555Z" fill="#00FFFF"/>
<path fill-rule="evenodd" clip-rule="evenodd" d="M78.0781 44.1641C77.7305 49.0302 76.8808 62.8337 76.5332 67.6998C76.4752 68.4947 75.78 69.1151 74.9689 69.0569C74.1771 68.9987 73.5591 68.3008 73.617 67.4866C73.9647 62.6205 74.8144 48.8364 75.162 43.9702C75.2199 43.1754 75.9152 42.555 76.7263 42.6132C77.5181 42.6713 78.1361 43.3692 78.0781 44.1641Z" fill="#00FFFF"/>
<path fill-rule="evenodd" clip-rule="evenodd" d="M88.1587 44.7839C87.2318 49.65 84.9529 62.7362 84.0259 67.5829C83.8908 68.3778 83.1183 68.9012 82.3265 68.7461C81.5347 68.591 81.0133 67.8156 81.1677 67.0401C82.0947 62.174 84.3736 49.0878 85.3005 44.2217C85.455 43.4268 86.2082 42.9034 87 43.0585C87.7918 43.2136 88.3132 43.9891 88.178 44.7839H88.1587Z" fill="#00FFFF"/>
<path fill-rule="evenodd" clip-rule="evenodd" d="M64.6562 44.1641C65.0038 49.0302 65.8536 62.8337 66.2012 67.6998C66.2591 68.4947 66.9737 69.1151 67.7655 69.0569C68.5766 68.9987 69.1752 68.3008 69.1173 67.4866C68.7697 62.6205 67.92 48.8364 67.5723 43.9702C67.5144 43.1754 66.7999 42.555 66.0081 42.6132C65.197 42.6713 64.5983 43.3692 64.6562 44.1641Z" fill="#00FFFF"/>
<path fill-rule="evenodd" clip-rule="evenodd" d="M54.5779 44.7839C55.5049 49.65 57.7837 62.7362 58.6914 67.5829C58.8459 68.3778 59.6184 68.9012 60.3908 68.7461C61.1826 68.591 61.7041 67.8156 61.5496 67.0401C60.6226 62.174 58.3438 49.0878 57.4361 44.2217C57.2816 43.4268 56.5091 42.9034 55.7366 43.0585C54.9448 43.2136 54.4234 43.9891 54.5779 44.7839Z" fill="#00FFFF"/>
<path d="M94.1673 50.3867H49.0156V53.3335H94.1673V50.3867Z" fill="#00FFFF"/>
<path d="M92.6229 58.2578H50.0977V61.1852H92.6229V58.2578Z" fill="#00FFFF"/>
</g>
<defs>
<linearGradient id="paint0_linear_2304_60683" x1="14.5039" y1="44.1273" x2="122.459" y2="44.1273" gradientUnits="userSpaceOnUse">
<stop stop-color="#0071BC"/>
<stop offset="1" stop-color="#00FFFF"/>
</linearGradient>
<linearGradient id="paint1_linear_2304_60683" x1="49.6133" y1="108.355" x2="87.3298" y2="108.355" gradientUnits="userSpaceOnUse">
<stop stop-color="#0071BC"/>
<stop offset="1" stop-color="#00FFFF"/>
</linearGradient>
<linearGradient id="paint2_linear_2304_60683" x1="13.7695" y1="51.2797" x2="123.173" y2="51.2797" gradientUnits="userSpaceOnUse">
<stop stop-color="#0071BC"/>
<stop offset="1" stop-color="#00FFFF"/>
</linearGradient>
<linearGradient id="paint3_linear_2304_60683" x1="16.1836" y1="36.9711" x2="120.759" y2="36.9711" gradientUnits="userSpaceOnUse">
<stop stop-color="#0071BC"/>
<stop offset="1" stop-color="#00FFFF"/>
</linearGradient>
<linearGradient id="paint4_linear_2304_60683" x1="18.9646" y1="29.8189" x2="117.978" y2="29.8189" gradientUnits="userSpaceOnUse">
<stop stop-color="#0071BC"/>
<stop offset="1" stop-color="#00FFFF"/>
</linearGradient>
<linearGradient id="paint5_linear_2304_60683" x1="18.75" y1="79.8541" x2="118.188" y2="79.8541" gradientUnits="userSpaceOnUse">
<stop stop-color="#0071BC"/>
<stop offset="1" stop-color="#00FFFF"/>
</linearGradient>
<linearGradient id="paint6_linear_2304_60683" x1="36.2891" y1="101.319" x2="100.656" y2="101.319" gradientUnits="userSpaceOnUse">
<stop stop-color="#0071BC"/>
<stop offset="1" stop-color="#00FFFF"/>
</linearGradient>
<linearGradient id="paint7_linear_2304_60683" x1="13.75" y1="58.4126" x2="123.192" y2="58.4126" gradientUnits="userSpaceOnUse">
<stop stop-color="#0071BC"/>
<stop offset="1" stop-color="#00FFFF"/>
</linearGradient>
<linearGradient id="paint8_linear_2304_60683" x1="16.0469" y1="72.7211" x2="120.892" y2="72.7211" gradientUnits="userSpaceOnUse">
<stop stop-color="#0071BC"/>
<stop offset="1" stop-color="#00FFFF"/>
</linearGradient>
<linearGradient id="paint9_linear_2304_60683" x1="22.7109" y1="87.0102" x2="114.231" y2="87.0102" gradientUnits="userSpaceOnUse">
<stop stop-color="#0071BC"/>
<stop offset="1" stop-color="#00FFFF"/>
</linearGradient>
<linearGradient id="paint10_linear_2304_60683" x1="14.4258" y1="65.5688" x2="122.535" y2="65.5688" gradientUnits="userSpaceOnUse">
<stop stop-color="#0071BC"/>
<stop offset="1" stop-color="#00FFFF"/>
</linearGradient>
<linearGradient id="paint11_linear_2304_60683" x1="28.293" y1="94.1625" x2="108.67" y2="94.1625" gradientUnits="userSpaceOnUse">
<stop stop-color="#0071BC"/>
<stop offset="1" stop-color="#00FFFF"/>
</linearGradient>
<linearGradient id="paint12_linear_2304_60683" x1="50.8672" y1="1.57121" x2="86.0731" y2="1.57121" gradientUnits="userSpaceOnUse">
<stop stop-color="#0071BC"/>
<stop offset="1" stop-color="#00FFFF"/>
</linearGradient>
<linearGradient id="paint13_linear_2304_60683" x1="36.9062" y1="8.37749" x2="100.037" y2="8.37749" gradientUnits="userSpaceOnUse">
<stop stop-color="#0071BC"/>
<stop offset="1" stop-color="#00FFFF"/>
</linearGradient>
<linearGradient id="paint14_linear_2304_60683" x1="23" y1="22.682" x2="113.941" y2="22.682" gradientUnits="userSpaceOnUse">
<stop stop-color="#0071BC"/>
<stop offset="1" stop-color="#00FFFF"/>
</linearGradient>
<linearGradient id="paint15_linear_2304_60683" x1="28.6992" y1="15.5297" x2="108.246" y2="15.5297" gradientUnits="userSpaceOnUse">
<stop stop-color="#0071BC"/>
<stop offset="1" stop-color="#00FFFF"/>
</linearGradient>
<linearGradient id="paint16_linear_2304_60683" x1="167.611" y1="56.3996" x2="103.533" y2="56.3996" gradientUnits="userSpaceOnUse">
<stop stop-color="#0071BC"/>
<stop offset="1" stop-color="#00FFFF"/>
</linearGradient>
<linearGradient id="paint17_linear_2304_60683" x1="167.61" y1="56.3981" x2="103.533" y2="56.3981" gradientUnits="userSpaceOnUse">
<stop stop-color="#0071BC"/>
<stop offset="1" stop-color="#00FFFF"/>
</linearGradient>
<linearGradient id="paint18_linear_2304_60683" x1="167.611" y1="56.4178" x2="103.533" y2="56.4178" gradientUnits="userSpaceOnUse">
<stop stop-color="#0071BC"/>
<stop offset="1" stop-color="#00FFFF"/>
</linearGradient>
<linearGradient id="paint19_linear_2304_60683" x1="-35.6117" y1="55.5247" x2="36.8859" y2="55.5247" gradientUnits="userSpaceOnUse">
<stop stop-color="#0071BC"/>
<stop offset="1" stop-color="#00FFFF"/>
</linearGradient>
<linearGradient id="paint20_linear_2304_60683" x1="-35.6121" y1="55.5228" x2="36.8855" y2="55.5228" gradientUnits="userSpaceOnUse">
<stop stop-color="#0071BC"/>
<stop offset="1" stop-color="#00FFFF"/>
</linearGradient>
<linearGradient id="paint21_linear_2304_60683" x1="-35.6103" y1="55.5048" x2="36.8873" y2="55.5048" gradientUnits="userSpaceOnUse">
<stop stop-color="#0071BC"/>
<stop offset="1" stop-color="#00FFFF"/>
</linearGradient>
<radialGradient id="paint22_radial_2304_60683" cx="0" cy="0" r="1" gradientUnits="userSpaceOnUse" gradientTransform="translate(73.6766 62.1131) scale(58.1813 58.4067)">
<stop offset="0.02" stop-color="#BCBCBC"/>
<stop offset="0.88"/>
</radialGradient>
<clipPath id="clip0_2304_60683">
<rect width="137" height="117" fill="white"/>
</clipPath>
</defs>
</svg>
