<svg width="154" height="131" viewBox="0 0 154 131" fill="none" xmlns="http://www.w3.org/2000/svg">
<g clip-path="url(#clip0_2304_60060)">
<g opacity="0.2">
<path d="M16.3047 51.4003H137.655C137.438 50.0545 137.156 48.7087 136.852 47.4062H17.1079C16.804 48.7304 16.5218 50.0545 16.3047 51.4003Z" fill="url(#paint0_linear_2304_60060)"/>
<path d="M76.9787 123.185C84.4247 123.185 91.5668 121.861 98.1879 119.43H55.7695C62.3689 121.861 69.5327 123.185 76.9787 123.185Z" fill="url(#paint1_linear_2304_60060)"/>
<path d="M15.4766 59.4081H138.455C138.412 58.0623 138.325 56.7165 138.195 55.4141H15.7588C15.6285 56.7382 15.5417 58.0623 15.4983 59.4081H15.4766Z" fill="url(#paint2_linear_2304_60060)"/>
<path d="M18.1914 43.3886H135.743C135.33 42.0428 134.853 40.6969 134.354 39.3945H19.5808C19.0815 40.7186 18.6039 42.0428 18.1914 43.3886Z" fill="url(#paint3_linear_2304_60060)"/>
<path d="M21.3186 35.4042H132.64C131.988 34.0367 131.294 32.7126 130.556 31.4102H23.3809C22.6428 32.7126 21.9481 34.0584 21.2969 35.4042H21.3186Z" fill="url(#paint4_linear_2304_60060)"/>
<path d="M23.097 91.4276H130.815C131.531 90.1252 132.226 88.7794 132.833 87.4336H21.0781C21.7077 88.8011 22.3806 90.1252 23.097 91.4276Z" fill="url(#paint5_linear_2304_60060)"/>
<path d="M47.0628 115.435H106.891C109.062 114.22 111.146 112.896 113.143 111.441H40.7891C42.7862 112.896 44.8703 114.242 47.0411 115.435H47.0628Z" fill="url(#paint6_linear_2304_60060)"/>
<path d="M15.7175 67.4198H138.24C138.37 66.0957 138.457 64.7716 138.479 63.4258H15.457C15.5004 64.7716 15.5873 66.0957 15.6958 67.4198H15.7175Z" fill="url(#paint7_linear_2304_60060)"/>
<path d="M19.4067 83.4159H134.549C135.048 82.0918 135.504 80.7677 135.916 79.4219H18.0391C18.4515 80.7677 18.9074 82.1135 19.4067 83.4159Z" fill="url(#paint8_linear_2304_60060)"/>
<path d="M28.3968 99.4159H125.542C126.541 98.1135 127.496 96.7894 128.408 95.4219H25.5312C26.443 96.7894 27.3982 98.1352 28.3968 99.4159Z" fill="url(#paint9_linear_2304_60060)"/>
<path d="M16.9785 75.4081H136.961C137.265 74.084 137.526 72.7599 137.743 71.4141H16.2188C16.4358 72.7599 16.6963 74.1057 17.0003 75.4081H16.9785Z" fill="url(#paint10_linear_2304_60060)"/>
<path d="M35.8642 107.424H118.096C119.507 106.143 120.853 104.819 122.155 103.43H31.8047C33.0855 104.819 34.4531 106.165 35.8642 107.424Z" fill="url(#paint11_linear_2304_60060)"/>
<path d="M76.9778 0.128906C70.0528 0.128906 63.41 1.27936 57.1797 3.38491H96.7543C90.5456 1.27936 83.9028 0.128906 76.9778 0.128906Z" fill="url(#paint12_linear_2304_60060)"/>
<path d="M41.4844 11.3964H112.449C110.387 9.94203 108.216 8.59621 105.98 7.40234H47.9752C45.7392 8.59621 43.5684 9.94203 41.5061 11.3964H41.4844Z" fill="url(#paint13_linear_2304_60060)"/>
<path d="M25.8555 27.3925H128.081C127.147 26.025 126.17 24.6791 125.15 23.3984H28.7861C27.7658 24.7008 26.7889 26.025 25.8555 27.3925Z" fill="url(#paint14_linear_2304_60060)"/>
<path d="M32.2578 19.3847H121.675C120.351 17.9954 118.962 16.6496 117.529 15.3906H36.4258C34.9714 16.6496 33.582 17.9954 32.2795 19.3847H32.2578Z" fill="url(#paint15_linear_2304_60060)"/>
</g>
<path d="M115.819 8.11546C120.551 10.8071 124.914 14.1716 128.822 18.0571C132.512 22.1163 135.725 26.6313 138.33 31.4719C143.562 41.1531 146.319 52.1367 146.297 63.142C146.297 74.1473 143.562 85.1309 138.33 94.8121C135.725 99.6527 132.512 104.168 128.8 108.227C124.871 112.069 120.529 115.477 115.797 118.168C120.117 114.869 124.068 111.157 127.454 107.011C131.058 103.061 134.184 98.6759 136.724 93.9655C141.825 84.5448 144.495 73.8651 144.495 63.142C144.495 52.4189 141.825 41.7392 136.724 32.3184C134.184 27.6081 131.08 23.2016 127.454 19.2727C124.046 15.1484 120.117 11.4149 115.797 8.09375L115.819 8.11546Z" fill="url(#paint16_linear_2304_60060)"/>
<path d="M121.961 17.2773C125.239 20.0558 128.191 23.2467 130.818 26.6763C133.314 30.1928 135.464 33.9915 137.2 37.9421C140.674 45.8651 142.454 54.5043 142.454 63.1653C142.454 71.8046 140.674 80.4656 137.2 88.3885C135.464 92.3391 133.336 96.1378 130.818 99.6543C128.191 103.084 125.239 106.275 121.961 109.053C124.978 105.993 127.735 102.693 130.08 99.1333C132.555 95.6603 134.66 91.9267 136.375 88.0195C139.805 80.2051 141.564 71.6961 141.564 63.1653C141.564 54.6346 139.805 46.1256 136.375 38.3111C134.66 34.4039 132.555 30.6704 130.08 27.1973C127.735 23.6374 124.978 20.338 121.961 17.2773Z" fill="url(#paint17_linear_2304_60060)"/>
<path d="M130.818 114.371C131.512 113.742 132.229 113.112 132.923 112.461C132.815 111.658 132.684 110.855 132.533 110.052L133.531 109.053C133.857 108.727 134.161 108.358 134.486 108.011C135.268 108.12 136.071 108.228 136.896 108.315C137.156 108.033 137.417 107.751 137.656 107.447L135.593 105.645L137.677 107.425C139.197 105.623 140.673 103.757 141.997 101.781C141.715 101.022 141.433 100.262 141.151 99.5238C141.411 99.133 141.672 98.7423 141.911 98.3299L142.649 97.136C143.17 96.3546 143.582 95.508 144.038 94.6832C144.841 94.5963 145.666 94.5095 146.469 94.3793C146.969 93.3373 147.511 92.2954 147.989 91.2535L148.684 89.6472C148.901 89.1263 149.161 88.5836 149.335 88.0409C148.879 87.368 148.445 86.6951 147.967 86.0439C148.119 85.6098 148.293 85.1756 148.445 84.7198L148.879 83.374C149.661 83.1352 150.42 82.8964 151.202 82.6359C151.484 81.6374 151.745 80.6172 152.027 79.597C151.506 78.9892 150.963 78.3814 150.399 77.7736L150.703 76.4061L150.854 75.7115L150.963 75.0169C151.679 74.6696 152.417 74.3223 153.134 73.9533C153.199 73.4757 153.286 73.0199 153.351 72.5423L153.503 71.1314C152.895 70.5887 152.287 70.0678 151.701 69.5468C151.788 68.6134 151.831 67.68 151.896 66.7466L152.938 66.0954L153.937 65.4225V64.2721L150.485 64.2287H153.959C153.959 63.6426 153.98 63.0348 153.959 62.4487L153.894 60.6688C153.872 59.4749 153.742 58.3027 153.655 57.1306C152.938 56.7181 152.266 56.3274 151.549 55.9584L151.158 53.1582C151.006 52.2248 150.811 51.3132 150.637 50.3798C151.202 49.8154 151.766 49.2076 152.287 48.5998L151.875 46.9067C151.723 46.3423 151.614 45.7779 151.441 45.2136L150.941 43.5421C150.768 42.9778 150.616 42.4351 150.42 41.8924C149.639 41.6537 148.857 41.4366 148.097 41.2195C147.946 40.7854 147.794 40.3296 147.62 39.8954L147.099 38.593C147.533 37.9201 147.967 37.2255 148.38 36.5309C147.967 35.5758 147.49 34.6207 147.055 33.6873C146.252 33.5354 145.449 33.4268 144.646 33.34C144.19 32.5151 143.778 31.6686 143.3 30.8654C143.647 30.1274 143.973 29.4111 144.299 28.6513L143.56 27.4358L142.757 26.2636C141.954 26.2419 141.129 26.2202 140.348 26.1985C139.827 25.417 139.24 24.679 138.676 23.9193C138.937 23.1596 139.175 22.3781 139.392 21.5967L138.654 20.7067L136.809 22.2262H136.787L138.633 20.685C138.264 20.2291 137.895 19.7516 137.504 19.3175L136.31 17.9934C135.528 17.1034 134.682 16.2785 133.835 15.432C133.054 15.5622 132.25 15.7141 131.469 15.8878C131.36 15.7793 131.23 15.6707 131.1 15.5622C129.862 14.2815 128.56 13.0659 127.236 11.8721L125.238 10.2006C124.479 9.57115 123.697 8.96336 122.916 8.35557C119.681 6.16319 116.273 4.2313 112.734 2.625V3.62351C115.947 5.42517 119.008 7.4873 121.852 9.80992C123.024 10.6782 124.153 11.6116 125.26 12.545C125.26 12.545 125.456 12.7186 125.564 12.7837C129.58 16.2351 133.184 20.1423 136.266 24.4402C136.787 25.1349 137.265 25.8295 137.721 26.5458C138.198 27.2838 138.676 27.9784 139.11 28.7165C139.957 30.2142 140.847 31.6686 141.585 33.2315C142.388 34.7509 143.039 36.3355 143.734 37.8984L144.646 40.3079C144.971 41.111 145.232 41.9141 145.492 42.739C147.62 49.2727 148.618 56.1538 148.684 63.0131C148.64 69.8724 147.642 76.7534 145.514 83.2871C145.037 84.9369 144.364 86.5214 143.778 88.1277C143.083 89.6906 142.432 91.2969 141.628 92.8164C140.109 95.8987 138.307 98.8291 136.31 101.629C132.315 107.23 127.431 112.157 121.939 116.303C119.073 118.647 115.991 120.731 112.734 122.555V123.531C116.316 121.903 119.746 119.971 123.002 117.736C123.762 117.171 125.477 116.043 126.215 115.456C126.975 114.892 127.692 114.284 128.408 113.698C129.189 113.915 129.993 114.132 130.752 114.306L130.818 114.371Z" fill="url(#paint18_linear_2304_60060)"/>
<path d="M38.1859 117.198C33.4534 114.506 29.09 111.141 25.1825 107.256C21.492 103.197 18.2792 98.6817 15.6742 93.8411C10.4424 84.1599 7.68545 73.1763 7.70716 62.171C7.70716 51.1657 10.4424 40.1821 15.6742 30.501C18.2792 25.6604 21.492 21.1454 25.2042 17.0862C29.1334 13.2441 33.4751 9.83616 38.2076 7.14453C33.8876 10.444 29.9366 14.1558 26.5501 18.3018C22.9465 22.2524 19.8205 26.6372 17.2806 31.3475C12.1791 40.7682 9.50896 51.4479 9.50896 62.171C9.50896 72.8942 12.1791 83.5739 17.2806 92.9946C19.8205 97.7049 22.9248 102.111 26.5501 106.04C29.9584 110.165 33.8876 113.898 38.2076 117.219L38.1859 117.198Z" fill="url(#paint19_linear_2304_60060)"/>
<path d="M32.0436 108.034C28.7656 105.255 25.8133 102.064 23.1865 98.6348C20.6901 95.1183 18.5409 91.3196 16.8042 87.369C13.3309 79.446 11.5508 70.8068 11.5508 62.1458C11.5508 53.5065 13.3309 44.8456 16.8042 36.9226C18.5409 32.972 20.6901 29.1733 23.1865 25.6568C25.8133 22.2272 28.7656 19.0363 32.0436 16.2578C29.0261 19.3185 26.2691 22.6179 23.9246 26.1778C21.4499 29.6509 19.3441 33.3844 17.6292 37.2916C14.1992 45.106 12.4408 53.6151 12.4408 62.1458C12.4408 70.6765 14.1992 79.1856 17.6292 87C19.3441 90.9072 21.4499 94.6407 23.9246 98.1138C26.2691 101.674 29.0261 104.973 32.0436 108.034Z" fill="url(#paint20_linear_2304_60060)"/>
<path d="M23.1643 10.9415C22.4697 11.571 21.7533 12.2005 21.0586 12.8517C21.1672 13.6548 21.2974 14.458 21.4494 15.2611L20.4508 16.2596C20.1252 16.5852 19.8212 16.9542 19.4956 17.3015C18.6924 17.193 17.9109 17.0845 17.086 16.9977C16.8255 17.2798 16.565 17.562 16.3262 17.8659L18.3885 19.6676L16.3045 17.8876C14.7849 19.6893 13.3087 21.5561 11.9845 23.5314C12.2667 24.2911 12.5489 25.0508 12.8311 25.7889C12.5706 26.1796 12.3101 26.5703 12.0713 26.9827L11.3332 28.1766C10.8122 28.9798 10.3998 29.8046 9.94387 30.6295C9.14066 30.7163 8.31574 30.8031 7.51252 30.9334C7.01323 31.9753 6.47052 33.0172 5.99293 34.0591L5.29826 35.6654C5.08117 36.1864 4.82067 36.7291 4.647 37.2717C5.10288 37.9663 5.53705 38.6175 6.01464 39.2905C5.86268 39.7246 5.68901 40.1587 5.53705 40.6146L5.12459 41.9604C4.34308 42.1992 3.58329 42.4379 2.80178 42.6984C2.51957 43.6969 2.25907 44.7171 1.97686 45.7373C2.49786 46.3451 3.04058 46.9529 3.605 47.5607L3.30108 48.9282L3.14912 49.6228L3.04058 50.3175C2.3242 50.6648 1.58611 51.0121 0.869727 51.3811C0.804601 51.8586 0.717768 52.3145 0.652642 52.792L0.500683 54.203C1.10852 54.7456 1.71636 55.2666 2.30249 55.7876C2.21565 56.7209 2.17224 57.6543 2.10711 58.5877L1.0651 59.2389L0.066513 59.9118V61.0623L3.51816 61.1057H0.0448045C0.0448045 61.6918 0.023096 62.2996 0.0448045 62.8856L0.10993 64.6656C0.131638 65.8595 0.261889 67.0316 0.348723 68.2038C1.0651 68.6162 1.73807 69.0069 2.45445 69.376L2.8452 72.1761C2.99716 73.1095 3.19253 74.0212 3.3662 74.9546C2.80178 75.519 2.23736 76.1267 1.71636 76.7345L2.12882 78.4277C2.28078 78.992 2.38932 79.5564 2.56299 80.1208L3.06228 81.7922C3.23595 82.3566 3.38791 82.8992 3.58329 83.4419C4.36479 83.6807 5.1463 83.8977 5.9061 84.1148C6.05805 84.5489 6.21001 85.0048 6.38368 85.4389L6.90469 86.7413C6.47052 87.4142 6.03635 88.1088 5.62389 88.8035C6.03635 89.7586 6.51393 90.7137 6.9481 91.647C7.75132 91.799 8.55453 91.9075 9.35775 91.9943C9.81362 92.8192 10.2261 93.6658 10.7037 94.4689C10.3563 95.2069 10.0307 95.9233 9.70508 96.683L10.4432 97.8986L11.2464 99.0707C12.0496 99.0924 12.8745 99.1142 13.656 99.1142C14.177 99.8956 14.7632 100.634 15.3276 101.393C15.0671 102.153 14.8283 102.935 14.6112 103.716L15.3493 104.606L17.1945 103.086H17.2162L15.371 104.628C15.74 105.083 16.1091 105.561 16.4998 105.995L17.6938 107.319C18.4753 108.231 19.3219 109.034 20.1686 109.881C20.9501 109.75 21.7533 109.598 22.5348 109.425C22.6433 109.533 22.7736 109.642 22.9038 109.75C24.1412 111.031 25.4437 112.247 26.768 113.441L28.7651 115.112C29.5249 115.741 30.3064 116.349 31.0879 116.957C34.3225 119.149 37.7307 121.081 41.2692 122.688V121.689C38.0564 119.887 34.9955 117.825 32.1517 115.503C30.9794 114.634 29.8506 113.723 28.7434 112.768C28.7434 112.768 28.548 112.594 28.4395 112.529C24.4234 109.078 20.8198 105.17 17.7372 100.872C17.2162 100.178 16.7386 99.4832 16.2828 98.7668C15.8052 98.0288 15.3276 97.3342 14.8934 96.5962C14.0468 95.0984 13.1567 93.6441 12.4186 92.0812C11.6154 90.5617 10.9642 88.9771 10.2695 87.4142L9.35775 85.0048C9.03212 84.2016 8.77162 83.3985 8.51111 82.5736C6.38368 76.0399 5.38509 69.1589 5.31997 62.2996C5.36338 55.4402 6.36197 48.5592 8.48941 42.0255C8.96699 40.3758 9.63996 38.7912 10.2261 37.1849C10.9208 35.622 11.572 34.0157 12.3752 32.4962C13.8948 29.4139 15.6966 26.4835 17.6938 23.6833C21.6882 18.083 26.5726 13.1556 32.0648 9.00959C34.9303 6.66526 38.0129 4.58142 41.2692 2.75805V1.78125C37.6873 3.40925 34.2574 5.34115 31.0011 7.57694C30.2413 8.14132 28.5263 9.27007 27.7882 9.85615C27.0285 10.4205 26.3121 11.0283 25.5957 11.6144C24.8142 11.3973 24.011 11.1803 23.2512 11.0066L23.1643 10.9415Z" fill="url(#paint21_linear_2304_60060)"/>
<path style="mix-blend-mode:color-dodge" d="M76.3734 130.978C112.545 130.978 141.868 101.658 141.868 65.4892C141.868 29.3205 112.545 0 76.3734 0C40.2018 0 10.8789 29.3205 10.8789 65.4892C10.8789 101.658 40.2018 130.978 76.3734 130.978Z" fill="url(#paint22_radial_2304_60060)"/>
<path d="M93.7193 100.435C96.1072 100.435 98.0393 98.5028 98.1261 96.1367H46.9375C47.0243 98.5245 48.9564 100.435 51.3443 100.435H93.741H93.7193Z" fill="#00FFFF"/>
<path d="M113.668 57.021C109.826 54.9372 102.054 54.9372 99.5359 61.5143C99.5359 61.4492 99.5359 61.3624 99.5359 61.2756V55.6969C99.5359 54.9806 98.9498 54.3945 98.2334 54.3945H46.8494C46.133 54.3945 45.5469 54.9806 45.5469 55.6969V61.2756C45.5469 71.9118 47.2184 84.2847 58.5068 93.0108C59.5489 93.8139 60.8297 94.2046 62.1322 94.2046H82.9723C84.2748 94.2046 85.5773 93.8139 86.5976 93.0108C89.6368 90.6447 91.9813 88.0182 93.7831 85.2398C100.643 83.2862 113.668 80.4643 118.118 71.608C121.679 64.5099 117.402 59.0181 113.712 57.021H113.668ZM113.277 70.3924C109.543 75.8408 101.251 78.2719 96.6921 79.4441C98.038 75.971 98.7761 72.3894 99.1451 68.8295L99.2103 68.8729C100.361 69.2636 101.707 68.0698 102.141 66.572C103.682 61.2104 107.611 59.6258 111.324 61.3407C114.124 62.6214 115.882 66.572 113.256 70.3924H113.277Z" fill="#00FFFF"/>
<path d="M78.22 34.3836C77.8943 34.796 77.5036 35.1868 77.0477 35.6209C76.5701 36.055 76.0925 36.5109 75.6801 37.0535C72.033 41.8941 75.4847 48.1457 75.5064 48.1674C75.5932 48.3844 75.8103 48.5147 76.0274 48.5147C76.0708 48.5147 76.1359 48.5147 76.1794 48.5147C76.4616 48.4278 76.6352 48.1674 76.5701 47.8418C76.5701 47.7766 74.5512 41.2212 78.6975 37.4225C79.11 37.0535 79.631 36.5543 80.0869 35.9465C80.5428 35.3821 80.9335 34.7743 81.2374 34.1448C81.5848 33.4502 81.8236 32.7339 81.9538 32.0176C82.5182 28.5662 80.3257 24.9412 80.2606 24.8109C80.152 24.5505 79.8698 24.4202 79.5876 24.4853C79.3054 24.5722 79.1317 24.8327 79.1968 25.1583C79.1968 25.2017 80.6513 29.7384 79.0666 33.0378C78.8495 33.4936 78.5673 33.9278 78.1983 34.3836H78.22Z" fill="#00FFFF"/>
<path d="M69.8396 30.6489C69.4271 31.3435 68.8844 31.973 68.3417 32.6242C67.7338 33.3189 67.126 34.0786 66.605 34.9252C66.0623 35.7934 65.6281 36.6834 65.3242 37.6168C64.9986 38.5502 64.8249 39.5704 64.8032 40.634C64.7598 42.4791 65.3025 44.3676 66.3662 46.1041C66.5399 46.3863 66.7135 46.6685 66.8872 46.929L67.799 48.2748C67.9075 48.4267 68.0812 48.5136 68.2548 48.5136C68.3417 48.5136 68.4285 48.5136 68.5153 48.4484C68.7758 48.3182 68.8844 48.036 68.7976 47.7755L68.2766 46.2343C68.2331 46.1258 68.1897 45.9956 68.1463 45.8436C67.647 44.4978 66.6484 41.7194 67.6904 38.3982C67.9292 37.6602 68.2766 36.9439 68.7324 36.2276C69.1449 35.5329 69.6876 34.9034 70.2303 34.2522C70.8382 33.5576 71.446 32.7979 71.967 31.9513C72.5097 31.0831 72.9439 30.1931 73.2478 29.2597C73.5734 28.3263 73.7471 27.3061 73.7688 26.2425C73.8122 24.3974 73.2695 22.5089 72.2058 20.7724C72.0321 20.4902 71.8585 20.208 71.6848 19.9475L70.773 18.6017C70.6211 18.3629 70.3172 18.2978 70.0567 18.4063C69.7961 18.5366 69.6876 18.8188 69.7744 19.0793L70.3606 20.8375C70.773 22.0531 71.8802 25.2874 70.8599 28.4566C70.6211 29.1946 70.2737 29.9109 69.8179 30.6272L69.8396 30.6489Z" fill="#00FFFF"/>
</g>
<defs>
<linearGradient id="paint0_linear_2304_60060" x1="16.3047" y1="49.4033" x2="137.655" y2="49.4033" gradientUnits="userSpaceOnUse">
<stop stop-color="#0071BC"/>
<stop offset="1" stop-color="#00FFFF"/>
</linearGradient>
<linearGradient id="paint1_linear_2304_60060" x1="55.7695" y1="121.318" x2="98.1662" y2="121.318" gradientUnits="userSpaceOnUse">
<stop stop-color="#0071BC"/>
<stop offset="1" stop-color="#00FFFF"/>
</linearGradient>
<linearGradient id="paint2_linear_2304_60060" x1="15.4766" y1="57.4111" x2="138.455" y2="57.4111" gradientUnits="userSpaceOnUse">
<stop stop-color="#0071BC"/>
<stop offset="1" stop-color="#00FFFF"/>
</linearGradient>
<linearGradient id="paint3_linear_2304_60060" x1="18.1914" y1="41.3916" x2="135.743" y2="41.3916" gradientUnits="userSpaceOnUse">
<stop stop-color="#0071BC"/>
<stop offset="1" stop-color="#00FFFF"/>
</linearGradient>
<linearGradient id="paint4_linear_2304_60060" x1="21.3186" y1="33.3855" x2="132.618" y2="33.3855" gradientUnits="userSpaceOnUse">
<stop stop-color="#0071BC"/>
<stop offset="1" stop-color="#00FFFF"/>
</linearGradient>
<linearGradient id="paint5_linear_2304_60060" x1="21.0781" y1="89.4089" x2="132.855" y2="89.4089" gradientUnits="userSpaceOnUse">
<stop stop-color="#0071BC"/>
<stop offset="1" stop-color="#00FFFF"/>
</linearGradient>
<linearGradient id="paint6_linear_2304_60060" x1="40.7891" y1="113.438" x2="113.143" y2="113.438" gradientUnits="userSpaceOnUse">
<stop stop-color="#0071BC"/>
<stop offset="1" stop-color="#00FFFF"/>
</linearGradient>
<linearGradient id="paint7_linear_2304_60060" x1="15.457" y1="65.4011" x2="138.479" y2="65.4011" gradientUnits="userSpaceOnUse">
<stop stop-color="#0071BC"/>
<stop offset="1" stop-color="#00FFFF"/>
</linearGradient>
<linearGradient id="paint8_linear_2304_60060" x1="18.0391" y1="81.4189" x2="135.894" y2="81.4189" gradientUnits="userSpaceOnUse">
<stop stop-color="#0071BC"/>
<stop offset="1" stop-color="#00FFFF"/>
</linearGradient>
<linearGradient id="paint9_linear_2304_60060" x1="25.5312" y1="97.4189" x2="128.408" y2="97.4189" gradientUnits="userSpaceOnUse">
<stop stop-color="#0071BC"/>
<stop offset="1" stop-color="#00FFFF"/>
</linearGradient>
<linearGradient id="paint10_linear_2304_60060" x1="16.2188" y1="73.4111" x2="137.743" y2="73.4111" gradientUnits="userSpaceOnUse">
<stop stop-color="#0071BC"/>
<stop offset="1" stop-color="#00FFFF"/>
</linearGradient>
<linearGradient id="paint11_linear_2304_60060" x1="31.8047" y1="105.427" x2="122.155" y2="105.427" gradientUnits="userSpaceOnUse">
<stop stop-color="#0071BC"/>
<stop offset="1" stop-color="#00FFFF"/>
</linearGradient>
<linearGradient id="paint12_linear_2304_60060" x1="57.1797" y1="1.75691" x2="96.7543" y2="1.75691" gradientUnits="userSpaceOnUse">
<stop stop-color="#0071BC"/>
<stop offset="1" stop-color="#00FFFF"/>
</linearGradient>
<linearGradient id="paint13_linear_2304_60060" x1="41.4844" y1="9.37765" x2="112.449" y2="9.37765" gradientUnits="userSpaceOnUse">
<stop stop-color="#0071BC"/>
<stop offset="1" stop-color="#00FFFF"/>
</linearGradient>
<linearGradient id="paint14_linear_2304_60060" x1="25.8555" y1="25.3955" x2="128.081" y2="25.3955" gradientUnits="userSpaceOnUse">
<stop stop-color="#0071BC"/>
<stop offset="1" stop-color="#00FFFF"/>
</linearGradient>
<linearGradient id="paint15_linear_2304_60060" x1="32.2578" y1="17.3876" x2="121.675" y2="17.3876" gradientUnits="userSpaceOnUse">
<stop stop-color="#0071BC"/>
<stop offset="1" stop-color="#00FFFF"/>
</linearGradient>
<linearGradient id="paint16_linear_2304_60060" x1="188.412" y1="63.142" x2="116.383" y2="63.142" gradientUnits="userSpaceOnUse">
<stop stop-color="#0071BC"/>
<stop offset="1" stop-color="#00FFFF"/>
</linearGradient>
<linearGradient id="paint17_linear_2304_60060" x1="188.411" y1="63.1436" x2="116.382" y2="63.1436" gradientUnits="userSpaceOnUse">
<stop stop-color="#0071BC"/>
<stop offset="1" stop-color="#00FFFF"/>
</linearGradient>
<linearGradient id="paint18_linear_2304_60060" x1="188.41" y1="63.165" x2="116.381" y2="63.165" gradientUnits="userSpaceOnUse">
<stop stop-color="#0071BC"/>
<stop offset="1" stop-color="#00FFFF"/>
</linearGradient>
<linearGradient id="paint19_linear_2304_60060" x1="-40.0298" y1="62.171" x2="41.4639" y2="62.171" gradientUnits="userSpaceOnUse">
<stop stop-color="#0071BC"/>
<stop offset="1" stop-color="#00FFFF"/>
</linearGradient>
<linearGradient id="paint20_linear_2304_60060" x1="-40.0286" y1="62.1675" x2="41.4651" y2="62.1675" gradientUnits="userSpaceOnUse">
<stop stop-color="#0071BC"/>
<stop offset="1" stop-color="#00FFFF"/>
</linearGradient>
<linearGradient id="paint21_linear_2304_60060" x1="-40.0291" y1="62.1476" x2="41.4646" y2="62.1476" gradientUnits="userSpaceOnUse">
<stop stop-color="#0071BC"/>
<stop offset="1" stop-color="#00FFFF"/>
</linearGradient>
<radialGradient id="paint22_radial_2304_60060" cx="0" cy="0" r="1" gradientUnits="userSpaceOnUse" gradientTransform="translate(82.1713 69.5455) scale(65.4009 65.3956)">
<stop offset="0.02" stop-color="#BCBCBC"/>
<stop offset="0.88"/>
</radialGradient>
<clipPath id="clip0_2304_60060">
<rect width="154" height="131" fill="white"/>
</clipPath>
</defs>
</svg>
