<svg width="3840" height="112" viewBox="0 0 3840 112" fill="none" xmlns="http://www.w3.org/2000/svg">
<mask id="path-1-inside-1_2304_53840" fill="white">
<path d="M0 0H3840V112H0V0Z"/>
</mask>
<path d="M0 0H3840V112H0V0Z" fill="#2E2E38"/>
<path d="M0 0V-2H-2V0H0ZM3840 0H3842V-2H3840V0ZM3840 112V114H3842V112H3840ZM0 112H-2V114H0V112ZM0 0V2H3840V0V-2H0V0ZM3840 0H3838V112H3840H3842V0H3840ZM3840 112V110H0V112V114H3840V112ZM0 112H2V0H0H-2V112H0Z" fill="#2E2E38" mask="url(#path-1-inside-1_2304_53840)"/>
<rect x="20" y="16" width="80" height="80" rx="5" fill="#2E2E38"/>
<path d="M39.6263 73.4089H50.6007V67.0362H39.6263V62.0276H51.7655L47.7377 55.0469H30.5234V85.3972H54.803V78.4164H39.6263V73.4089Z" fill="white"/>
<path d="M70.9636 55.0469L65.8083 64.9517L60.6659 55.0469H50.6016L61.2055 73.4089V85.3972H70.2805V73.4089L80.8983 55.0469H70.9636Z" fill="white"/>
<path d="M89.9993 24.0469L30 45.9453L89.9993 35.3467V24.0469Z" fill="#FFE600"/>
<path d="M139.971 51.2948C139.679 50.8364 139.382 50.4405 139.08 50.1071C138.778 49.7633 138.445 49.4821 138.08 49.2633C137.715 49.0445 137.309 48.883 136.861 48.7788C136.413 48.6642 135.903 48.607 135.33 48.607C134.35 48.607 133.486 48.7997 132.735 49.1851C131.985 49.5602 131.355 50.1071 130.845 50.826C130.345 51.5344 129.964 52.3939 129.704 53.4044C129.443 54.415 129.313 55.5453 129.313 56.7955C129.313 58.056 129.443 59.1916 129.704 60.2021C129.964 61.2127 130.345 62.0722 130.845 62.7806C131.355 63.489 131.985 64.036 132.735 64.4214C133.486 64.7965 134.35 64.984 135.33 64.984C136.496 64.984 137.465 64.7496 138.236 64.2808C139.007 63.812 139.679 63.1192 140.252 62.2024L143.049 64.062C142.528 64.8954 142.034 65.5362 141.565 65.9841C141.106 66.4217 140.585 66.8176 140.002 67.1718C139.429 67.5156 138.752 67.7968 137.97 68.0156C137.2 68.2448 136.319 68.3594 135.33 68.3594C134.267 68.3594 133.308 68.2188 132.454 67.9375C131.61 67.6562 130.845 67.2707 130.157 66.7811C129.469 66.2915 128.844 65.682 128.282 64.9527C127.73 64.2131 127.287 63.4473 126.953 62.6556C126.62 61.8638 126.354 60.9783 126.157 59.999C125.959 59.0197 125.86 57.9519 125.86 56.7955C125.86 55.0973 126.078 53.5451 126.516 52.1386C126.964 50.7218 127.599 49.5029 128.422 48.4819C129.245 47.461 130.24 46.6692 131.407 46.1066C132.574 45.5336 133.881 45.2472 135.33 45.2472C137.153 45.2472 138.684 45.6066 139.924 46.3254C141.164 47.0443 142.169 48.0808 142.94 49.4352L139.971 51.2948ZM162.802 68H147.878V45.5909H162.317V48.857H151.238V54.4046H160.239V57.655H151.238V64.734H162.802V68ZM179.569 51.2948C179.278 50.8364 178.981 50.4405 178.679 50.1071C178.377 49.7633 178.043 49.4821 177.679 49.2633C177.314 49.0445 176.908 48.883 176.46 48.7788C176.012 48.6642 175.501 48.607 174.928 48.607C173.949 48.607 173.084 48.7997 172.334 49.1851C171.584 49.5602 170.954 50.1071 170.443 50.826C169.943 51.5344 169.563 52.3939 169.303 53.4044C169.042 54.415 168.912 55.5453 168.912 56.7955C168.912 58.056 169.042 59.1916 169.303 60.2021C169.563 61.2127 169.943 62.0722 170.443 62.7806C170.954 63.489 171.584 64.036 172.334 64.4214C173.084 64.7965 173.949 64.984 174.928 64.984C176.095 64.984 177.064 64.7496 177.835 64.2808C178.606 63.812 179.278 63.1192 179.851 62.2024L182.648 64.062C182.127 64.8954 181.632 65.5362 181.163 65.9841C180.705 66.4217 180.184 66.8176 179.601 67.1718C179.028 67.5156 178.351 67.7968 177.569 68.0156C176.798 68.2448 175.918 68.3594 174.928 68.3594C173.866 68.3594 172.907 68.2188 172.053 67.9375C171.209 67.6562 170.443 67.2707 169.756 66.7811C169.068 66.2915 168.443 65.682 167.88 64.9527C167.328 64.2131 166.886 63.4473 166.552 62.6556C166.219 61.8638 165.953 60.9783 165.755 59.999C165.557 59.0197 165.458 57.9519 165.458 56.7955C165.458 55.0973 165.677 53.5451 166.115 52.1386C166.563 50.7218 167.198 49.5029 168.021 48.4819C168.844 47.461 169.839 46.6692 171.006 46.1066C172.173 45.5336 173.48 45.2472 174.928 45.2472C176.751 45.2472 178.283 45.6066 179.523 46.3254C180.762 47.0443 181.768 48.0808 182.539 49.4352L179.569 51.2948ZM196.431 73.9226V42.403H199.463V73.9226H196.431ZM230.81 61.1241C230.81 63.3953 230.143 65.109 228.81 66.2654C227.476 67.4218 225.586 68 223.137 68H214.23V45.5909H223.45C224.429 45.5909 225.315 45.7212 226.107 45.9816C226.898 46.2317 227.575 46.6015 228.138 47.0911C228.701 47.5808 229.133 48.1902 229.435 48.9195C229.737 49.6383 229.888 50.4718 229.888 51.4198C229.888 51.9928 229.815 52.5137 229.669 52.9825C229.524 53.4409 229.326 53.8524 229.076 54.217C228.826 54.5817 228.523 54.9046 228.169 55.1859C227.825 55.4672 227.45 55.7068 227.044 55.9047C227.482 56.0298 227.924 56.2277 228.372 56.4986C228.82 56.759 229.221 57.1028 229.576 57.5299C229.94 57.9571 230.237 58.4676 230.466 59.0614C230.696 59.6552 230.81 60.3428 230.81 61.1241ZM226.528 51.6073C226.528 51.1906 226.471 50.8051 226.357 50.4509C226.242 50.0967 226.06 49.7894 225.81 49.5289C225.57 49.2581 225.252 49.0497 224.856 48.9039C224.46 48.7476 223.981 48.6695 223.419 48.6695H217.402V54.4671H223.419C223.971 54.4671 224.44 54.3889 224.825 54.2327C225.221 54.0764 225.544 53.868 225.794 53.6076C226.044 53.3367 226.226 53.0294 226.341 52.6856C226.466 52.3418 226.528 51.9824 226.528 51.6073ZM227.45 61.2179C227.45 60.6657 227.378 60.1813 227.232 59.7646C227.086 59.3375 226.851 58.952 226.528 58.6082C226.216 58.254 225.815 57.9831 225.325 57.7956C224.836 57.6081 224.221 57.5091 223.481 57.4987H217.402V64.9215H223.387C224.138 64.9215 224.768 64.8329 225.278 64.6558C225.799 64.4787 226.216 64.2287 226.528 63.9057C226.851 63.5724 227.086 63.1817 227.232 62.7337C227.378 62.2753 227.45 61.7701 227.45 61.2179ZM248.672 51.2948C248.38 50.8364 248.083 50.4405 247.781 50.1071C247.479 49.7633 247.146 49.4821 246.781 49.2633C246.416 49.0445 246.01 48.883 245.562 48.7788C245.114 48.6642 244.604 48.607 244.031 48.607C243.051 48.607 242.187 48.7997 241.437 49.1851C240.686 49.5602 240.056 50.1071 239.546 50.826C239.046 51.5344 238.665 52.3939 238.405 53.4044C238.144 54.415 238.014 55.5453 238.014 56.7955C238.014 58.056 238.144 59.1916 238.405 60.2021C238.665 61.2127 239.046 62.0722 239.546 62.7806C240.056 63.489 240.686 64.036 241.437 64.4214C242.187 64.7965 243.051 64.984 244.031 64.984C245.197 64.984 246.166 64.7496 246.937 64.2808C247.708 63.812 248.38 63.1192 248.953 62.2024L251.75 64.062C251.229 64.8954 250.735 65.5362 250.266 65.9841C249.807 66.4217 249.286 66.8176 248.703 67.1718C248.13 67.5156 247.453 67.7968 246.672 68.0156C245.901 68.2448 245.02 68.3594 244.031 68.3594C242.968 68.3594 242.01 68.2188 241.155 67.9375C240.311 67.6562 239.546 67.2707 238.858 66.7811C238.171 66.2915 237.545 65.682 236.983 64.9527C236.431 64.2131 235.988 63.4473 235.655 62.6556C235.321 61.8638 235.056 60.9783 234.858 59.999C234.66 59.0197 234.561 57.9519 234.561 56.7955C234.561 55.0973 234.779 53.5451 235.217 52.1386C235.665 50.7218 236.3 49.5029 237.124 48.4819C237.947 47.461 238.941 46.6692 240.108 46.1066C241.275 45.5336 242.583 45.2472 244.031 45.2472C245.854 45.2472 247.385 45.6066 248.625 46.3254C249.865 47.0443 250.87 48.0808 251.641 49.4352L248.672 51.2948ZM276.613 68H273.316V52.5293L266.502 68.3594L259.751 52.5293V68H256.579V45.5909H260.048L266.612 61.1866L273.034 45.5909H276.613V68Z" fill="white"/>
</svg>
