<svg width="137" height="140" viewBox="0 0 137 140" fill="none" xmlns="http://www.w3.org/2000/svg">
<path d="M77.9351 137.557C76.4164 137.877 74.8976 137.877 73.3789 137.957C71.8602 137.957 70.3414 138.197 68.8227 138.117C65.7852 137.957 62.7478 137.957 59.7902 137.397C53.7952 136.677 47.9601 134.756 42.3647 132.436C36.7694 130.035 31.6536 126.674 26.9376 122.913C22.3814 118.992 18.065 114.67 14.6278 109.629C13.4288 108.189 12.6295 106.508 11.5904 104.908C11.1107 104.107 10.6311 103.307 10.1515 102.507L8.95255 100.026C7.35388 99.386 5.67527 98.6658 4.07661 97.9456C3.27727 95.705 2.31807 93.4643 1.6786 91.1436C1.11907 88.823 0.399667 86.5023 0 84.1816C1.27894 82.021 2.6378 80.0204 3.99667 78.0998C5.43547 76.1793 7.03414 74.4188 8.55288 72.7383L9.91175 73.9386V74.6588V75.219L8.31308 76.9795L6.87428 78.8201C7.19401 80.7406 7.35388 82.6612 7.83348 84.5017C8.31308 86.3422 8.71275 88.2628 9.35221 90.1033C8.39301 92.1039 7.43381 94.2645 6.63448 96.5052C7.11408 96.7453 7.59368 96.9853 8.15321 97.2254C12.07 106.188 17.9051 114.19 25.179 120.672C30.6944 125.554 37.0092 129.555 43.8035 132.436C50.5979 135.316 57.9518 136.917 65.3056 137.397C66.6645 136.277 68.0234 135.076 69.2224 133.956C71.1408 133.956 72.9792 133.796 74.8976 133.716C76.816 133.716 78.6545 133.236 80.493 132.996C82.1716 134.196 83.8502 135.236 85.6887 136.197C83.1308 136.917 80.493 137.237 77.8552 137.637L77.9351 137.557Z" fill="#00CAF9"/>
<path d="M77.0547 135.798L77.4544 139.399L81.451 138.839L80.8116 135.238L77.0547 135.798Z" fill="#00CAF9"/>
<path d="M74.8203 136.037L75.0601 139.638L76.0992 139.558L75.7795 135.957L74.8203 136.037Z" fill="#00CAF9"/>
<path d="M73.4712 136.132L72.9922 136.156L73.1789 139.833L73.6578 139.808L73.4712 136.132Z" fill="#00CAF9"/>
<path d="M71.4609 136.195L71.5409 139.796H71.8606L71.7007 136.195H71.4609Z" fill="#00CAF9"/>
<path d="M85.7707 136.04L83.9322 135.56C83.2927 135.4 82.7332 135.24 82.0938 135L82.4135 136.761L82.7332 138.521C83.2928 138.121 83.7723 137.721 84.2519 137.241L85.6908 135.96L85.7707 136.04Z" fill="#00CAF9"/>
<path d="M9.5136 101.626L8.87413 100.266H8.71427L9.35373 101.706C8.95407 103.066 8.63433 104.347 8.39453 105.707L8.7942 106.427L9.5136 106.027L9.35373 105.787L8.87413 106.107L8.63433 105.707C8.87413 104.347 9.19387 103.066 9.59353 101.706L9.5136 101.626Z" fill="#00CAF9"/>
<path d="M10.793 103.95C10.5532 103.47 10.2335 103.07 9.99371 102.59H9.83384C9.99371 103.15 10.3134 103.55 10.5532 103.95C10.2335 105.231 9.99371 106.591 9.75391 107.951L10.1536 108.672L10.873 108.191L10.7131 107.951L10.2335 108.271L9.99371 107.871C10.2335 106.511 10.4733 105.151 10.793 103.87V103.95Z" fill="#00CAF9"/>
<path d="M12.1506 106.189L11.3513 104.828H11.1914L11.9108 106.189C11.671 107.549 11.4312 108.909 11.1914 110.27L11.671 110.91L12.3105 110.43L12.1506 110.27L11.671 110.59L11.3513 110.19C11.5111 108.829 11.7509 107.389 12.0707 106.108L12.1506 106.189Z" fill="#00CAF9"/>
<path d="M13.51 108.427L12.7106 107.066H12.5508L13.3501 108.427C13.1902 109.787 13.0304 111.068 12.9504 112.508L13.43 113.148L14.0695 112.668L13.9097 112.508L13.43 112.908L13.1103 112.508C13.1902 111.148 13.3501 109.787 13.51 108.427Z" fill="#00CAF9"/>
<path d="M15.1073 110.593L14.1481 109.312L13.9883 109.473L14.8675 110.673C14.7077 112.033 14.6277 113.394 14.5478 114.834L15.0274 115.474L15.6669 114.914L15.507 114.754L15.0274 115.154L14.7077 114.754C14.7876 113.314 14.9475 111.953 15.0274 110.593H15.1073Z" fill="#00CAF9"/>
<path d="M65.306 137.16C55.7939 136.6 46.3618 133.88 37.9688 129.398L39.5674 129.078C47.8805 133.399 57.1528 135.8 66.4251 136.28L65.306 137.241V137.16Z" fill="#00CAF9"/>
<path opacity="0.7" d="M39.0865 128.839C38.6069 128.919 38.0474 129.079 37.5678 129.159L35.0898 127.639L36.6086 127.398C37.4079 127.879 38.2072 128.439 39.0865 128.839Z" fill="#00CAF9"/>
<path opacity="0.4" d="M36.1304 127.157L34.6116 127.397L32.6133 126.117L34.2119 125.957L36.1304 127.157Z" fill="#00CAF9"/>
<path opacity="0.2" d="M33.7328 125.716C33.1733 125.716 32.6937 125.876 32.1341 125.876L30.6953 124.836H32.214C32.6936 125.076 33.1732 125.396 33.6528 125.716H33.7328Z" fill="#00CAF9"/>
<path opacity="0.15" d="M31.892 124.435L30.3733 124.515L29.4141 123.795L31.0127 123.715L31.892 124.435Z" fill="#00CAF9"/>
<path opacity="0.1" d="M30.6134 123.474H29.0148L28.5352 123.154L30.1338 123.074L30.6134 123.474Z" fill="#00CAF9"/>
<path d="M52.5145 117.794L51.875 116.033L52.0349 115.953L52.5944 117.794H52.5145Z" fill="#00CAF9"/>
<path d="M52.9129 117.958L52.2734 116.117H52.4333L52.9928 117.958H52.9129Z" fill="#00CAF9"/>
<path d="M53.3152 118.11L52.6758 116.27H52.8356L53.3952 118.03L53.3152 118.11Z" fill="#00CAF9"/>
<path d="M53.7137 118.276L53.0742 116.435L53.2341 116.355L53.7936 118.196L53.7137 118.276Z" fill="#00CAF9"/>
<path d="M54.1121 118.428L53.4727 116.588L53.6325 116.508L54.272 118.348L54.1121 118.428Z" fill="#00CAF9"/>
<path d="M54.5944 118.596L53.875 116.756L54.0349 116.676L54.6743 118.516L54.5944 118.596Z" fill="#00CAF9"/>
<path d="M55.071 118.671H54.991C54.7512 118.191 54.5114 117.55 54.3516 116.91H54.4315C54.6713 117.55 54.8312 118.191 55.071 118.751V118.671Z" fill="#00CAF9"/>
<path d="M55.3913 118.831C55.1515 118.271 54.9117 117.71 54.6719 117.07H54.7518C54.9916 117.63 55.2314 118.191 55.4712 118.751H55.3913V118.831Z" fill="#00CAF9"/>
<path d="M55.7897 118.913C55.5499 118.353 55.3101 117.793 55.0703 117.152H55.1502L55.8696 118.833H55.7897V118.913Z" fill="#00CAF9"/>
<path d="M56.2702 119.071L55.5508 117.31L55.6307 117.23L56.3501 118.991L56.2702 119.071Z" fill="#00CAF9"/>
<path d="M56.6725 119.153L55.9531 117.393L56.0331 117.312L56.7525 119.073L56.6725 119.153Z" fill="#00CAF9"/>
<path d="M57.071 119.233L56.3516 117.473H56.4315L57.2308 119.153L57.071 119.233Z" fill="#00CAF9"/>
<path d="M57.6293 119.311L57.5493 119.391L56.75 117.631L56.8299 117.551L57.6293 119.311Z" fill="#00CAF9"/>
<path d="M57.9478 119.469L57.1484 117.709L57.2284 117.629L58.0277 119.389L57.9478 119.469Z" fill="#00CAF9"/>
<path d="M58.3501 119.555L57.5508 117.795L57.6307 117.715L58.4301 119.555H58.3501Z" fill="#00CAF9"/>
<path d="M58.8306 119.712L58.0312 117.951L58.1112 117.871L58.9105 119.632L58.8306 119.712Z" fill="#00CAF9"/>
<path d="M59.229 119.794L58.4297 118.033L58.5096 117.953L59.309 119.714L59.229 119.794Z" fill="#00CAF9"/>
<path d="M59.6293 119.874C59.3095 119.314 59.0697 118.673 58.75 118.113H58.8299C59.0697 118.593 59.3895 119.234 59.7092 119.794H59.6293V119.874Z" fill="#00CAF9"/>
<path d="M60.1058 119.954C59.7861 119.394 59.5463 118.834 59.2266 118.273H59.3065C59.5463 118.834 59.866 119.394 60.1858 119.954H60.1058Z" fill="#00CAF9"/>
<path d="M20.3828 71.9411L20.5427 75.142C20.5427 76.1823 20.8624 77.3026 20.9423 78.3429C21.1821 80.5036 21.8216 82.5842 22.3012 84.6648L22.7808 83.9446L21.9815 80.9037C21.7417 79.8634 21.6617 78.8231 21.5019 77.7828C21.1022 75.7022 21.1022 73.5415 20.9423 71.4609L20.3828 71.9411Z" fill="#00CAF9"/>
<path opacity="0.7" d="M22.8624 84.1836L22.3828 84.9038C22.4627 85.3039 22.6226 85.704 22.7825 86.1842L23.1821 85.464C23.0223 85.0638 22.9423 84.6637 22.8624 84.1836Z" fill="#00CAF9"/>
<path opacity="0.4" d="M23.3411 85.6211L22.9414 86.3413L23.2611 87.3816L23.6608 86.6614L23.3411 85.6211Z" fill="#00CAF9"/>
<path opacity="0.2" d="M23.7395 86.8203L23.3398 87.5405L23.6596 88.3408L23.9793 87.5405L23.7395 86.8203Z" fill="#00CAF9"/>
<path opacity="0.15" d="M24.0619 87.7852L23.7422 88.5054L23.9021 88.9855L24.3017 88.2653L24.0619 87.7852Z" fill="#00CAF9"/>
<path opacity="0.1" d="M24.3801 88.5L23.9805 89.2202L24.0604 89.4603L24.4601 88.7401L24.3801 88.5Z" fill="#00CAF9"/>
<g opacity="0.35">
<path d="M27.2597 97.7111C27.2597 97.7111 27.2597 98.3513 27.0199 98.5113C26.7002 98.6714 26.3805 98.6714 26.2206 98.4313C26.0607 98.1912 26.2206 97.7911 26.4604 97.6311C26.7801 97.471 27.0999 97.471 27.2597 97.7111Z" fill="#00CAF9"/>
</g>
<path d="M26.8585 97.7109L27.0184 98.031L26.6187 98.3511L26.3789 97.951L26.8585 97.7109Z" fill="#00CAF9"/>
<path d="M26.3807 98.9102L26.4606 99.0702H26.3807L26.3008 98.9902L26.3807 98.9102Z" fill="#00CAF9"/>
<path d="M25.7153 97.7421L25.5781 97.8242L25.6192 97.8929L25.7563 97.8107L25.7153 97.7421Z" fill="#00CAF9"/>
<path d="M27.7401 98.0352L27.82 98.1952L27.6602 98.2752V98.1152L27.7401 98.0352Z" fill="#00CAF9"/>
<path d="M27.1766 96.9418L27.0391 97.0234L27.0798 97.0923L27.2173 97.0106L27.1766 96.9418Z" fill="#00CAF9"/>
<path d="M25.6602 97.8724L26.3796 98.9928L27.7384 98.1125L27.099 96.9922L25.7401 97.8724H25.6602ZM26.3796 98.9928L25.7401 97.8724L27.099 97.0722L27.7384 98.1925L26.4595 99.0728L26.3796 98.9928Z" fill="#00CAF9"/>
<g opacity="0.35">
<path d="M27.2579 97.7849C27.2579 97.7849 27.2579 97.945 27.2579 98.025C27.2579 98.105 27.178 98.185 27.098 98.2651C27.098 98.2651 26.9382 98.4251 26.8582 98.4251C26.8582 98.4251 26.6984 98.4251 26.6184 98.4251V98.2651H26.7783C26.9382 98.2651 27.0181 98.105 27.098 97.945C27.098 97.945 27.098 97.7849 27.098 97.7049C27.098 97.5449 26.8582 97.3848 26.6184 97.5449C26.5385 97.5449 26.4586 97.6249 26.3786 97.7849H26.2188C26.2188 97.7849 26.4586 97.5449 26.5385 97.4648C26.6984 97.4648 26.8582 97.4648 26.9382 97.4648C27.098 97.4648 27.178 97.6249 27.178 97.7049L27.2579 97.7849Z" fill="#00CAF9"/>
<path d="M26.5385 98.4238V98.5838C26.5385 98.5838 26.2987 98.5838 26.2987 98.5038C26.2987 98.5038 26.2188 98.4238 26.2188 98.3438H26.3786C26.3786 98.3438 26.4585 98.5038 26.6184 98.5038L26.5385 98.4238Z" fill="#00CAF9"/>
</g>
<g opacity="0.35">
<path d="M25.9766 95.466C25.9766 95.466 25.9766 96.0261 25.6568 96.2662C25.3371 96.5063 24.9374 96.4262 24.7776 96.1062C24.6177 95.8661 24.7776 95.466 25.0973 95.3059C25.417 95.1459 25.8167 95.2259 25.9766 95.466Z" fill="#00CAF9"/>
</g>
<path d="M25.4991 95.5469L25.659 95.867L25.2593 96.107L25.0195 95.787L25.4991 95.5469Z" fill="#00CAF9"/>
<path d="M25.0174 96.668L25.0974 96.748L25.0174 96.828L24.9375 96.748L25.0174 96.668Z" fill="#00CAF9"/>
<path d="M24.3786 95.5469V95.6269L24.2987 95.7069L24.2188 95.6269L24.3786 95.5469Z" fill="#00CAF9"/>
<path d="M26.4567 95.8672V95.9472L26.3768 96.0272L26.2969 95.9472L26.4567 95.8672Z" fill="#00CAF9"/>
<path d="M25.7362 94.75L25.8161 94.91H25.7362L25.6562 94.83L25.7362 94.75Z" fill="#00CAF9"/>
<path d="M24.2987 95.6284L25.0181 96.7487L26.377 95.9484L25.6576 94.8281L24.2188 95.6284H24.2987ZM25.0181 96.7487L24.2987 95.6284L25.6576 94.8281L26.297 95.9484L24.9382 96.7487H25.0181Z" fill="#00CAF9"/>
<g opacity="0.35">
<path d="M25.8967 95.6247C25.8967 95.6247 25.8967 95.7847 25.8967 95.8647C25.8967 95.9448 25.8168 96.0248 25.7368 96.1048C25.7368 96.1048 25.577 96.2649 25.497 96.2649C25.497 96.2649 25.3372 96.2649 25.2572 96.2649V96.1048C25.2572 96.1048 25.4171 96.1048 25.497 96.1048C25.6569 96.1048 25.7368 95.9448 25.8168 95.7847C25.8168 95.7847 25.8168 95.6247 25.8168 95.5446C25.8168 95.3846 25.577 95.2246 25.3372 95.3046C25.2572 95.3046 25.0974 95.3846 25.0974 95.4646H24.9375C24.9375 95.4646 25.1773 95.2246 25.2572 95.1445C25.4171 95.1445 25.577 95.1445 25.6569 95.1445C25.8168 95.1445 25.8967 95.3046 25.8967 95.3846V95.6247Z" fill="#00CAF9"/>
<path d="M25.1791 96.1855V96.3455C25.1791 96.3455 24.9393 96.3455 24.9393 96.2655C24.9393 96.2655 24.8594 96.1855 24.8594 96.1055H25.0192C25.0192 96.1055 25.0992 96.2655 25.259 96.2655L25.1791 96.1855Z" fill="#00CAF9"/>
</g>
<g opacity="0.35">
<path d="M24.7794 93.2263C24.7794 93.2263 24.7794 93.8665 24.4597 94.0266C24.14 94.1866 23.7403 94.1066 23.6604 93.8665C23.5005 93.6265 23.6604 93.2263 23.9801 93.0663C24.2998 92.9062 24.6995 93.0663 24.7794 93.2263Z" fill="#00CAF9"/>
</g>
<path d="M24.2999 93.2266L24.4598 93.6267L24.0601 93.7867L23.8203 93.4666L24.2999 93.2266Z" fill="#00CAF9"/>
<path d="M23.7401 94.4258L23.82 94.5058L23.7401 94.5858L23.6602 94.4258H23.7401Z" fill="#00CAF9"/>
<path d="M23.1815 93.2266L23.2614 93.3066L23.1016 93.3866V93.2266H23.1815Z" fill="#00CAF9"/>
<path d="M25.1815 93.625L25.2614 93.7851H25.1016V93.705L25.1815 93.625Z" fill="#00CAF9"/>
<path d="M24.619 92.5039L24.6989 92.5839L24.5391 92.6639V92.5839L24.619 92.5039Z" fill="#00CAF9"/>
<path d="M23.1797 93.3041L23.7392 94.5045L25.178 93.7843L24.6185 92.5839L23.1797 93.3041ZM23.7392 94.4245L23.1797 93.2241L24.6185 92.5039L25.178 93.6242L23.7392 94.3444V94.4245Z" fill="#00CAF9"/>
<g opacity="0.35">
<path d="M24.6996 93.3845C24.6996 93.3845 24.6996 93.5445 24.6996 93.6246C24.6996 93.7046 24.6196 93.7846 24.5397 93.8646C24.5397 93.8646 24.3798 93.9447 24.2999 94.0247C24.2999 94.0247 24.14 94.0247 24.0601 94.0247V93.8646C24.0601 93.8646 24.22 93.8646 24.2999 93.8646C24.4598 93.8646 24.5397 93.7046 24.6196 93.6246C24.6196 93.6246 24.6196 93.4645 24.6196 93.3845C24.6196 93.2244 24.3798 93.0644 24.14 93.1444C24.0601 93.1444 23.9002 93.2244 23.9002 93.3045H23.8203C23.8203 93.3045 24.0601 93.0644 24.22 92.9844C24.3798 92.9844 24.5397 92.9844 24.6196 92.9844C24.7795 92.9844 24.7795 93.1444 24.8594 93.3045L24.6996 93.3845Z" fill="#00CAF9"/>
<path d="M23.9799 93.8651V94.0251C23.9799 94.0251 23.7401 94.0251 23.7401 93.8651C23.7401 93.8651 23.6602 93.705 23.6602 93.625H23.82C23.82 93.625 23.9 93.785 24.0598 93.8651H23.9799Z" fill="#00CAF9"/>
</g>
<path d="M34.0523 103.473C37.5694 107.154 41.4861 110.515 45.9624 112.915C50.4387 115.396 55.2347 117.157 60.1905 118.197C61.7892 121.238 63.7875 124.599 66.2655 127.4C77.2164 128.12 88.2472 125.479 97.7593 120.117L97.9191 120.358C88.3271 125.799 77.2164 128.44 66.1856 127.72C63.7076 124.919 61.7892 121.478 60.1106 118.517C55.1547 117.477 50.2788 115.636 45.8025 113.235C41.3262 110.755 37.3296 107.474 33.8125 103.713L33.9724 103.553L34.0523 103.473Z" fill="#00CAF9"/>
<path d="M30.9334 95.9484C34.6903 101.87 39.9659 106.752 45.9609 110.353C46.0409 111.393 46.2007 112.353 46.3606 113.393C46.5205 114.434 46.7603 115.394 47.0001 116.354C54.0342 119.875 61.8677 121.716 69.7012 121.716V121.956C61.7078 121.956 53.8743 120.035 46.7603 116.514C46.5205 115.474 46.2807 114.514 46.1208 113.473C45.9609 112.433 45.881 111.393 45.7211 110.433C39.8061 106.832 34.6104 102.03 30.8535 96.1885L28.1358 97.949C25.5779 94.1078 23.6595 89.8666 22.2207 85.5454C21.901 84.425 21.6612 83.3047 21.3414 82.1844L20.9418 80.5039L20.702 78.8234C20.5421 77.7031 20.3023 76.5828 20.2224 75.3824L20.0625 71.9414H20.3023L20.4622 75.3024C20.622 76.4227 20.7819 77.543 20.9418 78.6634L21.1816 80.3439C21.3414 80.904 21.5013 81.4642 21.5812 82.0243L22.4605 85.3053C23.8993 89.5465 25.7378 93.7878 28.2956 97.5488L31.0134 95.7883L30.9334 95.9484Z" fill="#00CAF9"/>
<path d="M35.7307 105.552L34.8514 105.712L32.6133 103.231L32.933 101.551L35.2511 104.032L35.0912 104.912C35.0912 104.912 35.5708 105.312 35.7307 105.552Z" fill="#00CAF9"/>
<path d="M82.0911 126.354C76.8955 127.314 71.5399 127.954 66.2643 127.474C65.3051 126.274 64.4259 125.233 63.6265 123.953L63.3867 125.874C64.1861 127.154 65.1453 128.194 66.1045 129.315L69.4617 129.475C69.4617 129.475 69.9413 128.995 70.1811 128.674C72.0995 128.594 73.9379 128.514 75.8563 128.354L81.4517 127.474L82.0911 126.354Z" fill="#00CAF9"/>
<path d="M69.6219 122.111L69.1423 122.591L64.5861 122.351C64.5861 122.351 64.2664 121.95 64.1864 121.71L62.5078 121.47L63.0673 120.91C64.1065 121.15 65.1456 121.15 66.2647 121.23L66.6644 121.79L69.6219 121.95V122.111Z" fill="#00CAF9"/>
<path d="M50.1165 118.033C48.9975 117.633 47.9583 116.993 46.8393 116.513L46.5195 115.152L47.2389 115.472L47.4787 116.513C48.358 116.913 49.1573 117.313 50.0366 117.713V118.033H50.1165Z" fill="#00CAF9"/>
<path d="M60.7477 119.554H60.1082C59.8684 119.074 59.7086 118.674 59.4688 118.273C59.7086 118.273 59.8684 118.353 60.1082 118.433L60.6678 119.554H60.7477Z" fill="#00CAF9"/>
<path d="M19.9829 75.2997H19.6632V74.3394L19.2635 74.0193L19.1836 72.0188L20.4625 70.8984L21.9813 72.0188H19.8231L19.9829 75.2997Z" fill="#00CAF9"/>
<path d="M33.7319 100.349H33.0125C32.1332 99.0683 31.0941 97.868 30.2148 96.5876L30.8543 96.1875C31.7336 97.6279 32.7727 98.9883 33.7319 100.429V100.349Z" fill="#00CAF9"/>
<path d="M97.1172 120.275L97.357 119.395L97.4369 119.635L97.357 120.115L97.1172 120.275Z" fill="#00CAF9"/>
<path d="M96.3984 120.672C96.5583 119.952 96.7182 119.232 96.878 118.512L97.0379 118.752C96.878 119.392 96.7981 120.032 96.6382 120.592H96.3984V120.672Z" fill="#00CAF9"/>
<path d="M95.5195 121.073C95.7593 120.272 95.9991 119.472 96.159 118.672H96.3189C96.159 119.392 95.9192 120.192 95.7593 120.993H95.5195V121.073Z" fill="#00CAF9"/>
<path d="M94.7188 121.477L95.3582 119.076L95.598 118.996L94.9585 121.397L94.7188 121.477Z" fill="#00CAF9"/>
<path d="M93.9219 121.875L94.5613 119.475L94.8011 119.395L94.0817 121.795L93.9219 121.875Z" fill="#00CAF9"/>
<path d="M93.0391 122.274L93.7585 119.873L93.9983 119.793L93.2789 122.194L93.0391 122.274Z" fill="#00CAF9"/>
<path d="M92.2422 122.674L92.9616 120.273L93.2014 120.113L92.482 122.594L92.2422 122.674Z" fill="#00CAF9"/>
<path d="M91.4414 123.076C91.7611 122.276 92.0009 121.476 92.2407 120.676H92.4805C92.2407 121.396 92.0009 122.196 91.6812 122.996H91.4414V123.076Z" fill="#00CAF9"/>
<path d="M90.5625 123.395C90.8822 122.595 91.202 121.874 91.4418 121.074H91.6816C91.4418 121.794 91.122 122.595 90.8822 123.315H90.6424L90.5625 123.395Z" fill="#00CAF9"/>
<path d="M89.6836 123.717L90.5629 121.396L90.8027 121.316L89.9234 123.637L89.6836 123.717Z" fill="#00CAF9"/>
<path d="M89.1229 123.795L89.043 123.555L89.7624 121.635L89.9222 121.555L89.1229 123.795Z" fill="#00CAF9"/>
<path d="M89.1241 121.875L88.8044 122.835L88.6445 122.595L88.8843 121.955L89.1241 121.875Z" fill="#00CAF9"/>
<path d="M89.9271 115.952C84.012 118.593 77.6973 120.114 71.2227 120.274L72.022 119.313C78.3367 118.993 84.5715 117.473 90.2468 114.832L90.007 115.952H89.9271Z" fill="#00CAF9"/>
<path opacity="0.7" d="M71.7039 119.312L70.9046 120.273C70.2651 120.273 69.5457 120.353 68.9062 120.273C69.226 119.953 69.4658 119.713 69.7056 119.393H71.624L71.7039 119.312Z" fill="#00CAF9"/>
<path opacity="0.4" d="M69.3824 119.393L68.583 120.273L66.9844 120.193L67.8636 119.312L69.3824 119.393Z" fill="#00CAF9"/>
<path opacity="0.2" d="M67.4671 119.31L66.6677 120.111H65.4688L66.348 119.23L67.4671 119.31Z" fill="#00CAF9"/>
<path opacity="0.15" d="M66.0263 119.23L65.147 120.111C65.147 120.111 64.5875 120.111 64.3477 120.111C64.6674 119.871 64.9871 119.551 65.2269 119.31H66.0263V119.23Z" fill="#00CAF9"/>
<path opacity="0.1" d="M64.9078 119.152C64.9078 119.152 64.2684 119.713 64.0286 119.953H63.6289L64.5082 119.152C64.668 119.152 64.748 119.152 64.9078 119.152Z" fill="#00CAF9"/>
<g opacity="0.35">
<path d="M15.107 92.0227L15.6665 90.9023L14.8672 91.2224L15.107 92.0227Z" fill="#00CAF9"/>
<path d="M15.7473 93.6266C16.2269 92.5063 16.8664 91.386 17.4259 90.2656L16.147 90.7458L15.3477 92.4263C15.3477 92.4263 15.5875 93.2265 15.7473 93.6266Z" fill="#00CAF9"/>
<path d="M16.4679 95.147L17.1873 93.3865C17.587 92.5063 18.0666 91.546 18.5462 90.5857L17.7468 90.2656C17.2672 91.1459 16.7876 92.1062 16.3879 93.0664C16.2281 93.3865 16.1481 93.7066 15.9883 93.9467L16.5478 95.067L16.4679 95.147Z" fill="#00CAF9"/>
<path d="M17.1845 96.6678C17.5842 95.7075 17.9839 94.6672 18.3036 93.787C18.7033 92.9067 19.023 92.1065 19.5026 91.2262V90.9862L18.7832 90.7461C18.3036 91.6263 17.824 92.5866 17.4243 93.5469L16.625 95.6275L17.1845 96.7478V96.6678Z" fill="#00CAF9"/>
<path d="M17.9835 98.265C18.7029 96.3445 19.4223 94.5039 20.2216 92.7434C20.0618 92.4233 19.9019 92.0232 19.742 91.7031C18.9427 93.4636 18.2233 95.2242 17.5039 97.1447L18.0634 98.265H17.9835Z" fill="#00CAF9"/>
<path d="M18.784 99.7083C19.2636 97.7878 20.0629 95.8672 20.8623 94.1067L20.3827 93.0664C19.5833 94.8269 18.8639 96.6675 18.1445 98.668L18.784 99.7083Z" fill="#00CAF9"/>
<path d="M19.6629 101.228C20.2224 99.2273 20.702 97.4668 21.5014 95.6262L21.0218 94.5859C20.2224 96.4265 19.503 98.267 19.0234 100.188L19.6629 101.228Z" fill="#00CAF9"/>
<path d="M20.6238 102.667C21.1034 100.667 21.663 98.7461 22.3024 96.9856C22.0626 96.6655 21.9028 96.3454 21.7429 95.9453C21.0235 97.7858 20.464 99.6264 19.9844 101.627L20.6238 102.667Z" fill="#00CAF9"/>
<path d="M21.5007 104.109C21.9003 102.188 22.4599 100.188 23.0993 98.347L22.4599 97.3867C21.8204 99.2273 21.2609 101.148 20.7812 103.148C21.0211 103.549 21.2609 103.869 21.5007 104.189V104.109Z" fill="#00CAF9"/>
<path d="M22.5397 105.468C22.8594 103.467 23.2591 101.627 23.8986 99.7064L23.339 98.7461C22.7795 100.587 22.14 102.587 21.8203 104.508L22.5397 105.548V105.468Z" fill="#00CAF9"/>
<path d="M23.5788 106.825C23.8985 104.825 24.2982 102.904 24.7778 100.984L24.1383 100.023C23.4988 101.944 23.1791 103.785 22.8594 105.785L23.5788 106.825Z" fill="#00CAF9"/>
<path d="M24.6196 108.191C24.8594 106.19 25.2591 104.189 25.6588 102.269L24.9394 101.309C24.5397 103.149 24.14 105.15 23.8203 107.15C24.0601 107.47 24.2999 107.871 24.6196 108.111V108.191Z" fill="#00CAF9"/>
<path d="M25.8168 109.472C25.8967 108.432 25.9766 107.471 26.1365 106.511C26.2964 105.471 26.4562 104.51 26.696 103.55L25.9766 102.59C25.577 104.43 25.1773 106.511 24.9375 108.512L25.8168 109.472Z" fill="#00CAF9"/>
<path d="M26.9379 110.745C27.0977 108.665 27.2576 106.744 27.5773 104.824L26.8579 103.863C26.4583 105.864 26.2185 107.784 26.0586 109.785L26.9379 110.745Z" fill="#00CAF9"/>
<path d="M28.1371 112.03C28.217 109.95 28.4568 107.949 28.6966 106.029L27.8973 105.148C27.6575 107.069 27.4177 108.99 27.2578 111.07L28.1371 112.03Z" fill="#00CAF9"/>
<path d="M29.3342 113.15C29.3342 111.149 29.4941 109.148 29.6539 107.228L28.8546 106.348C28.6148 108.268 28.4549 110.269 28.375 112.349L29.3342 113.23V113.15Z" fill="#00CAF9"/>
<path d="M29.7344 113.31L30.6136 112.35C30.6136 110.99 30.6136 109.709 30.7735 108.349L29.9742 107.469C29.8942 108.429 29.8143 109.389 29.7344 110.35C29.7344 111.31 29.7344 112.27 29.7344 113.23V113.31Z" fill="#00CAF9"/>
<path d="M30.9336 112.027L31.8129 111.067V109.546C31.8129 109.546 31.2533 109.066 31.0135 108.746C30.9336 109.866 30.9336 110.907 30.9336 112.027Z" fill="#00CAF9"/>
<path d="M32.2109 110.673L32.6106 110.193L32.2109 109.793V110.673Z" fill="#00CAF9"/>
</g>
<path d="M67.3854 122.674L66.2663 121.234C65.5469 121.234 64.7476 121.234 64.0282 121.074L63.7884 123.394C55.3954 122.434 47.3221 119.473 40.288 114.832C40.1281 113.951 40.1281 112.911 40.0482 111.951C35.412 108.67 31.3354 104.589 28.0582 99.8674C27.099 99.8674 26.1398 99.7073 25.1806 99.5473C23.1822 96.3463 21.3437 92.9854 20.0648 89.3843L18.626 88.8242L17.5069 88.344L16.9474 88.104L15.5086 87.4638C13.9099 86.6635 12.3113 85.7833 10.6327 84.823C11.5119 83.3826 12.3912 82.0222 13.4303 80.7418C13.9899 81.1419 14.5494 81.462 15.1889 81.8621L17.1073 81.462H17.427C18.4661 80.1016 19.5053 78.9013 20.6243 77.7009C20.5444 76.9007 20.3046 76.1005 20.3046 75.3002L19.1855 74.5L15.029 74.8201L14.3096 75.5403H13.1106L12.3113 75.0602H11.5919L11.2721 75.4603C10.1531 76.5806 9.2738 77.7809 8.39453 78.9813C8.71427 81.1419 8.95407 83.2225 9.59353 85.3031L10.3929 88.424C10.6327 89.4643 11.1123 90.4246 11.432 91.4649H11.5119L12.631 92.0251L13.1905 92.2652L14.6293 92.9053L15.1889 93.1454C15.6685 93.3855 16.228 93.5455 16.7076 93.7056C17.5869 94.0257 18.4661 94.2657 19.3454 94.5058L20.8641 94.9059L21.4237 95.066H21.5036L21.9832 95.226C28.3779 107.63 39.7284 117.312 52.9175 121.554C53.1573 122.274 53.477 122.914 53.7967 123.554C55.5553 123.954 57.2339 124.515 58.9924 124.835C60.7509 125.075 62.5095 125.395 64.268 125.635C65.3871 124.595 66.4262 123.474 67.3854 122.434V122.674Z" fill="#00CAF9"/>
<path d="M14.389 70.6562C13.6696 70.6562 12.9502 70.6562 12.6305 70.6562C12.4706 70.8163 12.1509 71.1364 11.3516 71.8566L11.5114 74.9775H12.3907L13.19 75.5377H14.0693L14.7887 74.7374L19.185 74.4173C17.5864 73.297 15.9877 72.0166 14.389 70.6562Z" fill="#00CAF9"/>
<path d="M53.9568 120.991L58.6729 122.191C60.2716 122.511 61.8702 122.671 63.5488 122.992L63.7886 120.591C69.1442 121.151 74.4997 120.911 79.7753 119.951C84.971 118.83 90.0068 116.83 94.6429 114.189L92.8045 113.469L90.0068 114.829L88.568 115.549L87.1292 116.11L84.1717 117.23L81.1342 118.03L82.3332 118.99C76.2582 120.591 69.8636 121.071 63.5488 120.351L63.2291 122.751L59.1525 122.111C57.7936 121.791 56.5147 121.391 55.1558 121.071L54.5963 119.791C53.3173 119.39 52.0384 118.83 50.7595 118.43C50.0401 118.83 49.2407 119.31 48.4414 119.631C50.1999 120.351 52.0384 120.991 53.7969 121.631V121.151L53.9568 120.991Z" fill="#00CAF9"/>
<path d="M123.258 30.0093C130.692 39.6121 135.168 51.3755 136.527 63.379C137.006 69.3808 137.086 75.5426 135.967 81.4643C135.647 84.5052 134.688 87.386 133.969 90.3469C133.489 91.7873 132.93 93.2277 132.45 94.6681L131.651 96.8288L130.692 98.9094C129.812 100.59 129.173 102.35 128.134 103.871C127.175 105.471 126.215 107.072 125.176 108.592C125.416 110.273 125.576 112.033 125.656 113.794C122.778 117.635 119.421 121.076 115.824 124.197C113.426 124.197 110.948 123.957 108.55 123.717C107.351 123.557 106.232 123.396 105.113 123.236C103.994 122.996 102.795 122.756 101.676 122.436L102.075 120.676L102.715 120.276C102.715 120.276 103.035 120.116 103.195 119.955C104.713 120.196 106.232 120.516 107.751 120.676C109.349 119.555 110.788 118.275 112.147 116.995C112.866 116.354 113.586 115.714 114.225 114.994L116.144 112.833C118.462 112.673 120.78 112.513 123.018 112.033L122.858 110.353C128.693 102.59 132.77 93.4678 134.768 83.865C137.566 69.3808 135.887 53.9363 129.093 40.7325C127.414 40.0923 125.816 39.5321 124.137 39.052C123.098 37.4515 122.219 35.771 121.1 34.2506C119.981 32.7301 118.861 31.2097 117.662 29.7693C117.742 27.8487 117.822 25.7681 117.822 23.6875C119.581 25.6881 121.419 27.5286 122.938 29.7693L123.258 30.0093Z" fill="#00CAF9"/>
<path d="M122.217 31.6897L125.174 29.5291C124.375 28.4888 123.575 27.3684 122.696 26.3281L119.898 28.6488C120.698 29.6091 121.417 30.6494 122.217 31.6897Z" fill="#00CAF9"/>
<path d="M123.575 33.5293L126.613 31.4487L125.973 30.6484L123.016 32.729L123.575 33.5293Z" fill="#00CAF9"/>
<path d="M124.617 35.051L127.654 33.0505L127.334 32.5703L124.297 34.5709L124.617 35.051Z" fill="#00CAF9"/>
<path d="M125.414 36.3286L128.451 34.408L128.371 34.168L125.254 36.0885L125.414 36.3286Z" fill="#00CAF9"/>
<path d="M118.141 24.0078L118.62 25.8483L119.02 27.6889L120.459 26.4885L121.818 25.2882L119.979 24.648L118.141 24.0078Z" fill="#00CAF9"/>
<path d="M126.456 107.307L125.656 108.588L125.816 108.748L126.615 107.547C127.894 107.227 129.253 106.827 130.532 106.347L130.932 105.627L130.212 105.227L130.053 105.467L130.612 105.787L130.372 106.187C129.013 106.587 127.735 106.987 126.456 107.387V107.307Z" fill="#00CAF9"/>
<path d="M127.815 105.071L127.016 106.431H127.175L127.895 105.311C129.174 104.911 130.533 104.511 131.812 104.03L132.211 103.31L131.492 102.91V103.15L131.892 103.39L131.652 103.79C130.373 104.271 129.014 104.671 127.735 105.071H127.815Z" fill="#00CAF9"/>
<path d="M129.174 102.832C128.935 103.313 128.615 103.713 128.375 104.193H128.535L129.254 103.072C130.533 102.592 131.732 102.112 133.011 101.552L133.411 100.832L132.691 100.512V100.752L133.091 100.992L132.851 101.392C131.572 101.952 130.293 102.432 129.094 102.912L129.174 102.832Z" fill="#00CAF9"/>
<path d="M130.292 100.43L129.652 101.79H129.812L130.452 100.59C131.731 100.11 133.01 99.5497 134.288 98.9895L134.608 98.2693L133.889 97.9492V98.1893L134.368 98.4294L134.129 98.8295C132.85 99.3896 131.571 99.9498 130.292 100.43Z" fill="#00CAF9"/>
<path d="M131.491 98.0294L130.852 99.3898H131.011L131.651 98.1894C132.93 97.7093 134.129 97.0691 135.328 96.4289L135.648 95.6287L134.848 95.3086V95.5487L135.328 95.7887L135.168 96.2689C133.969 96.9091 132.77 97.5492 131.491 98.0294Z" fill="#00CAF9"/>
<path d="M129.334 41.1325C133.57 49.695 135.888 59.2177 136.208 68.7405L135.169 67.5402C134.769 58.1774 132.291 48.9748 128.055 40.6523L129.414 41.1325H129.334Z" fill="#00CAF9"/>
<path opacity="0.7" d="M135.168 68.1016L136.207 69.3019C136.207 70.2622 136.207 71.2225 136.207 72.1828L135.248 70.9824C135.248 70.0221 135.248 69.0618 135.168 68.1016Z" fill="#00CAF9"/>
<path opacity="0.4" d="M135.248 71.4609L136.207 72.7413L136.047 75.062L135.168 73.7816L135.248 71.4609Z" fill="#00CAF9"/>
<path opacity="0.2" d="M135.088 74.2617L136.047 75.5421L135.967 77.3026L135.008 76.0222L135.088 74.2617Z" fill="#00CAF9"/>
<path opacity="0.15" d="M135.01 76.5019C135.329 76.902 135.649 77.3822 135.889 77.7823L135.729 78.9026L134.93 77.5422C134.93 77.5422 134.93 76.742 135.01 76.4219V76.5019Z" fill="#00CAF9"/>
<path opacity="0.1" d="M134.849 78.1016L135.649 79.462L135.569 80.0221L134.77 78.7417L134.849 78.1016Z" fill="#00CAF9"/>
<path d="M119.021 61.9394L117.662 63.3798L117.582 63.2998L118.941 61.8594L119.021 61.9394Z" fill="#00CAF9"/>
<path d="M118.939 61.5332L117.66 62.9736L117.5 62.8935L118.859 61.4531L118.939 61.5332Z" fill="#00CAF9"/>
<path d="M118.859 61.0547L117.58 62.4951H117.5L118.779 61.0547H118.859Z" fill="#00CAF9"/>
<path d="M118.781 60.6581L117.502 62.0986H117.422L118.701 60.5781L118.781 60.6581Z" fill="#00CAF9"/>
<path d="M118.699 60.1738C118.299 60.6539 117.819 61.134 117.42 61.6142H117.34C117.74 61.054 118.219 60.5739 118.619 60.0938H118.699V60.1738Z" fill="#00CAF9"/>
<path d="M118.619 59.7753C118.219 60.2555 117.899 60.7356 117.42 61.2158H117.34C117.819 60.6556 118.139 60.1755 118.539 59.6953H118.619V59.7753Z" fill="#00CAF9"/>
<path d="M118.379 59.3008L118.459 59.3808L117.34 60.8212H117.18L118.379 59.3008Z" fill="#00CAF9"/>
<path d="M118.38 58.9746L117.181 60.415H117.102L118.301 58.8945L118.38 58.9746Z" fill="#00CAF9"/>
<path d="M118.302 58.4961L117.103 60.0165L117.023 59.9365L118.143 58.4961H118.302Z" fill="#00CAF9"/>
<path d="M118.142 58.0957L117.023 59.6161L116.863 59.5361L118.062 58.0156L118.142 58.0957Z" fill="#00CAF9"/>
<path d="M118.06 57.6972L116.861 59.2177L116.781 59.1376L117.98 57.6172L118.06 57.6972Z" fill="#00CAF9"/>
<path d="M117.902 57.2148L116.783 58.8153L116.703 58.7353L117.822 57.2148H117.902Z" fill="#00CAF9"/>
<path d="M117.742 56.7344L117.822 56.8144L116.703 58.3348H116.543L117.742 56.7344Z" fill="#00CAF9"/>
<path d="M117.74 56.416L116.541 57.9364H116.461L117.58 56.3359L117.74 56.416Z" fill="#00CAF9"/>
<path d="M117.582 55.9375L116.463 57.538H116.383L117.502 55.9375H117.582Z" fill="#00CAF9"/>
<path d="M117.5 55.5352C117.18 56.0953 116.78 56.5755 116.381 57.1356H116.301C116.7 56.5755 117.1 56.0153 117.42 55.5352H117.5Z" fill="#00CAF9"/>
<path d="M117.342 55.1367C117.022 55.6969 116.702 56.177 116.303 56.7372H116.223C116.622 56.177 116.942 55.6169 117.262 55.1367H117.342Z" fill="#00CAF9"/>
<path d="M117.182 54.7344C116.862 55.2945 116.542 55.7747 116.142 56.3348H116.062L117.102 54.7344H117.182Z" fill="#00CAF9"/>
<path d="M117.021 54.3339L115.982 55.9344L115.902 55.8544L116.941 54.2539L117.021 54.3339Z" fill="#00CAF9"/>
<path d="M95.36 112.754C97.2784 111.714 98.8771 110.354 100.636 109.073C101.515 108.433 102.234 107.633 103.034 106.913C103.833 106.192 104.632 105.472 105.352 104.672H104.552C101.515 107.633 98.3176 110.434 94.6406 112.514L95.36 112.754Z" fill="#00CAF9"/>
<path opacity="0.7" d="M104.711 104.433H105.51L106.39 103.473H105.59L104.711 104.433Z" fill="#00CAF9"/>
<path opacity="0.4" d="M105.75 103.312H106.549L107.269 102.512L106.469 102.592L105.75 103.312Z" fill="#00CAF9"/>
<path opacity="0.2" d="M106.549 102.347H107.348C107.348 102.347 107.668 101.947 107.828 101.707C107.588 101.707 107.268 101.707 107.028 101.707L106.469 102.267L106.549 102.347Z" fill="#00CAF9"/>
<path opacity="0.15" d="M107.27 101.632L108.069 101.552L108.389 101.152L107.589 101.232L107.27 101.632Z" fill="#00CAF9"/>
<path opacity="0.1" d="M107.668 101.074L108.547 100.994L108.707 100.754L107.828 100.834L107.668 101.074Z" fill="#00CAF9"/>
<g opacity="0.35">
<path d="M114.223 93.947C114.223 93.947 114.702 93.627 115.022 93.787C115.342 93.947 115.502 94.2671 115.342 94.5872C115.182 94.8273 114.862 94.9073 114.543 94.7473C114.223 94.5872 114.063 94.1871 114.223 93.947Z" fill="#00CAF9"/>
</g>
<path d="M114.461 94.2654L114.621 93.9453L115.1 94.1054L114.941 94.5055L114.461 94.2654Z" fill="#00CAF9"/>
<path d="M115.66 94.0311L115.74 93.8711L115.82 93.9511V94.0311H115.66Z" fill="#00CAF9"/>
<path d="M115.102 95.2304L115.181 95.0703L115.261 95.1503V95.3104L115.102 95.2304Z" fill="#00CAF9"/>
<path d="M114.301 93.3046V93.1445L114.461 93.2245L114.381 93.3046H114.301Z" fill="#00CAF9"/>
<path d="M113.742 94.4277V94.3477L113.902 94.4277L113.822 94.5077L113.742 94.4277Z" fill="#00CAF9"/>
<path d="M115.181 95.2252L115.741 94.0249L114.302 93.3047L113.742 94.505L115.181 95.3053V95.2252ZM115.741 94.0249L115.181 95.2252L113.822 94.505L114.382 93.3847L115.82 94.1049L115.741 94.0249Z" fill="#00CAF9"/>
<g opacity="0.35">
<path d="M114.3 93.8632C114.3 93.8632 114.46 93.7831 114.54 93.7031C114.62 93.7031 114.7 93.7031 114.78 93.7031C114.86 93.7031 114.94 93.7031 115.02 93.8632C115.02 93.8632 115.1 93.9432 115.18 94.0232H115.02C115.02 94.0232 115.02 94.0232 114.94 93.9432C114.86 93.8632 114.7 93.7831 114.54 93.8632C114.54 93.8632 114.38 93.8632 114.38 93.9432C114.221 94.1032 114.3 94.3433 114.46 94.5034C114.54 94.5034 114.7 94.5834 114.78 94.5834V94.7434C114.78 94.7434 114.54 94.7434 114.38 94.5834C114.221 94.5034 114.141 94.3433 114.141 94.1833C114.141 94.0232 114.141 93.9432 114.221 93.8632H114.3Z" fill="#00CAF9"/>
<path d="M115.18 94.1914H115.34C115.34 94.1914 115.34 94.3515 115.34 94.4315C115.34 94.4315 115.34 94.5915 115.26 94.6715H115.18C115.18 94.6715 115.26 94.3514 115.18 94.2714V94.1914Z" fill="#00CAF9"/>
</g>
<g opacity="0.35">
<path d="M112.943 96.1072C112.943 96.1072 113.502 95.7871 113.822 95.9472C114.142 96.1072 114.302 96.5073 114.142 96.7474C113.982 96.9875 113.582 97.0675 113.263 96.9074C112.943 96.7474 112.863 96.3473 112.943 96.1072Z" fill="#00CAF9"/>
</g>
<path d="M113.184 96.5076L113.423 96.1875L113.823 96.4276L113.583 96.7477L113.184 96.5076Z" fill="#00CAF9"/>
<path d="M114.461 96.3475L114.541 96.1875L114.621 96.2675L114.541 96.3475H114.461Z" fill="#00CAF9"/>
<path d="M113.742 97.4667L113.822 97.3867L113.902 97.4667V97.5468L113.742 97.4667Z" fill="#00CAF9"/>
<path d="M113.023 95.5488L113.103 95.4688H113.263L113.183 95.6288L113.023 95.5488Z" fill="#00CAF9"/>
<path d="M112.416 96.5605L112.375 96.6289L112.512 96.7119L112.553 96.6435L112.416 96.5605Z" fill="#00CAF9"/>
<path d="M113.822 97.4693L114.541 96.349L113.102 95.5488L112.383 96.6691L113.742 97.5493L113.822 97.4693ZM114.541 96.269L113.822 97.3893L112.463 96.5891L113.102 95.4688L114.461 96.269H114.541Z" fill="#00CAF9"/>
<g opacity="0.35">
<path d="M113.101 96.1074C113.101 96.1074 113.261 96.0273 113.341 96.0273C113.421 96.0273 113.501 96.0273 113.661 96.0273C113.741 96.0273 113.821 96.0273 113.901 96.1874C113.901 96.1874 113.981 96.2674 114.06 96.3474H113.901C113.901 96.3474 113.901 96.3474 113.821 96.2674C113.741 96.1874 113.581 96.1074 113.421 96.1074C113.421 96.1074 113.261 96.1074 113.261 96.1874C113.101 96.3474 113.101 96.5875 113.261 96.7476C113.341 96.7476 113.421 96.9076 113.581 96.9076V97.0676C113.581 97.0676 113.261 97.0676 113.181 96.9076C113.101 96.8276 113.021 96.6675 112.941 96.5075C112.941 96.3474 112.941 96.2674 113.101 96.1874V96.1074Z" fill="#00CAF9"/>
<path d="M113.902 96.4258H114.062C114.062 96.4258 114.062 96.5858 114.062 96.6658C114.062 96.6658 114.062 96.8259 113.982 96.8259H113.902C113.902 96.8259 113.982 96.5058 113.982 96.4258H113.902Z" fill="#00CAF9"/>
</g>
<g opacity="0.35">
<path d="M111.584 98.349C111.584 98.349 112.063 98.0289 112.383 98.269C112.703 98.429 112.783 98.8291 112.623 99.0692C112.463 99.3093 112.063 99.3893 111.824 99.1492C111.584 98.9092 111.424 98.5891 111.584 98.349Z" fill="#00CAF9"/>
</g>
<path d="M111.824 98.7517L112.064 98.3516L112.464 98.6717L112.224 98.9917L111.824 98.7517Z" fill="#00CAF9"/>
<path d="M113.102 98.5878L113.181 98.5078H113.261L113.181 98.6679L113.102 98.5878Z" fill="#00CAF9"/>
<path d="M112.383 99.7089L112.463 99.6289L112.543 99.7089L112.463 99.789L112.383 99.7089Z" fill="#00CAF9"/>
<path d="M111.746 97.7089L111.826 97.6289L111.906 97.7089L111.826 97.789L111.746 97.7089Z" fill="#00CAF9"/>
<path d="M111.105 98.83V98.75L111.265 98.83L111.185 98.91L111.105 98.83Z" fill="#00CAF9"/>
<path d="M112.464 99.7115C112.464 99.7115 112.944 98.9113 113.184 98.5912L111.825 97.7109C111.825 97.7109 111.425 98.4311 111.105 98.8313L112.464 99.7115ZM113.184 98.5912L112.464 99.7115L111.185 98.8313L111.825 97.7109L113.184 98.5912Z" fill="#00CAF9"/>
<g opacity="0.35">
<path d="M111.746 98.2675C111.746 98.2675 111.906 98.1875 111.986 98.1875C112.066 98.1875 112.145 98.1875 112.225 98.1875C112.305 98.1875 112.385 98.2675 112.465 98.3475C112.465 98.3475 112.545 98.5076 112.625 98.5076H112.465C112.465 98.5076 112.465 98.5076 112.385 98.4276C112.305 98.3475 112.145 98.2675 111.986 98.2675C111.986 98.2675 111.826 98.2675 111.826 98.3475C111.666 98.5076 111.666 98.7477 111.826 98.9077C111.906 98.9877 111.986 99.0678 112.145 99.0678V99.2278C112.145 99.2278 111.906 99.1478 111.746 99.0678C111.666 98.9877 111.586 98.8277 111.586 98.6676C111.586 98.5076 111.586 98.4276 111.746 98.3475V98.2675Z" fill="#00CAF9"/>
<path d="M112.547 98.6719H112.707C112.707 98.6719 112.707 98.8319 112.707 98.9119C112.707 98.9119 112.707 99.072 112.627 99.072H112.547C112.547 99.072 112.627 98.7519 112.627 98.6719H112.547Z" fill="#00CAF9"/>
</g>
<path d="M115.904 85.1496C117.343 80.2682 118.062 75.1467 118.062 70.0252C118.062 64.9037 117.023 59.8623 115.504 54.9809C116.463 53.4604 117.423 51.94 118.302 50.2595C119.101 48.659 119.821 46.8985 120.54 45.138C118.062 40.2566 115.025 35.6953 111.188 31.7741C107.431 27.853 103.194 24.2519 98.3984 21.6112L98.5583 21.3711C103.354 24.0919 107.591 27.6929 111.428 31.6941C115.264 35.6152 118.302 40.3366 120.86 45.218C120.14 47.0586 119.421 48.739 118.622 50.3395C117.742 52.02 116.783 53.6205 115.824 55.0609C117.423 59.9423 118.382 64.9838 118.382 70.1053C118.382 75.2267 117.662 80.3482 116.224 85.2297H115.984L115.904 85.1496Z" fill="#00CAF9"/>
<path d="M110.867 91.5442C113.984 85.3024 115.743 78.4204 115.823 71.3783C117.502 70.178 118.94 68.8976 120.539 67.4572C120.059 59.6149 117.821 51.8526 113.825 45.0507L114.064 44.8906C118.141 51.6926 120.379 59.5349 120.859 67.4572C119.26 68.8976 117.901 70.178 116.143 71.3783C115.983 78.3404 114.304 85.2224 111.267 91.3841L114.144 92.8246L113.425 94.345L112.546 95.7854C111.906 96.7457 111.427 97.786 110.707 98.7463C109.348 100.587 107.989 102.507 106.391 104.108C104.952 105.868 103.113 107.309 101.435 108.909C99.5964 110.27 97.8379 111.79 95.8396 112.91L95.6797 112.67C97.678 111.63 99.3566 110.03 101.275 108.749C102.874 107.149 104.712 105.788 106.151 104.028C109.268 100.747 111.826 96.9057 113.905 92.9046L111.027 91.4642L110.867 91.5442Z" fill="#00CAF9"/>
<path d="M116.701 82.6602L117.181 83.3003C116.941 84.4207 116.701 85.461 116.222 86.5013L114.543 87.0614C114.943 86.0211 115.422 84.9808 115.582 83.8605L116.381 83.5404L116.621 82.6602H116.701Z" fill="#00CAF9"/>
<path d="M111.586 32.0898C113.424 34.0104 114.943 36.171 116.542 38.3317C117.341 39.372 117.901 40.5723 118.62 41.6926L119.659 43.3731C119.979 43.9333 120.219 44.5735 120.538 45.1336C119.979 46.5741 119.419 47.9344 118.78 49.2148L120.538 48.4946C121.098 47.2142 121.658 45.8538 122.217 44.4134C121.737 43.3731 121.258 42.4128 120.618 41.4526L119.579 41.2125C118.62 39.612 117.661 37.9315 116.462 36.4911C115.343 34.9707 114.224 33.4502 112.865 32.0898H111.586Z" fill="#00CAF9"/>
<path d="M114.066 44.9725H114.786C115.585 46.3329 116.144 47.8534 116.864 49.1338L116.544 49.7739C116.784 50.2541 117.024 50.8142 117.184 51.2944L116.384 51.0543C115.985 50.094 115.505 49.1338 115.025 48.1735L115.345 47.5333L114.706 46.1729L113.906 44.8925V44.8125L114.066 44.9725Z" fill="#00CAF9"/>
<path d="M120.298 63.8594C120.298 64.4195 120.537 65.0597 120.537 65.6199V67.4604L119.578 68.4207V67.6205L120.298 66.9003V65.4598L120.058 64.0994L120.298 63.8594Z" fill="#00CAF9"/>
<path d="M116.301 53.9375L116.541 54.4977L115.822 55.618L115.582 55.0578L116.301 53.9375Z" fill="#00CAF9"/>
<path d="M98.3969 111.393L98.5568 111.633L97.7575 112.193C97.7575 112.193 97.7575 112.513 97.7575 112.673L95.9989 113.713L94.3203 113.073L94.5601 111.312L95.6792 113.153C96.6384 112.593 97.5976 112.113 98.3969 111.393Z" fill="#00CAF9"/>
<path d="M113.186 86.9023L113.585 87.5425C113.106 89.063 112.306 90.4234 111.667 91.8638L111.027 91.5437C111.827 90.0233 112.626 88.5828 113.186 86.9824V86.9023Z" fill="#00CAF9"/>
<path d="M98.7173 22.0858L97.918 22.3259L98.0778 22.0858L98.5574 21.9258L98.7173 22.0858Z" fill="#00CAF9"/>
<path d="M99.5158 22.5663L97.4375 23.2065L97.5174 22.9664L99.3559 22.4062L99.5158 22.5663Z" fill="#00CAF9"/>
<path d="M100.314 23.0429L97.8356 23.7631L97.6758 23.603L100.074 22.8828L100.314 23.0429Z" fill="#00CAF9"/>
<path d="M101.114 23.4472L98.6364 24.1674L98.4766 24.0874L100.875 23.3672L101.114 23.4472Z" fill="#00CAF9"/>
<path d="M101.833 24.0077C101.034 24.1677 100.234 24.4078 99.3552 24.6479H99.1953C99.9946 24.3278 100.874 24.0077 101.673 23.8477L101.833 24.0077Z" fill="#00CAF9"/>
<path d="M102.554 24.5663C101.755 24.7263 100.955 24.8864 100.156 25.1265H99.9961C100.795 24.7263 101.595 24.6463 102.394 24.4062L102.554 24.5663Z" fill="#00CAF9"/>
<path d="M103.273 25.1249L100.875 25.605L100.715 25.525L103.113 24.9648L103.273 25.1249Z" fill="#00CAF9"/>
<path d="M104.073 25.6874L101.595 26.1675L101.355 26.0075L103.833 25.5273L104.073 25.6874Z" fill="#00CAF9"/>
<path d="M104.792 26.166L102.314 26.6461L102.074 26.5661L104.552 26.0859L104.792 26.166Z" fill="#00CAF9"/>
<path d="M105.511 26.7246L102.953 27.2047L102.793 27.0446L105.351 26.6445L105.511 26.7246Z" fill="#00CAF9"/>
<path d="M105.83 27.2089L105.67 27.369C105.03 27.369 104.311 27.609 103.672 27.6891L103.512 27.529C104.311 27.369 105.11 27.2089 105.83 27.1289V27.2089Z" fill="#00CAF9"/>
<path d="M104.23 28.1679C104.23 28.1679 104.87 28.0878 105.19 28.0078L105.03 28.1679C105.03 28.1679 104.63 28.1679 104.39 28.2479L104.23 28.0878V28.1679Z" fill="#00CAF9"/>
<path d="M98.5566 30.4102C103.752 34.1712 108.308 38.9726 111.666 44.4943L110.467 44.2542C107.03 38.9726 102.633 34.3313 97.4375 30.7302L98.5566 30.4102Z" fill="#00CAF9"/>
<path opacity="0.7" d="M110.707 44.5703L111.906 44.8104L112.945 46.4909L111.746 46.2508L110.707 44.5703Z" fill="#00CAF9"/>
<path opacity="0.4" d="M111.906 46.5742L113.105 46.8143C113.345 47.2944 113.585 47.7746 113.825 48.2547L112.706 47.9346C112.546 47.4545 112.226 47.0544 111.906 46.5742Z" fill="#00CAF9"/>
<path opacity="0.2" d="M112.785 48.1719L113.984 48.572L114.464 49.6123L113.265 49.2922L112.785 48.1719Z" fill="#00CAF9"/>
<path opacity="0.15" d="M113.422 49.5312L114.621 49.9314L114.941 50.6516L113.822 50.2515L113.422 49.5312Z" fill="#00CAF9"/>
<path opacity="0.1" d="M113.902 50.5742L115.101 50.9743L115.261 51.2944L114.142 50.8943L113.902 50.5742Z" fill="#00CAF9"/>
<g opacity="0.35">
<path d="M115.344 107.312L114.145 107.393L114.864 107.953L115.344 107.312Z" fill="#00CAF9"/>
<path d="M116.382 105.953C115.183 106.113 113.984 106.193 112.785 106.273L113.824 107.153L115.663 106.993L116.382 105.953Z" fill="#00CAF9"/>
<path d="M117.421 104.512L115.502 104.752C114.463 104.832 113.504 104.912 112.465 104.992L112.625 105.872C113.584 105.872 114.623 105.712 115.662 105.632H116.621L117.341 104.512H117.421Z" fill="#00CAF9"/>
<path d="M118.38 103.148C117.34 103.308 116.301 103.469 115.262 103.549C114.303 103.629 113.344 103.709 112.465 103.789L112.305 104.029L112.465 104.669C113.424 104.669 114.463 104.509 115.502 104.429L117.74 104.189C117.74 104.189 118.22 103.549 118.46 103.148H118.38Z" fill="#00CAF9"/>
<path d="M119.258 101.707C118.298 101.947 117.339 102.107 116.38 102.267C115.341 102.427 114.382 102.507 113.423 102.587L112.703 103.548C114.622 103.388 116.7 103.227 118.618 102.827L119.258 101.787V101.707Z" fill="#00CAF9"/>
<path d="M120.14 100.191C118.142 100.592 116.224 100.992 114.305 101.232L113.586 102.192C115.584 102.032 117.503 101.712 119.421 101.312L120.061 100.271L120.14 100.191Z" fill="#00CAF9"/>
<path d="M121.098 98.75C119.099 99.2301 117.101 99.6303 115.263 99.9503L114.703 100.911C116.622 100.671 118.54 100.27 120.538 99.7903L121.178 98.75H121.098Z" fill="#00CAF9"/>
<path d="M121.817 97.2305C119.978 97.8707 117.98 98.2708 115.981 98.5909L115.422 99.5511C117.34 99.2311 119.339 98.8309 121.257 98.3508L121.817 97.2305Z" fill="#00CAF9"/>
<path d="M122.535 95.625C120.537 96.2652 118.778 96.8254 116.78 97.1454L116.141 98.1057C117.1 97.9457 118.059 97.7056 119.098 97.5456C120.057 97.3055 121.017 96.9854 121.976 96.7453L122.535 95.625Z" fill="#00CAF9"/>
<path d="M123.336 94.1094C121.418 94.7496 119.5 95.3097 117.661 95.7899C117.501 96.11 117.341 96.5101 117.102 96.8302C119.02 96.4301 120.858 95.8699 122.777 95.2297L123.336 94.1094Z" fill="#00CAF9"/>
<path d="M123.975 92.5058C122.217 93.306 120.138 93.8662 118.3 94.3463L117.82 95.3866C119.659 94.9065 121.577 94.3463 123.576 93.6261C123.735 93.226 123.895 92.8259 124.055 92.4258L123.975 92.5058Z" fill="#00CAF9"/>
<path d="M124.536 90.9081C122.697 91.7084 120.939 92.4286 118.941 92.9087L118.461 93.949C120.299 93.3889 122.298 92.8287 124.136 92.0285L124.536 90.8281V90.9081Z" fill="#00CAF9"/>
<path d="M125.175 89.3047C123.336 90.1049 121.498 90.9052 119.659 91.5453C119.579 91.9455 119.34 92.2655 119.18 92.5856C121.098 92.0255 122.857 91.3053 124.695 90.505L125.095 89.3047H125.175Z" fill="#00CAF9"/>
<path d="M125.653 87.707C123.895 88.5873 121.976 89.3875 120.138 90.0277L119.738 91.148C121.497 90.5078 123.415 89.7876 125.254 88.9074C125.414 88.5073 125.573 88.1071 125.653 87.707Z" fill="#00CAF9"/>
<path d="M126.132 86.0234C125.253 86.5036 124.373 86.9837 123.494 87.3838C122.615 87.784 121.656 88.1841 120.697 88.5042L120.297 89.6245C122.055 88.9043 124.054 88.1841 125.732 87.2238L126.052 86.0234H126.132Z" fill="#00CAF9"/>
<path d="M126.531 84.3438C124.772 85.304 123.014 86.2643 121.255 87.0645L120.855 88.1849C122.774 87.4647 124.452 86.5844 126.211 85.6241L126.531 84.4238V84.3438Z" fill="#00CAF9"/>
<path d="M126.534 83.9412L125.255 83.6211C124.056 84.2613 122.857 84.9015 121.738 85.4616L121.418 86.582C123.097 85.7817 124.775 84.9015 126.534 83.9412Z" fill="#00CAF9"/>
<path d="M124.774 83.5427L123.495 83.2227L122.136 83.9429L121.816 85.0632C122.776 84.5831 123.815 84.1029 124.774 83.5427Z" fill="#00CAF9"/>
<path d="M123.018 83.1405L122.379 82.9805L122.219 83.5406L123.018 83.1405Z" fill="#00CAF9"/>
</g>
<path d="M115.742 46.5742L115.023 48.2547L115.982 50.2553L118.14 49.295C121.577 56.9772 122.936 65.5397 122.457 73.9422C121.737 74.5023 120.938 75.0625 120.218 75.6227C119.579 81.3043 118.06 86.8259 115.742 92.0274C116.142 92.9077 116.542 93.7879 116.941 94.6682L116.302 95.9486L115.582 97.1489L114.144 99.5496C113.104 101.15 111.905 102.591 110.786 104.191C110.866 104.751 110.946 105.231 111.026 105.711L111.186 106.832V107.392L111.426 108.992C111.586 110.833 111.746 112.753 111.666 114.594C109.987 114.594 108.308 114.354 106.71 114.194V112.113L105.431 110.673L105.191 110.433C103.592 110.193 102.074 110.033 100.475 109.553L98.4766 110.993V112.433L100.715 115.874L101.674 116.114L102.393 117.075L102.233 118.115L102.633 118.755H103.113C104.552 119.155 106.07 119.395 107.669 119.555C111.106 116.915 114.144 113.874 116.941 110.673C116.941 110.193 116.941 109.793 116.861 109.392V108.752L116.542 107.152V106.592L116.142 104.991C115.982 104.111 115.822 103.151 115.582 102.35C115.502 101.87 115.343 101.31 115.183 100.83L115.023 100.27L114.863 99.6296C122.377 87.9462 125.094 73.302 122.217 59.618L123.496 57.8575C122.696 54.3365 121.497 50.9755 120.059 47.6945C118.62 47.2944 117.181 46.8943 115.742 46.5742Z" fill="#00CAF9"/>
<path d="M97.1953 118.511C97.515 119.152 97.9147 119.792 98.0746 120.032C98.2345 120.032 98.7141 120.192 99.7532 120.512C100.632 119.952 101.592 119.472 102.391 118.832L101.911 118.111L102.071 117.071L101.592 116.351L100.632 116.111L98.1545 112.43C97.9947 114.35 97.6749 116.351 97.2752 118.351L97.1953 118.511Z" fill="#00CAF9"/>
<path d="M121.017 59.0563C120.537 57.4558 120.297 55.8554 119.738 54.3349C119.178 52.8145 118.619 51.214 117.979 49.7736L115.741 50.7339C113.663 45.7724 110.626 41.2911 107.108 37.29C103.591 33.2888 99.4348 29.7678 94.7188 27.207L94.9585 29.2076C96.797 30.1679 98.3957 31.6083 100.074 32.8087C100.954 33.4488 101.673 34.1691 102.392 34.8893C103.192 35.6095 103.991 36.2497 104.63 37.0499L104.87 35.4494C109.347 39.9307 112.944 45.2923 115.422 51.054L117.58 50.0937C118.539 52.6544 119.578 55.2152 120.138 57.936L119.258 59.1363C119.658 60.4167 119.738 61.8571 119.978 63.2175C120.697 63.6976 121.496 64.0978 122.216 64.6579C121.896 62.7374 121.736 60.8168 121.257 58.9763L120.777 59.1363L121.017 59.0563Z" fill="#00CAF9"/>
<path d="M7.59693 44.4131C12.4729 33.2899 20.0666 23.367 29.8984 16.2449C32.2964 14.3244 34.9342 12.964 37.572 11.3635C40.2897 10.0832 42.9275 8.56271 45.8851 7.60243C51.4804 5.36178 57.5553 4.16143 63.5503 3.52124L69.1457 3.20115C70.9842 3.20115 72.8226 3.3612 74.741 3.44122L76.8193 1.76073L78.9775 0.320312C81.3755 0.720429 83.7735 0.960499 86.0116 1.60068C88.3297 2.24087 90.6478 2.72101 92.8859 3.60127C94.0849 5.84192 95.204 7.8425 96.0833 10.0832C96.9625 12.3238 97.7619 14.4844 98.4813 16.6451L96.7227 17.2052L96.0033 16.8851L95.5237 16.6451C95.0441 15.2046 94.4846 13.6842 93.9251 12.1638L88.4896 10.1632L82.8942 8.72276C81.6153 6.8022 80.2564 5.04169 78.7377 3.20115L77.3788 4.16143C67.7069 3.0411 57.7951 4.00138 48.6028 7.12229C34.5345 11.6836 22.3047 21.2864 14.0715 33.53C14.3913 35.2905 14.7909 37.051 15.1906 38.7315C14.1515 40.3319 13.4321 42.0124 12.5528 43.7729C12.1531 44.6532 11.6735 45.4534 11.3538 46.3337L10.3946 48.9745C8.63607 49.8547 6.71766 50.735 5.03906 51.8553C5.67853 49.2946 6.7976 46.8138 7.67687 44.3331L7.59693 44.4131Z" fill="#00CAF9"/>
<path d="M9.59288 44.5693L6.23568 43.1289C5.67614 44.3293 5.27648 45.6897 4.79688 46.89L8.23401 48.1704C8.71361 46.97 9.03335 45.7697 9.59288 44.5693Z" fill="#00CAF9"/>
<path d="M7.27191 40.9128L6.82422 41.8516L10.1424 43.4375L10.5901 42.4987L7.27191 40.9128Z" fill="#00CAF9"/>
<path d="M11.353 40.8914L8.07574 39.2109L7.83594 39.6911L11.1132 41.2915L11.353 40.8914Z" fill="#00CAF9"/>
<path d="M11.9921 39.45L8.79478 37.7695L8.71484 37.9296L11.9122 39.6901L11.9921 39.45Z" fill="#00CAF9"/>
<path d="M4.95768 52.015C5.43728 51.5349 5.83695 51.0547 6.31655 50.6546L7.75535 49.3742L5.99682 48.8141L4.23828 48.2539L4.47808 50.1745C4.55802 50.8146 4.71788 51.4548 4.87775 52.095L4.95768 52.015Z" fill="#00CAF9"/>
<path d="M72.8996 3.12091H74.4183V2.96086H72.9795C72.0203 1.92056 71.0611 0.960279 70.022 0C69.7822 0 69.4625 0 69.2227 0V0.800233H69.4625V0.24007C69.4625 0.24007 69.7822 0.24007 69.9421 0.24007C70.9812 1.20035 71.9404 2.16063 72.8996 3.12091Z" fill="#00CAF9"/>
<path d="M70.2626 2.95896H71.7813V2.79892H70.3425C69.3833 1.75861 68.3442 0.958381 67.2251 0.078125H66.4258V0.958381H66.6656V0.318195H67.1452C68.1843 1.19845 69.2234 1.99868 70.2626 2.95896Z" fill="#00CAF9"/>
<path d="M67.6238 3.04099H69.1425V2.7209H67.7037C66.6646 1.92067 65.6254 1.04041 64.5064 0.160156H63.707V1.04041H63.9468V0.400226H64.4264C65.5455 1.20046 66.5846 2.08071 67.6238 2.96097V3.04099Z" fill="#00CAF9"/>
<path d="M65.067 3.19925H66.5857V2.87916H65.1469C64.1078 2.07893 62.9887 1.19867 61.8696 0.398438L61.0703 0.558484V1.35872H61.39V0.798554H61.7897C62.9088 1.51876 64.0278 2.47904 65.067 3.27928V3.19925Z" fill="#00CAF9"/>
<path d="M62.4282 3.35963C62.9078 3.2796 63.4673 3.35963 63.9469 3.2796V3.03953C63.4673 3.03953 62.9877 3.03953 62.5081 3.11956C61.389 2.31932 60.27 1.59912 59.1509 0.878906L58.3516 1.03895L58.5114 1.83919H58.7512L58.6713 1.199H59.1509C60.3499 1.83919 61.469 2.63942 62.5081 3.43965L62.4282 3.35963Z" fill="#00CAF9"/>
<path d="M14.2305 33.6076C19.5061 25.6853 26.6202 18.9633 34.6934 13.9219L34.2138 15.4423C26.3004 20.4838 19.586 27.2057 14.5502 35.128L14.2305 33.6876V33.6076Z" fill="#00CAF9"/>
<path opacity="0.7" d="M34.6133 15.1249L35.1728 13.6845L37.6507 12.1641L37.0912 13.6845L34.6133 15.1249Z" fill="#00CAF9"/>
<path opacity="0.4" d="M37.4922 13.3615C37.6521 12.8814 37.8919 12.3212 38.0517 11.8411L40.13 10.8008L39.4905 12.2412C38.7711 12.5613 38.1317 12.8814 37.4922 13.3615Z" fill="#00CAF9"/>
<path opacity="0.2" d="M39.9688 12.0825L40.6082 10.6421L42.2069 9.92188L41.5674 11.3623L39.9688 12.0825Z" fill="#00CAF9"/>
<path opacity="0.15" d="M41.9688 11.1237L42.6882 9.68327L43.7273 9.20312L43.0079 10.6435L41.9688 11.1237Z" fill="#00CAF9"/>
<path opacity="0.1" d="M43.4862 10.4012C43.726 9.92111 43.9658 9.44097 44.2056 9.04085L44.7651 8.80078L43.9658 10.1612L43.4062 10.4012H43.4862Z" fill="#00CAF9"/>
<path d="M37.4102 32.2461C38.0496 32.3261 38.6891 32.4862 39.3286 32.6462C38.6891 32.6462 38.0496 32.4061 37.4102 32.3261V32.2461Z" fill="#00CAF9"/>
<path d="M37.0938 32.4883C37.7332 32.5683 38.2928 32.6483 38.9322 32.8884C38.2928 32.8884 37.7332 32.7284 37.0938 32.6483V32.4883Z" fill="#00CAF9"/>
<path d="M36.7734 32.8086L38.6119 33.1287V33.2887L36.7734 32.8886V32.8086Z" fill="#00CAF9"/>
<path d="M36.4531 33.1289L38.2916 33.449V33.529L36.4531 33.2089V33.1289Z" fill="#00CAF9"/>
<path d="M36.1328 33.3672L37.9713 33.6873V33.8473L36.1328 33.5272V33.3672Z" fill="#00CAF9"/>
<path d="M35.8125 33.6914L37.651 34.0115V34.0915L35.8125 33.7714V33.6914Z" fill="#00CAF9"/>
<path d="M35.4922 34.0917V34.0117L37.3307 34.3318V34.4118L35.4922 34.0917Z" fill="#00CAF9"/>
<path d="M35.0938 34.2461L37.0122 34.5662V34.7262L35.1737 34.4061L35.0938 34.2461Z" fill="#00CAF9"/>
<path d="M34.7734 34.5742L36.6918 34.8943L36.7718 34.9743L34.7734 34.7343V34.5742Z" fill="#00CAF9"/>
<path d="M34.4531 34.8867L36.3715 35.1268L36.4515 35.2868L34.4531 34.9667V34.8867Z" fill="#00CAF9"/>
<path d="M34.1328 35.207L36.0512 35.4471C35.4117 35.4471 34.7723 35.3671 34.1328 35.2871V35.207Z" fill="#00CAF9"/>
<path d="M33.8945 35.5273C34.534 35.5273 35.1735 35.6874 35.8129 35.7674C35.1735 35.7674 34.534 35.6874 33.8945 35.6874V35.5273Z" fill="#00CAF9"/>
<path d="M33.2539 36.1719L35.1723 36.3319V36.4119L33.2539 36.2519V36.1719Z" fill="#00CAF9"/>
<path d="M32.9375 36.4922L34.8559 36.6522V36.7323L33.0174 36.5722L32.9375 36.4922Z" fill="#00CAF9"/>
<path d="M32.6953 36.8086L34.6137 36.9686V37.0487L32.6953 36.8886V36.8086Z" fill="#00CAF9"/>
<path d="M32.375 37.1289L34.2934 37.289V37.369L32.375 37.2089V37.1289Z" fill="#00CAF9"/>
<path d="M32.0547 37.4492L33.9731 37.6093L34.053 37.6893L32.1346 37.6093L32.0547 37.4492Z" fill="#00CAF9"/>
<path d="M31.8164 37.7695L33.7348 37.9296V38.0096L31.8164 37.9296V37.7695Z" fill="#00CAF9"/>
<path d="M93.2049 27.2879L90.3273 25.9275L88.8885 25.2073L87.3697 24.6471L84.3323 23.5268L81.2148 22.7266L81.6145 23.4468C85.7711 24.327 89.6079 26.0875 93.3647 28.0881V27.2879H93.2049Z" fill="#00CAF9"/>
<path opacity="0.7" d="M81.3739 23.3645L80.9742 22.6443L79.6953 22.3242L80.095 23.0444L81.3739 23.3645Z" fill="#00CAF9"/>
<path opacity="0.4" d="M79.8568 23.0443C79.8568 23.0443 79.617 22.5642 79.4571 22.3241L78.418 22.1641L78.8176 22.8042C78.8176 22.8042 79.537 22.8843 79.8568 22.9643V23.0443Z" fill="#00CAF9"/>
<path opacity="0.2" d="M78.6578 22.8041L78.1782 22.0839L77.3789 22.0039L77.8585 22.6441L78.6578 22.8041Z" fill="#00CAF9"/>
<path opacity="0.15" d="M77.6194 22.6479L77.1398 21.9277L76.6602 21.8477L77.1398 22.5679L77.6194 22.6479Z" fill="#00CAF9"/>
<path opacity="0.1" d="M76.8991 22.4858L76.4195 21.8456L76.1797 21.7656L76.6593 22.4858H76.8991Z" fill="#00CAF9"/>
<g opacity="0.35">
<path d="M67.4658 20.4854C67.4658 20.4854 66.9062 20.2453 66.9062 19.8452C66.9062 19.4451 67.1461 19.205 67.3859 19.125C67.7056 19.125 67.9454 19.3651 67.9454 19.7652C67.9454 20.1653 67.7056 20.4054 67.4658 20.4854Z" fill="#00CAF9"/>
</g>
<path d="M67.6262 20.0875H67.2266V19.6074L67.6262 19.5273V20.0875Z" fill="#00CAF9"/>
<path d="M66.8278 19.1249H66.668V18.9648H66.8278V19.1249Z" fill="#00CAF9"/>
<path d="M68.1073 19.0468H68.0273V18.8867H68.1073V19.0468Z" fill="#00CAF9"/>
<path d="M66.9099 20.7265H66.75V20.5664H66.9099V20.7265Z" fill="#00CAF9"/>
<path d="M68.1872 20.6483H68.1073L68.0273 20.4883H68.1872V20.6483Z" fill="#00CAF9"/>
<path d="M68.1068 18.9648H66.7479L66.8278 20.6453H68.1068V18.9648ZM66.7479 19.0449H68.0268V20.5653H66.7479L66.668 19.0449H66.7479Z" fill="#00CAF9"/>
<g opacity="0.35">
<path d="M67.388 20.4056C67.388 20.4056 67.2281 20.4056 67.1482 20.2455C67.1482 20.2455 67.0682 20.0855 66.9883 20.0055C66.9883 19.9255 66.9883 19.7654 66.9883 19.6854C66.9883 19.6054 66.9883 19.5253 66.9883 19.4453H67.0682C67.0682 19.4453 67.0682 19.6054 67.0682 19.6854C67.0682 19.8454 67.0682 20.0055 67.1482 20.0855C67.1482 20.0855 67.2281 20.1655 67.308 20.1655C67.4679 20.1655 67.7077 20.0855 67.7077 19.8454C67.7077 19.7654 67.7077 19.6054 67.7077 19.5253H67.7876C67.7876 19.5253 67.8676 19.7654 67.7876 19.8454C67.7876 20.0055 67.7077 20.1655 67.5478 20.2455C67.4679 20.3256 67.308 20.3256 67.2281 20.3256L67.388 20.4056Z" fill="#00CAF9"/>
<path d="M67.2284 19.5252H67.1484L67.3083 19.2852C67.3083 19.2852 67.4682 19.2852 67.5481 19.2852V19.4452C67.5481 19.4452 67.3083 19.4452 67.2284 19.5252Z" fill="#00CAF9"/>
</g>
<g opacity="0.35">
<path d="M70.0244 20.4054C70.0244 20.4054 69.4648 20.0853 69.4648 19.7652C69.4648 19.3651 69.7046 19.125 70.0244 19.125C70.3441 19.125 70.5839 19.4451 70.5839 19.8452C70.5839 20.2453 70.3441 20.4854 70.0244 20.4854V20.4054Z" fill="#00CAF9"/>
</g>
<path d="M70.263 20.0055L69.8633 19.9255V19.4453H70.263V20.0055Z" fill="#00CAF9"/>
<path d="M69.4646 18.9647H69.3047V18.8847L69.4646 18.8047V18.9647Z" fill="#00CAF9"/>
<path d="M70.744 19.0468H70.6641V18.8867H70.744V19.0468Z" fill="#00CAF9"/>
<path d="M69.4646 20.5663H69.3047V20.4863L69.4646 20.4062V20.5663Z" fill="#00CAF9"/>
<path d="M70.7419 20.6483H70.582V20.4883H70.7419V20.6483Z" fill="#00CAF9"/>
<path d="M70.7417 18.9667C70.2621 18.9667 69.8624 18.8867 69.3828 18.9667V20.5672C69.8624 20.5672 70.2621 20.5672 70.6617 20.5672V18.9667H70.7417ZM69.3828 18.8867C69.7825 18.8867 70.2621 18.8867 70.6617 18.8867V20.4872C70.1821 20.4872 69.7825 20.4872 69.3828 20.4872V18.8867Z" fill="#00CAF9"/>
<g opacity="0.35">
<path d="M69.543 20.3233C69.8627 19.8432 70.2624 19.4431 70.5821 19.043C70.1824 19.4431 69.8627 19.8432 69.543 20.3233Z" fill="#00CAF9"/>
</g>
<g opacity="0.35">
<path d="M70.5821 20.4034C70.2624 19.9232 69.8627 19.4431 69.543 19.043C69.9426 19.4431 70.2624 19.9232 70.5821 20.4034Z" fill="#00CAF9"/>
</g>
<g opacity="0.35">
<path d="M69.9426 20.3236C69.9426 20.3236 69.7828 20.2435 69.7028 20.1635C69.7028 20.1635 69.6229 20.0035 69.543 19.9234C69.543 19.8434 69.543 19.6834 69.543 19.6034C69.543 19.5233 69.543 19.4433 69.6229 19.3633H69.7028C69.7028 19.3633 69.7028 19.5233 69.7028 19.6034C69.7028 19.7634 69.7028 19.9234 69.7828 20.0035C69.7828 20.0035 69.8627 20.0835 69.9426 20.1635C70.1025 20.1635 70.3423 20.1635 70.3423 19.8434C70.3423 19.7634 70.3423 19.6034 70.3423 19.5233H70.4222C70.4222 19.5233 70.5022 19.7634 70.4222 19.9234C70.4222 20.0835 70.3423 20.1635 70.1824 20.2435C70.1025 20.2435 69.9426 20.3236 69.7828 20.2435L69.9426 20.3236Z" fill="#00CAF9"/>
<path d="M69.7813 19.3651V19.205C69.7813 19.205 69.7812 19.125 69.8612 19.125C69.8612 19.125 70.0211 19.125 70.101 19.125V19.285C70.101 19.285 69.8612 19.285 69.7813 19.285V19.3651Z" fill="#00CAF9"/>
</g>
<g opacity="0.35">
<path d="M72.5812 20.4854C72.5812 20.4854 72.1016 20.1653 72.1016 19.7652C72.1016 19.3651 72.3414 19.125 72.6611 19.125C72.9808 19.125 73.2206 19.4451 73.1407 19.8452C73.1407 20.2453 72.821 20.4854 72.5812 20.4854Z" fill="#00CAF9"/>
</g>
<path d="M72.8215 20.0856H72.4219V19.6055H72.8215V20.0856Z" fill="#00CAF9"/>
<path d="M72.0252 19.1249H71.9453V18.9648H72.0252V19.1249Z" fill="#00CAF9"/>
<path d="M73.3807 19.123H73.3008V19.043H73.3807V19.123Z" fill="#00CAF9"/>
<path d="M71.9432 20.7265H71.8633V20.5664H72.0232L71.9432 20.7265Z" fill="#00CAF9"/>
<path d="M73.3005 20.7246H73.1406V20.6445H73.3005V20.7246Z" fill="#00CAF9"/>
<path d="M73.3841 19.043H72.0252V20.5634H73.3042L73.3841 19.043ZM72.0252 19.043H73.3042L73.2242 20.6434H71.9453V19.043H72.0252Z" fill="#00CAF9"/>
<g opacity="0.35">
<path d="M72.5033 20.4056C72.5033 20.4056 72.3435 20.3256 72.2635 20.2455C72.2635 20.2455 72.1836 20.0855 72.1836 20.0055C72.1836 19.9255 72.1836 19.7654 72.1836 19.6854C72.1836 19.6854 72.1836 19.5253 72.2635 19.4453H72.3435C72.3435 19.4453 72.3435 19.6054 72.3435 19.6854C72.3435 19.8454 72.3435 20.0055 72.3435 20.0855C72.3435 20.0855 72.4234 20.1655 72.5033 20.2455C72.6632 20.2455 72.903 20.2455 72.9829 19.9255C72.9829 19.8454 72.9829 19.6854 72.9829 19.6054H73.0629C73.0629 19.6054 73.0629 19.8454 73.0629 20.0055C73.0629 20.1655 72.903 20.2455 72.8231 20.3256C72.7431 20.3256 72.5833 20.4056 72.4234 20.3256L72.5033 20.4056Z" fill="#00CAF9"/>
<path d="M72.4219 19.5213V19.3613C72.4219 19.3613 72.4219 19.2812 72.5817 19.2812C72.5817 19.2812 72.7416 19.2812 72.8215 19.2812V19.4413C72.8215 19.4413 72.5817 19.4413 72.5018 19.4413L72.4219 19.5213Z" fill="#00CAF9"/>
</g>
<path d="M58.9939 23.3651C53.9581 24.4054 49.242 26.486 44.8457 29.0467C40.4494 31.6075 36.4527 34.8884 33.1754 38.8096C31.337 38.6495 29.5784 38.7295 27.7399 38.8096C25.9015 38.9696 23.9831 39.0496 22.0647 39.3697C19.0272 43.931 16.7891 48.9725 15.1105 54.174C13.5917 59.4556 12.7924 64.8971 12.7125 70.3387H12.4727C12.5526 64.8171 13.3519 59.3755 14.9506 54.014C16.6292 48.8125 18.9473 43.691 21.9847 39.1297C23.8232 38.8096 25.8215 38.6495 27.66 38.5695C28.6192 38.5695 29.4985 38.4895 30.3778 38.4895C31.257 38.4895 32.2162 38.4895 33.0955 38.5695C33.9748 37.6092 34.7741 36.6489 35.7333 35.7687L38.531 33.2079C40.6092 31.6875 42.6076 30.087 44.8457 28.8067C49.242 26.2459 53.9581 24.1653 58.9939 23.125V23.3651Z" fill="#00CAF9"/>
<path d="M67.0687 24.4885C60.1145 24.8886 53.2402 26.7291 47.1653 30.1701C45.3268 29.3699 43.4084 28.6497 41.4101 28.0095C34.8555 32.3308 29.4201 38.3325 25.4234 45.0545L25.1836 44.8944C29.1803 38.0924 34.6957 32.0107 41.3301 27.6894C43.3285 28.3296 45.3268 29.0498 47.0854 29.85C53.1603 26.409 59.9546 24.5685 66.8289 24.1684L66.669 20.9675C71.3052 20.5673 75.8614 21.1275 80.3377 22.0078C84.8139 22.968 89.1303 24.7286 93.2069 26.8092L93.0471 27.0492C88.9705 24.9686 84.8139 23.2881 80.3377 22.3279C75.9413 21.4476 71.3851 20.8874 66.8289 21.2876L66.9888 24.4885H67.0687Z" fill="#00CAF9"/>
<path d="M56.4375 23.8466L56.7572 23.0463C57.8763 22.8063 58.9154 22.4061 60.0345 22.2461L61.3134 23.4464C60.1944 23.5265 59.0753 23.8466 58.0362 24.1667L57.3967 23.6065L56.5174 23.8466H56.4375Z" fill="#00CAF9"/>
<path d="M15.1905 53.6141C16.9491 48.5727 19.1872 43.7713 22.1447 39.37C23.5836 39.1299 25.1822 38.9699 26.621 38.8899L25.1023 37.7695C23.6635 37.9296 22.1447 38.0096 20.7059 38.3297L18.9474 41.2105L19.2671 42.1708C18.3079 43.7713 17.5885 45.5318 16.7093 47.2123C15.9099 48.8928 15.3504 50.7333 14.7109 52.4938L15.2705 53.6141H15.1905Z" fill="#00CAF9"/>
<path d="M25.1812 44.9706L24.9414 44.3304C25.7407 43.05 26.4601 41.6897 27.4193 40.4893H28.2187L29.2578 39.1289L29.4177 39.9291C28.7782 40.8094 28.1387 41.6096 27.4993 42.4899H26.8598L25.3411 45.0506V44.9706H25.1812Z" fill="#00CAF9"/>
<path d="M38.4531 30.0903C39.4123 29.3701 40.3715 28.5699 41.4107 27.9297L42.7695 28.4098L42.1301 28.8099C42.1301 28.8099 41.4107 28.5699 41.0909 28.4898L38.8528 30.1703H38.5331L38.4531 30.0903Z" fill="#00CAF9"/>
<path d="M31.8164 38.5739L32.2161 38.0938L33.5749 38.1738L33.0953 38.6539L31.8164 38.5739Z" fill="#00CAF9"/>
<path d="M90.4883 25.3631L90.5682 25.043L91.4475 25.5231L91.9271 25.283L93.7656 26.1633L94.0053 27.9238L92.4067 28.644L93.3659 26.7235L90.4883 25.3631Z" fill="#00CAF9"/>
<path d="M61.9531 24.8058L62.2729 24.1656L64.5909 23.7655C65.3903 23.6855 66.1896 23.7655 66.909 23.6055V24.3257C66.1097 24.3257 65.2304 24.3257 64.4311 24.3257L61.9531 24.6458V24.8058Z" fill="#00CAF9"/>
<path d="M13.0312 69.7773L13.5908 70.3375H13.351L13.0312 69.9374V69.7773Z" fill="#00CAF9"/>
<path d="M13.0312 68.8203L14.6299 70.3408H14.3901L13.0312 69.0604V68.8203Z" fill="#00CAF9"/>
<path d="M13.1094 67.9375L14.8679 69.698V69.8581L13.1094 68.1776V67.9375Z" fill="#00CAF9"/>
<path d="M13.1893 66.9805L14.9478 68.741V68.9811L13.1094 67.2205L13.1893 66.9805Z" fill="#00CAF9"/>
<path d="M13.1914 66.1016L14.9499 67.8621V68.1021L13.1914 66.3416V66.1016Z" fill="#00CAF9"/>
<path d="M13.2695 65.1406L15.0281 66.9812V67.2212L13.2695 65.3807V65.1406Z" fill="#00CAF9"/>
<path d="M13.3516 64.2578C13.8312 64.898 14.4706 65.5382 15.1101 66.0984V66.3384C14.5506 65.7783 13.8312 65.1381 13.3516 64.4979V64.2578Z" fill="#00CAF9"/>
<path d="M13.5096 63.375C14.0692 64.0152 14.5488 64.6554 15.1083 65.2155V65.4556C14.4688 64.8154 13.9892 64.2553 13.4297 63.6151V63.375H13.5096Z" fill="#00CAF9"/>
<path d="M13.5898 62.4141L15.2684 64.3346L15.1885 64.5747L13.5898 62.6541V62.4141Z" fill="#00CAF9"/>
<path d="M13.75 61.5391L15.3487 63.4596V63.6997L13.75 61.7791V61.5391Z" fill="#00CAF9"/>
<path d="M13.9922 60.9766L14.232 61.0566L15.5109 62.577V62.8171L13.9922 60.9766Z" fill="#00CAF9"/>
<path d="M15.5887 61.939L14.9492 61.2188H15.189L15.6686 61.6989L15.5887 61.939Z" fill="#00CAF9"/>
<path d="M20.3047 65.6944C20.9442 59.2926 22.8626 52.9707 25.9 47.2891L26.3796 48.4894C23.502 54.091 21.7435 60.2528 21.184 66.5747L20.3047 65.7744V65.6944Z" fill="#00CAF9"/>
<path opacity="0.7" d="M26.5403 48.0918C26.5403 48.0918 26.2206 47.2915 26.1406 46.8914L27.1798 45.2109L27.4995 46.4113C27.1798 46.9715 26.7801 47.5316 26.5403 48.0918Z" fill="#00CAF9"/>
<path opacity="0.4" d="M27.6596 46.0901L27.3398 44.9698L28.1392 43.6094L28.4589 44.8097L27.6596 46.0901Z" fill="#00CAF9"/>
<path opacity="0.2" d="M28.6166 44.4927L28.2969 43.2923C28.2969 43.2923 28.6965 42.6521 28.9363 42.332C29.0163 42.7321 29.0962 43.1323 29.1761 43.5324L28.6166 44.5727V44.4927Z" fill="#00CAF9"/>
<path opacity="0.15" d="M29.4156 43.2097L29.1758 42.0894L29.6554 41.4492L29.8952 42.6496L29.4156 43.2097Z" fill="#00CAF9"/>
<path opacity="0.1" d="M30.1382 42.3329L29.8984 41.1326L30.1382 40.8125L30.378 42.0128L30.1382 42.3329Z" fill="#00CAF9"/>
<g opacity="0.35">
<path d="M78.4961 12.8047L79.1356 13.765L79.2954 12.8847L78.4961 12.8047Z" fill="#00CAF9"/>
<path d="M76.7344 12.4844C77.4538 13.5247 78.1732 14.485 78.8126 15.5253L79.0524 14.2449L78.0133 12.7244L76.8143 12.5644L76.7344 12.4844Z" fill="#00CAF9"/>
<path d="M75.0586 12.3203C75.4583 12.8005 75.8579 13.2806 76.1777 13.8408C76.8171 14.721 77.3767 15.5212 77.9362 16.4015L78.6556 15.8413C78.0961 14.9611 77.5365 14.1608 76.8971 13.2806L76.3375 12.4804C75.9379 12.4804 75.5382 12.3203 75.0586 12.3203Z" fill="#00CAF9"/>
<path d="M73.3786 12.2422C74.0181 13.0424 74.7375 13.8427 75.297 14.6429C75.8566 15.4431 76.4161 16.2434 76.8957 17.0436H77.1355L77.6151 16.6435C77.0556 15.7632 76.496 14.963 75.8566 14.0827C75.4569 13.4425 74.9773 12.8824 74.4977 12.3222H73.2188L73.3786 12.2422Z" fill="#00CAF9"/>
<path d="M71.619 12.1602C72.9779 13.6806 74.1769 15.201 75.2959 16.8015L76.415 16.9616C75.3759 15.2811 74.0969 13.7606 72.818 12.2402H71.5391L71.619 12.1602Z" fill="#00CAF9"/>
<path d="M69.9432 12.082C71.3021 13.6025 72.581 15.2029 73.78 16.7234H74.8991C73.78 15.283 72.5011 13.6825 71.1422 12.1621H69.8633L69.9432 12.082Z" fill="#00CAF9"/>
<path d="M68.1854 12.08C69.6242 13.4404 70.9031 15.0409 72.1021 16.5613H73.2212C72.0222 15.1209 70.7433 13.5204 69.3844 12H68.1055L68.1854 12.08Z" fill="#00CAF9"/>
<path d="M66.5057 12.1621C67.9445 13.6025 69.3034 14.8828 70.5823 16.4833H71.7014C71.0619 15.7631 70.4225 15.0429 69.783 14.2427C69.1435 13.5224 68.4241 12.8022 67.7047 12.082H66.4258L66.5057 12.1621Z" fill="#00CAF9"/>
<path d="M64.8281 12.3203C66.3469 13.6807 67.7057 15.1211 69.0646 16.5615C69.4643 16.5615 69.8639 16.5615 70.1837 16.5615C68.9047 15.0411 67.5459 13.7607 66.1071 12.3203H64.8281Z" fill="#00CAF9"/>
<path d="M63.0682 12.4003C64.587 13.6807 66.0258 15.2011 67.3846 16.5615H68.5037C67.2248 15.1211 65.786 13.6807 64.2672 12.3203C63.8675 12.3203 63.4679 12.3203 62.9883 12.4804L63.0682 12.4003Z" fill="#00CAF9"/>
<path d="M61.3906 12.7225C62.19 13.3627 62.9094 14.0029 63.7087 14.6431C64.4281 15.2833 65.1475 16.0035 65.8669 16.7237H66.986C65.6271 15.2833 64.1883 13.7628 62.5896 12.5625L61.3906 12.7225Z" fill="#00CAF9"/>
<path d="M59.7109 12.9627C61.3096 14.2431 62.8283 15.4434 64.2671 16.7238H65.3862C63.9474 15.2034 62.5086 14.003 60.9099 12.7227L59.7109 12.8827V12.9627Z" fill="#00CAF9"/>
<path d="M58.0312 13.203C59.7099 14.4034 61.2286 15.6837 62.6674 16.9641L63.7865 16.8041C62.3477 15.5237 60.8289 14.2433 59.2303 13.043L58.0312 13.203Z" fill="#00CAF9"/>
<path d="M56.3516 13.6034C58.0302 14.6437 59.6288 15.924 61.1476 17.2044L62.2666 17.0444C60.8278 15.764 59.2292 14.4836 57.5506 13.3633L56.3516 13.6834V13.6034Z" fill="#00CAF9"/>
<path d="M54.6758 14.0818C56.4343 15.2021 57.9531 16.1624 59.5517 17.4428L60.6708 17.2827C59.9514 16.6426 59.1521 16.0024 58.3527 15.4422C57.5534 14.882 56.7541 14.3219 55.8748 13.7617L54.6758 14.0818Z" fill="#00CAF9"/>
<path d="M52.9961 14.4842C54.7546 15.5245 56.4332 16.6448 57.952 17.7651C58.3516 17.6851 58.6714 17.525 59.071 17.525C57.5523 16.3247 55.9536 15.2844 54.1951 14.1641L52.9961 14.4842Z" fill="#00CAF9"/>
<path d="M52.6758 14.6406L53.0755 15.921C54.2745 16.6412 55.3935 17.3614 56.4327 18.1616L57.5517 17.8416C56.033 16.7212 54.4343 15.6809 52.6758 14.6406Z" fill="#00CAF9"/>
<path d="M53.2344 16.4023L53.634 17.6827L54.913 18.563L56.032 18.2429C55.1528 17.6027 54.1936 17.0425 53.2344 16.4023Z" fill="#00CAF9"/>
<path d="M53.7148 18.1641L53.9546 18.8042L54.5142 18.6442L53.7148 18.1641Z" fill="#00CAF9"/>
</g>
<path d="M25.7384 42.733L27.4969 42.4929C27.8966 41.8527 28.3762 41.2926 28.8558 40.7324L27.0173 39.372C31.9732 32.57 38.5277 26.8884 46.1214 23.2073C47.0007 23.6074 47.8799 24.0075 48.6793 24.4077C53.8749 22.087 59.3903 20.6466 65.0656 20.0864C65.6251 19.2862 66.1847 18.566 66.7442 17.7657L69.6218 17.6057L72.4994 17.7657C73.4586 17.7657 74.4178 17.7657 75.377 17.9258L78.1747 18.3259L79.3737 17.2856L80.3329 16.5654L80.8125 16.1653L82.0914 15.285C83.6102 14.2447 85.1289 13.2844 86.8075 12.3241C87.6068 13.6845 88.3262 15.365 88.9657 16.8054L87.1272 17.7657L86.4878 19.6063V19.9264C86.9674 21.4468 87.5269 22.9672 88.0065 24.4077C88.8058 24.6477 89.5252 24.9678 90.2447 25.3679L91.5236 24.7277L93.2821 20.9667L92.9624 19.9264L93.442 18.806L94.4012 18.4059L94.7209 17.7657L94.5611 17.2856C94.0815 15.8452 93.6019 14.3247 92.9624 12.9643C88.9657 11.3639 84.8092 10.1635 80.5727 9.36328H80.4928L79.5336 10.1635L79.054 10.5636L77.775 11.5239L77.2954 11.924L76.0964 12.8843C75.377 13.4445 74.7376 14.1647 74.0182 14.8049L72.8991 15.9252L72.4994 16.3253L72.0998 16.8054C58.1913 16.0852 44.203 21.1267 33.8916 30.4094L31.7334 30.1693C29.0956 32.65 26.7775 35.2908 24.6992 38.2517L25.1788 40.4123L25.8183 42.5729L25.7384 42.733Z" fill="#00CAF9"/>
<path d="M97.1987 22.8054C97.5984 22.1652 97.9181 21.525 98.078 21.285C98.078 21.1249 97.9181 20.6448 97.6783 19.5245C96.799 19.0443 95.8398 18.5642 94.8806 18.1641L94.481 18.9643L93.5218 19.3644L93.1221 20.1646L93.4418 21.2049L91.5234 25.2061C93.282 24.4059 95.2004 23.5256 97.1188 22.9655L97.1987 22.8054Z" fill="#00CAF9"/>
<path d="M33.9716 32.009C33.412 32.5691 32.6926 33.0493 32.213 33.6895L30.5344 35.53C29.9749 36.1702 29.4154 36.7303 28.8558 37.3705L27.417 39.3711L29.3354 40.8115C26.218 45.1328 23.5003 49.8542 21.9016 54.9757C20.303 60.0971 19.4237 65.3787 19.3438 70.7402L21.0224 69.4599L21.1822 66.339C21.1822 65.2987 21.502 64.2584 21.5819 63.2181C21.8217 61.1374 22.3812 59.1369 22.9408 57.0563L21.502 57.6964C23.1006 51.6147 25.9782 45.853 29.7351 40.8115L27.8167 39.3711C28.616 38.2508 29.4154 37.1305 30.3746 36.1702C31.3338 35.2099 32.1331 34.0896 33.1722 33.1293L34.691 33.2893C35.7301 32.4091 36.6893 31.3688 37.8084 30.5686C37.8084 29.6883 37.8084 28.8881 37.9682 28.0078L35.6502 29.7683L33.492 31.6889L33.8117 32.009H33.9716Z" fill="#00CAF9"/>
<g clip-path="url(#clip0_2304_56449)">
<g opacity="0.2">
<path d="M33.2734 64.1728H105.17C105.041 63.3788 104.874 62.5848 104.694 61.8164H33.7493C33.5693 62.5976 33.4021 63.3788 33.2734 64.1728Z" fill="url(#paint0_linear_2304_56449)"/>
<path d="M69.222 106.524C73.6336 106.524 77.865 105.743 81.7878 104.309H56.6562C60.5662 105.743 64.8105 106.524 69.222 106.524Z" fill="url(#paint1_linear_2304_56449)"/>
<path d="M32.7852 68.8993H105.646C105.62 68.1053 105.569 67.3114 105.492 66.543H32.9524C32.8752 67.3242 32.8237 68.1053 32.798 68.8993H32.7852Z" fill="url(#paint2_linear_2304_56449)"/>
<path d="M34.3945 59.4501H104.04C103.796 58.6561 103.513 57.8621 103.217 57.0938H35.2177C34.9219 57.8749 34.6389 58.6561 34.3945 59.4501Z" fill="url(#paint3_linear_2304_56449)"/>
<path d="M36.2472 54.7353H102.201C101.816 53.9285 101.404 53.1473 100.967 52.3789H37.4691C37.0318 53.1473 36.6202 53.9413 36.2344 54.7353H36.2472Z" fill="url(#paint4_linear_2304_56449)"/>
<path d="M37.3016 87.79H101.121C101.545 87.0216 101.957 86.2276 102.317 85.4336H36.1055C36.4785 86.2404 36.8772 87.0216 37.3016 87.79Z" fill="url(#paint5_linear_2304_56449)"/>
<path d="M51.4983 101.954H86.9448C88.231 101.237 89.4657 100.456 90.649 99.5977H47.7812C48.9645 100.456 50.1992 101.25 51.4854 101.954H51.4983Z" fill="url(#paint6_linear_2304_56449)"/>
<path d="M32.9278 73.6259H105.519C105.596 72.8447 105.647 72.0635 105.66 71.2695H32.7734C32.7992 72.0635 32.8506 72.8447 32.9149 73.6259H32.9278Z" fill="url(#paint7_linear_2304_56449)"/>
<path d="M35.115 83.0634H103.333C103.629 82.2822 103.899 81.501 104.143 80.707H34.3047C34.5491 81.501 34.8192 82.295 35.115 83.0634Z" fill="url(#paint8_linear_2304_56449)"/>
<path d="M40.4399 92.5009H97.9956C98.5872 91.7325 99.1531 90.9513 99.6933 90.1445H38.7422C39.2824 90.9513 39.8483 91.7453 40.4399 92.5009Z" fill="url(#paint9_linear_2304_56449)"/>
<path d="M33.6728 78.3368H104.759C104.939 77.5557 105.093 76.7745 105.222 75.9805H33.2227C33.3513 76.7745 33.5056 77.5685 33.6857 78.3368H33.6728Z" fill="url(#paint10_linear_2304_56449)"/>
<path d="M44.8622 97.2275H93.5819C94.4179 96.4719 95.2153 95.6907 95.987 94.8711H42.457C43.2159 95.6907 44.0261 96.4847 44.8622 97.2275Z" fill="url(#paint11_linear_2304_56449)"/>
<path d="M69.222 33.9258C65.1191 33.9258 61.1835 34.6045 57.4922 35.8467H80.9389C77.2605 34.6045 73.3248 33.9258 69.222 33.9258Z" fill="url(#paint12_linear_2304_56449)"/>
<path d="M48.1953 40.5712H90.2399C89.018 39.7132 87.7319 38.9192 86.4071 38.2148H52.0409C50.7162 38.9192 49.43 39.7132 48.2082 40.5712H48.1953Z" fill="url(#paint13_linear_2304_56449)"/>
<path d="M38.9336 50.0087H99.4989C98.9458 49.2019 98.367 48.4079 97.7625 47.6523H40.6699C40.0654 48.4207 39.4866 49.2019 38.9336 50.0087Z" fill="url(#paint14_linear_2304_56449)"/>
<path d="M42.7266 45.2861H95.7035C94.9189 44.4665 94.0958 43.6725 93.2469 42.9297H45.196C44.3343 43.6725 43.5111 44.4665 42.7394 45.2861H42.7266Z" fill="url(#paint15_linear_2304_56449)"/>
</g>
<path d="M92.2316 38.6378C95.0354 40.2258 97.6206 42.2108 99.9357 44.5031C102.122 46.8979 104.026 49.5616 105.569 52.4174C108.669 58.1291 110.302 64.6091 110.289 71.1019C110.289 77.5948 108.669 84.0748 105.569 89.7864C104.026 92.6422 102.122 95.306 99.9228 97.7007C97.5949 99.9675 95.0226 101.978 92.2188 103.566C94.7782 101.619 97.119 99.4296 99.1254 96.9836C101.26 94.6528 103.113 92.0659 104.617 89.287C107.64 83.729 109.222 77.4283 109.222 71.1019C109.222 64.7756 107.64 58.4749 104.617 52.9169C103.113 50.1379 101.273 47.5382 99.1254 45.2203C97.1062 42.7871 94.7782 40.5844 92.2188 38.625L92.2316 38.6378Z" fill="url(#paint16_linear_2304_56449)"/>
<path d="M95.8711 44.043C97.8132 45.6822 99.5624 47.5647 101.119 49.5881C102.598 51.6628 103.871 53.9039 104.9 56.2346C106.958 60.9089 108.012 66.0059 108.012 71.1156C108.012 76.2125 106.958 81.3223 104.9 85.9966C103.871 88.3274 102.611 90.5685 101.119 92.6431C99.5624 94.6665 97.8132 96.549 95.8711 98.1883C97.6589 96.3826 99.2923 94.436 100.681 92.3357C102.148 90.2867 103.395 88.084 104.411 85.7789C106.443 81.1686 107.485 76.1485 107.485 71.1156C107.485 66.0827 106.443 61.0626 104.411 56.4523C103.395 54.1472 102.148 51.9445 100.681 49.8955C99.2923 47.7952 97.6589 45.8487 95.8711 44.043Z" fill="url(#paint17_linear_2304_56449)"/>
<path d="M101.12 101.326C101.532 100.954 101.956 100.583 102.368 100.199C102.303 99.7248 102.226 99.251 102.136 98.7771L102.728 98.188C102.921 97.9959 103.101 97.7782 103.294 97.5733C103.757 97.6373 104.232 97.7014 104.721 97.7526C104.876 97.5861 105.03 97.4196 105.171 97.2404L103.95 96.1774L105.184 97.2276C106.085 96.1646 106.959 95.0633 107.744 93.8979C107.576 93.4497 107.409 93.0014 107.242 92.566C107.396 92.3355 107.551 92.105 107.692 91.8617L108.13 91.1573C108.438 90.6963 108.683 90.1969 108.953 89.7102C109.429 89.659 109.917 89.6078 110.393 89.5309C110.689 88.9162 111.011 88.3015 111.293 87.6868L111.705 86.7391C111.834 86.4318 111.988 86.1116 112.091 85.7915C111.821 85.3945 111.564 84.9975 111.281 84.6133C111.371 84.3572 111.474 84.101 111.564 83.8321L111.821 83.0381C112.284 82.8972 112.734 82.7564 113.197 82.6027C113.364 82.0136 113.519 81.4117 113.686 80.8098C113.377 80.4512 113.056 80.0926 112.721 79.7341L112.901 78.9273L112.991 78.5175L113.056 78.1077C113.48 77.9028 113.917 77.6978 114.342 77.4801C114.38 77.1984 114.432 76.9295 114.47 76.6477L114.56 75.8153C114.2 75.4952 113.84 75.1878 113.493 74.8805C113.544 74.3298 113.57 73.7791 113.609 73.2284L114.226 72.8442L114.818 72.4472V71.7685L112.773 71.7429H114.83C114.83 71.3971 114.843 71.0385 114.83 70.6928L114.792 69.6426C114.779 68.9383 114.702 68.2468 114.65 67.5552C114.226 67.3119 113.827 67.0814 113.403 66.8637L113.171 65.2116C113.081 64.661 112.965 64.1231 112.863 63.5724C113.197 63.2395 113.531 62.8809 113.84 62.5223L113.596 61.5234C113.506 61.1905 113.441 60.8575 113.338 60.5245L113.043 59.5384C112.94 59.2055 112.85 58.8853 112.734 58.5651C112.271 58.4243 111.808 58.2962 111.358 58.1681C111.268 57.912 111.178 57.6431 111.075 57.387L110.766 56.6186C111.023 56.2216 111.281 55.8118 111.525 55.402C111.281 54.8385 110.998 54.275 110.74 53.7243C110.265 53.6347 109.789 53.5707 109.313 53.5194C109.043 53.0328 108.798 52.5333 108.515 52.0595C108.721 51.6241 108.914 51.2015 109.107 50.7533L108.67 50.0361L108.194 49.3446C107.718 49.3318 107.229 49.319 106.766 49.3061C106.458 48.8451 106.11 48.4097 105.776 47.9615C105.93 47.5133 106.072 47.0522 106.2 46.5912L105.763 46.0661L104.67 46.9626H104.657L105.75 46.0533C105.531 45.7844 105.313 45.5027 105.081 45.2465L104.374 44.4653C103.911 43.9403 103.409 43.4536 102.908 42.9542C102.445 43.031 101.969 43.1207 101.506 43.2231C101.442 43.1591 101.364 43.0951 101.287 43.031C100.554 42.2755 99.7824 41.5583 98.9978 40.8539L97.8145 39.8679C97.3644 39.4965 96.9014 39.1379 96.4383 38.7793C94.522 37.4859 92.5027 36.3461 90.4062 35.3984V35.9875C92.3098 37.0505 94.1233 38.2671 95.8081 39.6373C96.5026 40.1496 97.1715 40.7003 97.8274 41.2509C97.8274 41.2509 97.9431 41.3534 98.0075 41.3918C100.387 43.428 102.522 45.7332 104.348 48.2688C104.657 48.6786 104.94 49.0884 105.21 49.511C105.493 49.9465 105.776 50.3563 106.033 50.7917C106.535 51.6753 107.062 52.5333 107.499 53.4554C107.975 54.3519 108.361 55.2867 108.773 56.2088L109.313 57.6303C109.506 58.1041 109.66 58.5779 109.814 59.0646C111.075 62.9193 111.666 66.9789 111.705 71.0257C111.679 75.0725 111.088 79.1322 109.827 82.9869C109.544 83.9602 109.146 84.895 108.798 85.8427C108.387 86.7648 108.001 87.7124 107.525 88.6089C106.625 90.4274 105.557 92.1562 104.374 93.8083C102.007 97.1123 99.1135 100.019 95.8596 102.465C94.1618 103.848 92.3355 105.078 90.4062 106.154V106.73C92.5284 105.769 94.5605 104.63 96.4898 103.311C96.9399 102.978 97.956 102.312 98.3933 101.966C98.8435 101.633 99.2679 101.274 99.6923 100.929C100.155 101.057 100.631 101.185 101.081 101.287L101.12 101.326Z" fill="url(#paint18_linear_2304_56449)"/>
<path d="M46.2414 102.991C43.4375 101.403 40.8523 99.4178 38.5373 97.1254C36.3508 94.7306 34.4473 92.0669 32.9039 89.2111C29.8042 83.4995 28.1708 77.0194 28.1837 70.5266C28.1837 64.0338 29.8042 57.5538 32.9039 51.8421C34.4473 48.9863 36.3508 46.3226 38.5501 43.9278C40.8781 41.6611 43.4504 39.6505 46.2542 38.0625C43.6948 40.0091 41.3539 42.199 39.3475 44.645C37.2125 46.9757 35.3604 49.5626 33.8556 52.3416C30.8332 57.8996 29.2512 64.2003 29.2512 70.5266C29.2512 76.853 30.8332 83.1537 33.8556 88.7117C35.3604 91.4906 37.1996 94.0903 39.3475 96.4083C41.3668 98.8415 43.6948 101.044 46.2542 103.004L46.2414 102.991Z" fill="url(#paint19_linear_2304_56449)"/>
<path d="M42.6023 97.5867C40.6602 95.9475 38.911 94.0649 37.3548 92.0415C35.8757 89.9669 34.6024 87.7258 33.5734 85.395C31.5156 80.7207 30.4609 75.6238 30.4609 70.514C30.4609 65.4171 31.5156 60.3074 33.5734 55.6331C34.6024 53.3023 35.8757 51.0612 37.3548 48.9866C38.911 46.9632 40.6602 45.0806 42.6023 43.4414C40.8145 45.2471 39.1811 47.1937 37.792 49.2939C36.3258 51.3429 35.0783 53.5456 34.0622 55.8508C32.0301 60.4611 30.9883 65.4811 30.9883 70.514C30.9883 75.5469 32.0301 80.567 34.0622 85.1773C35.0783 87.4825 36.3258 89.6852 37.792 91.7342C39.1811 93.8344 40.8145 95.781 42.6023 97.5867Z" fill="url(#paint20_linear_2304_56449)"/>
<path d="M37.34 40.3027C36.9285 40.6741 36.504 41.0455 36.0925 41.4297C36.1568 41.9035 36.2339 42.3774 36.324 42.8512L35.7323 43.4403C35.5394 43.6324 35.3593 43.8501 35.1664 44.055C34.6905 43.991 34.2275 43.9269 33.7388 43.8757C33.5844 44.0422 33.4301 44.2087 33.2886 44.3879L34.5105 45.4509L33.2758 44.4008C32.3755 45.4637 31.5009 46.565 30.7163 47.7304C30.8835 48.1786 31.0507 48.6269 31.2179 49.0623C31.0636 49.2928 30.9092 49.5233 30.7678 49.7666L30.3305 50.471C30.0218 50.9448 29.7774 51.4314 29.5073 51.9181C29.0314 51.9693 28.5427 52.0205 28.0668 52.0974C27.771 52.7121 27.4495 53.3268 27.1665 53.9415L26.7549 54.8892C26.6263 55.1965 26.472 55.5167 26.3691 55.8368C26.6392 56.2466 26.8964 56.6308 27.1794 57.0278C27.0893 57.284 26.9864 57.5401 26.8964 57.809L26.652 58.603C26.189 58.7439 25.7389 58.8848 25.2759 59.0384C25.1087 59.6275 24.9543 60.2294 24.7871 60.8313C25.0958 61.1899 25.4173 61.5485 25.7517 61.9071L25.5717 62.7139L25.4816 63.1237L25.4173 63.5335C24.9929 63.7384 24.5556 63.9433 24.1312 64.161C24.0926 64.4427 24.0411 64.7116 24.0026 64.9934L23.9125 65.8258C24.2727 66.146 24.6328 66.4533 24.98 66.7607C24.9286 67.3113 24.9029 67.862 24.8643 68.4127L24.2469 68.7969L23.6553 69.1939V69.8726L25.7003 69.8982H23.6424C23.6424 70.244 23.6296 70.6026 23.6424 70.9483L23.681 71.9985C23.6939 72.7028 23.7711 73.3944 23.8225 74.0859C24.2469 74.3292 24.6456 74.5597 25.0701 74.7774L25.3016 76.4295C25.3916 76.9801 25.5074 77.518 25.6103 78.0687C25.2759 78.4016 24.9415 78.7602 24.6328 79.1188L24.8771 80.1177C24.9672 80.4507 25.0315 80.7836 25.1344 81.1166L25.4302 82.1027C25.5331 82.4356 25.6231 82.7558 25.7389 83.076C26.2019 83.2168 26.6649 83.3449 27.1151 83.473C27.2051 83.7291 27.2951 83.998 27.398 84.2542L27.7067 85.0225C27.4495 85.4195 27.1922 85.8293 26.9479 86.2391C27.1922 86.8026 27.4752 87.3661 27.7324 87.9168C28.2083 88.0064 28.6842 88.0704 29.1601 88.1217C29.4302 88.6083 29.6745 89.1078 29.9575 89.5816C29.7517 90.017 29.5588 90.4396 29.3658 90.8878L29.8031 91.605L30.279 92.2965C30.7549 92.3094 31.2436 92.3222 31.7067 92.3222C32.0153 92.7832 32.3626 93.2186 32.697 93.6668C32.5427 94.115 32.4012 94.5761 32.2726 95.0371L32.7099 95.5622L33.8031 94.6657H33.816L32.7227 95.575C32.9414 95.8439 33.16 96.1257 33.3915 96.3818L34.0989 97.163C34.5619 97.7008 35.0635 98.1747 35.5651 98.6741C36.0282 98.5973 36.504 98.5076 36.967 98.4052C37.0314 98.4692 37.1085 98.5332 37.1857 98.5973C37.9188 99.3529 38.6905 100.07 39.4751 100.774L40.6583 101.76C41.1085 102.132 41.5715 102.49 42.0345 102.849C43.9509 104.142 45.9702 105.282 48.0666 106.23V105.641C46.1631 104.578 44.3496 103.361 42.6647 101.991C41.9702 101.479 41.3014 100.941 40.6455 100.377C40.6455 100.377 40.5297 100.275 40.4654 100.236C38.086 98.2003 35.951 95.8951 34.1246 93.3595C33.816 92.9497 33.533 92.5399 33.2629 92.1173C32.98 91.6818 32.697 91.272 32.4398 90.8366C31.9382 89.953 31.4108 89.095 30.9735 88.1729C30.4977 87.2765 30.1118 86.3416 29.7002 85.4195L29.1601 83.998C28.9671 83.5242 28.8128 83.0504 28.6585 82.5637C27.398 78.709 26.8064 74.6494 26.7678 70.6026C26.7935 66.5558 27.3852 62.4961 28.6456 58.6414C28.9286 57.6681 29.3273 56.7333 29.6745 55.7856C30.0861 54.8636 30.4719 53.9159 30.9478 53.0194C31.8481 51.2009 32.9156 49.4721 34.0989 47.8201C36.4654 44.516 39.3593 41.609 42.6133 39.163C44.311 37.7799 46.1374 36.5505 48.0666 35.4747V34.8984C45.9444 35.8589 43.9123 36.9987 41.9831 38.3177C41.5329 38.6507 40.5168 39.3166 40.0796 39.6624C39.6294 39.9954 39.205 40.3539 38.7805 40.6997C38.3175 40.5717 37.8416 40.4436 37.3915 40.3411L37.34 40.3027Z" fill="url(#paint21_linear_2304_56449)"/>
<path style="mix-blend-mode:color-dodge" d="M68.862 111.121C90.2926 111.121 107.665 93.8229 107.665 72.4844C107.665 51.1459 90.2926 33.8477 68.862 33.8477C47.4315 33.8477 30.0586 51.1459 30.0586 72.4844C30.0586 93.8229 47.4315 111.121 68.862 111.121Z" fill="url(#paint22_radial_2304_56449)"/>
<path d="M66.5734 67.3634C60.7085 66.9408 63.268 61.5749 65.3773 62.4586C67.4995 63.3422 68.3483 61.7798 68.3483 61.7798C68.0525 61.1523 66.9464 60.4736 66.9464 60.4736C64.6956 60.0125 63.5509 60.9346 62.6635 61.3572C61.776 61.7798 59.5253 63.6752 60.9658 66.6462C62.4063 69.6045 66.4834 69.771 66.4834 69.771C66.4834 69.771 72.1682 69.771 73.2743 71.6791C74.3804 73.5873 71.2422 74.1764 71.2422 74.1764C72.4254 74.3044 73.493 75.3546 73.493 75.3546C73.493 75.3546 75.7823 75.06 75.6537 72.0633C75.5251 69.0666 72.4254 67.7988 66.5734 67.3762V67.3634ZM66.4062 60.8706C66.7921 60.9346 67.0879 61.1651 67.0879 61.1651C67.0879 61.1651 66.7406 61.2932 66.3548 61.2291C65.9689 61.1651 65.6731 60.9346 65.6731 60.9346C65.6731 60.9346 66.0204 60.8065 66.4062 60.8706Z" fill="#00FFFF"/>
<path d="M75.2434 61.3581C74.356 60.9355 73.2113 60.0007 70.9605 60.4745C70.9605 60.4745 69.8544 61.1532 69.5586 61.7807C69.5586 61.7807 70.4075 63.3431 72.5296 62.4595C74.6518 61.5758 77.1984 66.9417 71.3464 67.3643L74.6518 68.8883C75.5521 68.4272 76.4267 67.7229 76.954 66.6344C78.3945 63.6761 76.1437 61.7807 75.2563 61.3453L75.2434 61.3581ZM71.6164 61.2301C71.2306 61.2941 70.8833 61.166 70.8833 61.166C70.8833 61.166 71.1663 60.9355 71.565 60.8715C71.9637 60.8075 72.2981 60.9355 72.2981 60.9355C72.2981 60.9355 72.0152 61.166 71.6164 61.2301Z" fill="#00FFFF"/>
<path d="M70.7302 79.8489C71.4504 79.8489 72.7495 80.8606 72.7495 80.8606C72.7495 80.8606 74.2157 79.8489 74.0227 77.4157C73.8298 74.9825 70.5887 74.3037 68.5952 74.2909C66.6016 74.2653 64.5438 73.4841 64.428 72.3315C64.3122 71.1662 66.2415 70.1545 66.2415 70.1545C65.3283 70.2441 63.4891 69.3477 63.4891 69.3477C62.9361 69.9367 62.4087 71.0765 62.383 72.2803C62.3701 73.4841 63.0004 74.5214 64.8396 75.4947C66.6916 76.468 68.4665 75.9557 70.3186 76.1863C70.3186 76.1863 72.3379 76.4808 72.4022 77.7999C72.4665 79.1189 70.743 79.8361 70.743 79.8361L70.7302 79.8489Z" fill="#00FFFF"/>
<path d="M66.6644 76.5472C66.6644 76.5472 65.1596 77.1619 65.494 78.4297C65.8284 79.6976 67.1532 80.0177 69.8412 80.0818C72.5293 80.1458 73.0052 82.8864 72.9023 83.373C72.7994 83.8596 72.7994 85.2299 71.346 85.8446C71.346 85.8446 70.3686 85.1659 69.8798 85.2555C69.8798 85.2555 71.4103 84.4487 71.539 83.6547C71.6676 82.8479 71.1531 81.4136 68.6708 81.4777C66.1885 81.5417 64.748 80.8245 64.2207 79.9537C63.7963 79.2494 63.6934 76.6625 64.748 75.9453L66.6644 76.56V76.5472Z" fill="#00FFFF"/>
<path d="M68.4125 86.4847C69.6601 86.536 71.1135 86.9458 70.8434 88.1496C70.5733 89.3534 69.3128 89.5967 69.3128 89.5967L70.4446 89.9937C70.4446 89.9937 71.1006 89.5198 71.4993 89.0076C71.898 88.4953 72.1038 87.2147 71.3064 86.3567C70.4832 85.473 68.3096 85.3066 68.3096 85.3066C67.0106 85.2169 66.2518 84.282 66.2775 83.3728C66.2903 82.4635 67.0878 81.9513 67.0878 81.9513L65.5444 81.375C65.5444 81.375 64.091 83.5777 65.5444 85.0504C66.9977 86.5232 68.4125 86.4719 68.4125 86.4719V86.4847Z" fill="#00FFFF"/>
<path d="M66.5362 86.1651L67.7452 86.7542C67.7452 86.7542 66.3818 88.1757 68.0024 89.2515C69.6101 90.3272 71.012 90.2888 70.7805 92.5683C70.7805 92.5683 70.6262 94.1563 69.2114 94.1051C69.2114 94.1051 70.2661 93.6441 70.2661 92.8117C70.2661 91.9792 70.5876 90.9163 67.7838 90.1223C64.9799 89.3411 66.5362 86.1523 66.5362 86.1523V86.1651Z" fill="#00FFFF"/>
<path d="M67.7053 90.4141L68.4512 90.7342C68.4512 90.7342 66.5091 92.1557 68.7342 94.0255C68.7342 94.0255 66.7921 93.4364 67.075 91.81C67.075 91.81 67.2294 90.8495 67.7053 90.4141Z" fill="#00FFFF"/>
<path d="M94.3937 58.489C94.3937 58.489 83.0241 57.5029 76.3746 52.5341C69.7252 47.5524 73.0692 55.2234 72.619 56.2735C72.1689 57.3237 71.2814 58.2073 70.0724 57.9512C70.0724 57.9512 69.9695 56.6833 69.6866 56.4272C69.6866 56.4272 70.2911 55.8893 70.2268 55.1722L68.8634 55.1338L67.4873 55.1722C67.4229 55.8893 68.0274 56.4272 68.0274 56.4272C67.7573 56.6833 67.6416 57.9512 67.6416 57.9512C66.4326 58.2073 65.5452 57.3109 65.095 56.2735C64.6448 55.2362 67.9889 47.5524 61.3394 52.5341C54.69 57.5158 43.3203 58.489 43.3203 58.489C45.7383 60.807 49.1723 60.7045 49.1723 60.7045L48.8251 61.2296C51.3331 62.0748 55.2816 61.9724 55.2816 61.9724L54.8958 62.4206C54.8958 62.4206 55.5903 62.7664 58.0468 62.8304C60.5034 62.8944 61.6738 61.4729 61.6738 61.4729C61.6738 61.4729 64.6963 59.5392 67.05 60.346C69.4036 61.1528 67.976 62.9713 67.976 62.9713L68.1432 67.1589H69.5194L69.6866 62.9713C69.6866 62.9713 68.259 61.1528 70.6126 60.346C72.9663 59.5392 75.9888 61.4729 75.9888 61.4729C75.9888 61.4729 77.172 62.8944 79.6157 62.8304C82.0723 62.7664 82.7668 62.4206 82.7668 62.4206L82.381 61.9724C82.381 61.9724 86.3295 62.0876 88.8375 61.2296L88.4902 60.7045C88.4902 60.7045 91.9243 60.7942 94.3423 58.489H94.3937Z" fill="#00FFFF"/>
<path d="M70.7808 53.1738C70.7808 54.2239 69.932 55.0691 68.8773 55.0691C67.8227 55.0691 66.9609 54.2239 66.9609 53.1738C66.9609 52.1237 67.8098 51.2656 68.8773 51.2656C69.9448 51.2656 70.7808 52.1108 70.7808 53.1738Z" fill="#00FFFF"/>
</g>
<defs>
<linearGradient id="paint0_linear_2304_56449" x1="33.2734" y1="62.9946" x2="105.17" y2="62.9946" gradientUnits="userSpaceOnUse">
<stop stop-color="#0071BC"/>
<stop offset="1" stop-color="#00FFFF"/>
</linearGradient>
<linearGradient id="paint1_linear_2304_56449" x1="56.6562" y1="105.423" x2="81.7749" y2="105.423" gradientUnits="userSpaceOnUse">
<stop stop-color="#0071BC"/>
<stop offset="1" stop-color="#00FFFF"/>
</linearGradient>
<linearGradient id="paint2_linear_2304_56449" x1="32.7852" y1="67.7212" x2="105.646" y2="67.7212" gradientUnits="userSpaceOnUse">
<stop stop-color="#0071BC"/>
<stop offset="1" stop-color="#00FFFF"/>
</linearGradient>
<linearGradient id="paint3_linear_2304_56449" x1="34.3945" y1="58.2719" x2="104.04" y2="58.2719" gradientUnits="userSpaceOnUse">
<stop stop-color="#0071BC"/>
<stop offset="1" stop-color="#00FFFF"/>
</linearGradient>
<linearGradient id="paint4_linear_2304_56449" x1="36.2472" y1="53.5443" x2="102.189" y2="53.5443" gradientUnits="userSpaceOnUse">
<stop stop-color="#0071BC"/>
<stop offset="1" stop-color="#00FFFF"/>
</linearGradient>
<linearGradient id="paint5_linear_2304_56449" x1="36.1055" y1="86.599" x2="102.33" y2="86.599" gradientUnits="userSpaceOnUse">
<stop stop-color="#0071BC"/>
<stop offset="1" stop-color="#00FFFF"/>
</linearGradient>
<linearGradient id="paint6_linear_2304_56449" x1="47.7812" y1="100.776" x2="90.649" y2="100.776" gradientUnits="userSpaceOnUse">
<stop stop-color="#0071BC"/>
<stop offset="1" stop-color="#00FFFF"/>
</linearGradient>
<linearGradient id="paint7_linear_2304_56449" x1="32.7734" y1="72.4349" x2="105.66" y2="72.4349" gradientUnits="userSpaceOnUse">
<stop stop-color="#0071BC"/>
<stop offset="1" stop-color="#00FFFF"/>
</linearGradient>
<linearGradient id="paint8_linear_2304_56449" x1="34.3047" y1="81.8852" x2="104.13" y2="81.8852" gradientUnits="userSpaceOnUse">
<stop stop-color="#0071BC"/>
<stop offset="1" stop-color="#00FFFF"/>
</linearGradient>
<linearGradient id="paint9_linear_2304_56449" x1="38.7422" y1="91.3227" x2="99.6933" y2="91.3227" gradientUnits="userSpaceOnUse">
<stop stop-color="#0071BC"/>
<stop offset="1" stop-color="#00FFFF"/>
</linearGradient>
<linearGradient id="paint10_linear_2304_56449" x1="33.2227" y1="77.1587" x2="105.222" y2="77.1587" gradientUnits="userSpaceOnUse">
<stop stop-color="#0071BC"/>
<stop offset="1" stop-color="#00FFFF"/>
</linearGradient>
<linearGradient id="paint11_linear_2304_56449" x1="42.457" y1="96.0493" x2="95.987" y2="96.0493" gradientUnits="userSpaceOnUse">
<stop stop-color="#0071BC"/>
<stop offset="1" stop-color="#00FFFF"/>
</linearGradient>
<linearGradient id="paint12_linear_2304_56449" x1="57.4922" y1="34.8863" x2="80.9389" y2="34.8863" gradientUnits="userSpaceOnUse">
<stop stop-color="#0071BC"/>
<stop offset="1" stop-color="#00FFFF"/>
</linearGradient>
<linearGradient id="paint13_linear_2304_56449" x1="48.1953" y1="39.3802" x2="90.2399" y2="39.3802" gradientUnits="userSpaceOnUse">
<stop stop-color="#0071BC"/>
<stop offset="1" stop-color="#00FFFF"/>
</linearGradient>
<linearGradient id="paint14_linear_2304_56449" x1="38.9336" y1="48.8305" x2="99.4989" y2="48.8305" gradientUnits="userSpaceOnUse">
<stop stop-color="#0071BC"/>
<stop offset="1" stop-color="#00FFFF"/>
</linearGradient>
<linearGradient id="paint15_linear_2304_56449" x1="42.7266" y1="44.1079" x2="95.7035" y2="44.1079" gradientUnits="userSpaceOnUse">
<stop stop-color="#0071BC"/>
<stop offset="1" stop-color="#00FFFF"/>
</linearGradient>
<linearGradient id="paint16_linear_2304_56449" x1="135.241" y1="71.1019" x2="92.566" y2="71.1019" gradientUnits="userSpaceOnUse">
<stop stop-color="#0071BC"/>
<stop offset="1" stop-color="#00FFFF"/>
</linearGradient>
<linearGradient id="paint17_linear_2304_56449" x1="135.24" y1="71.1028" x2="92.5657" y2="71.1028" gradientUnits="userSpaceOnUse">
<stop stop-color="#0071BC"/>
<stop offset="1" stop-color="#00FFFF"/>
</linearGradient>
<linearGradient id="paint18_linear_2304_56449" x1="135.242" y1="71.1154" x2="92.567" y2="71.1154" gradientUnits="userSpaceOnUse">
<stop stop-color="#0071BC"/>
<stop offset="1" stop-color="#00FFFF"/>
</linearGradient>
<linearGradient id="paint19_linear_2304_56449" x1="-0.0989852" y1="70.5266" x2="48.1835" y2="70.5266" gradientUnits="userSpaceOnUse">
<stop stop-color="#0071BC"/>
<stop offset="1" stop-color="#00FFFF"/>
</linearGradient>
<linearGradient id="paint20_linear_2304_56449" x1="-0.0982156" y1="70.5269" x2="48.1842" y2="70.5269" gradientUnits="userSpaceOnUse">
<stop stop-color="#0071BC"/>
<stop offset="1" stop-color="#00FFFF"/>
</linearGradient>
<linearGradient id="paint21_linear_2304_56449" x1="-0.100072" y1="70.5129" x2="48.1824" y2="70.5129" gradientUnits="userSpaceOnUse">
<stop stop-color="#0071BC"/>
<stop offset="1" stop-color="#00FFFF"/>
</linearGradient>
<radialGradient id="paint22_radial_2304_56449" cx="0" cy="0" r="1" gradientUnits="userSpaceOnUse" gradientTransform="translate(71.5111 74.8776) scale(38.748 38.5816)">
<stop offset="0.02" stop-color="#BCBCBC"/>
<stop offset="0.88"/>
</radialGradient>
<clipPath id="clip0_2304_56449">
<rect width="91.2402" height="77.2864" fill="white" transform="translate(23.6172 33.8477)"/>
</clipPath>
</defs>
</svg>
