<svg width="417" height="147" viewBox="0 0 417 147" fill="none" xmlns="http://www.w3.org/2000/svg">
<g opacity="0.35">
<path d="M390.306 60.0303H206.422V6.6875H390.306C405.075 6.6875 417.137 18.7327 417.137 33.4818C417.137 48.231 405.075 60.2761 390.306 60.2761V60.0303Z" fill="url(#paint0_linear_2113_1405)"/>
</g>
<g opacity="0.35">
<path d="M12.7996 143.556C7.38406 143.556 2.95312 139.131 2.95312 133.723H3.19929C3.19929 128.315 7.63022 123.891 13.0458 123.891C18.4614 123.891 22.8923 128.315 22.8923 133.723C22.8923 139.131 18.4614 143.556 13.0458 143.556H12.7996Z" fill="url(#paint1_linear_2113_1405)"/>
</g>
<path d="M16.4943 130.035H9.10938V137.41H16.4943V130.035Z" fill="url(#paint2_linear_2113_1405)"/>
<path d="M1.9693 120.941H0V122.908H1.9693V120.941Z" fill="url(#paint3_linear_2113_1405)"/>
<path d="M25.8482 120.941H23.8789V122.908H25.8482V120.941Z" fill="url(#paint4_linear_2113_1405)"/>
<path d="M1.9693 144.785H0V146.752H1.9693V144.785Z" fill="url(#paint5_linear_2113_1405)"/>
<path d="M25.8482 144.785H23.8789V146.752H25.8482V144.785Z" fill="url(#paint6_linear_2113_1405)"/>
<path d="M24.8622 145.77H0.738281V121.68H24.8622V145.77ZM1.23061 145.524H24.6161V122.171H1.23061V145.524Z" fill="url(#paint7_linear_2113_1405)"/>
<g opacity="0.35">
<path d="M22.5828 124.136L3.26172 143.43L3.43579 143.604L22.7568 124.309L22.5828 124.136Z" fill="url(#paint8_linear_2113_1405)"/>
</g>
<g opacity="0.35">
<path d="M3.43578 124.139L3.26172 124.312L22.5828 143.607L22.7568 143.433L3.43578 124.139Z" fill="url(#paint9_linear_2113_1405)"/>
</g>
<g opacity="0.35">
<path d="M10.832 142.329C9.355 141.837 7.87803 141.1 6.64721 140.116C5.66256 139.133 4.92407 137.658 4.43174 136.429C3.93942 134.954 3.93942 133.479 4.43174 132.004C4.67791 130.775 5.17023 129.792 5.90872 128.809L7.63186 130.284C7.63186 130.284 6.64721 131.758 6.40105 132.742C5.90872 134.954 6.40105 137.166 8.12419 138.887C8.86268 139.625 10.0935 140.362 11.0781 140.608C14.5244 141.345 18.2169 139.379 18.9554 135.692C19.4477 133.971 18.9554 132.25 18.2169 130.775L20.1862 129.546C21.417 131.513 21.6631 133.971 21.1708 136.183C20.6785 138.396 19.2015 140.362 17.2322 141.591C15.2629 142.82 12.8013 143.066 10.5858 142.574L10.832 142.329Z" fill="url(#paint10_linear_2113_1405)"/>
<path d="M8.8637 128.809L7.38672 127.089C7.38672 127.089 9.60218 125.614 10.833 125.368C12.0638 125.122 13.5408 125.122 14.7716 125.368L14.2793 127.58C12.31 127.089 10.3407 127.58 8.61753 128.809H8.8637Z" fill="url(#paint11_linear_2113_1405)"/>
</g>
<path d="M206.283 65.8796C188.067 65.8796 173.297 51.1304 173.297 32.9398C173.297 14.7492 188.067 0 206.283 0V0.737458C188.559 0.737458 174.035 15.2408 174.035 32.9398C174.035 50.6388 188.559 65.1421 206.283 65.1421V65.8796Z" fill="url(#paint12_linear_2113_1405)"/>
<path d="M179.946 32.6937C179.946 17.9445 191.762 6.14519 206.532 6.14519C221.301 6.14519 233.117 18.1903 233.117 32.6937C233.117 47.197 221.301 59.2422 206.532 59.2422C191.762 59.2422 179.946 47.197 179.946 32.6937Z" fill="url(#paint13_linear_2113_1405)"/>
<path d="M213.658 38.1928C213.066 38.2616 197.571 38.2588 197.052 38.1932C197.083 38.0254 197.112 37.8584 197.145 37.6925C197.484 36.0076 197.025 34.5714 195.721 33.4677C193.305 31.4242 189.54 32.6353 188.835 35.8796C188.753 36.2567 188.783 36.6583 188.761 37.0489C188.757 37.1247 188.748 37.2005 188.742 37.272C188.533 37.3778 188.343 37.3016 188.157 37.2708C187.811 37.2131 187.47 37.1136 187.121 37.0801C186.233 36.9948 185.478 36.0909 185.429 35.2364C185.395 34.6504 185.395 34.0604 185.42 33.4736C185.43 33.2493 185.526 33.0175 185.627 32.8106C185.759 32.5385 185.826 32.2613 185.824 31.9624C185.822 31.59 185.823 31.2176 185.825 30.8453C185.826 30.6885 185.823 30.5309 185.838 30.3754C185.893 29.8016 186.197 29.4312 186.76 29.308C187.35 29.1785 187.946 29.0734 188.543 28.9779C189.378 28.8444 190.173 28.5913 190.937 28.2331C192.228 27.6289 193.518 27.0248 194.808 26.421C196.538 25.6123 198.352 25.0879 200.245 24.8735C203.942 24.4545 207.434 25.1349 210.693 26.9442C211.991 27.6645 213.269 28.4199 214.549 29.1718C214.862 29.3558 215.175 29.43 215.542 29.4347C216.341 29.4454 217.141 29.4999 217.938 29.5643C219.183 29.665 220.421 29.8288 221.633 30.1471C222.524 30.3813 223.38 30.7031 224.156 31.2141C224.665 31.5493 225.023 31.9948 225.176 32.5958C225.27 32.9638 225.272 33.3366 225.196 33.703C224.993 34.6847 224.626 35.6147 224.277 36.5489C224.154 36.8795 223.908 37.1085 223.569 37.2005C223.063 37.3375 222.551 37.4493 221.992 37.5835C221.978 37.4078 221.952 37.2811 221.96 37.1563C222.002 36.5229 221.94 35.9049 221.726 35.3043C221.131 33.632 219.453 32.3048 217.323 32.4876C215.71 32.6262 214.024 33.7627 213.555 35.8358C213.411 36.4731 213.426 37.1196 213.581 37.7593C213.612 37.8896 213.628 38.0234 213.657 38.1921L213.658 38.1928Z" fill="white"/>
<path d="M217.696 39.7527C216.284 39.7993 214.715 38.6427 214.707 36.7224C214.7 34.9324 216.223 33.7347 217.681 33.7189C219.26 33.7015 220.723 35.007 220.729 36.7623C220.733 38.2727 219.475 39.7863 217.697 39.7527H217.696Z" fill="white"/>
<path d="M193.03 39.6948C191.481 39.7438 190.05 38.4801 190.047 36.7201C190.044 35.0387 191.479 33.7921 192.966 33.7775C194.534 33.7621 195.953 35.0683 195.951 36.7652C195.95 38.3293 194.64 39.7205 193.03 39.6952V39.6948Z" fill="white"/>
<path d="M205.288 34.1321C204.518 35.0245 203.753 35.9221 202.995 36.8252C202.929 36.9034 202.866 36.9839 202.803 37.0653C202.71 37.1881 202.517 37.0842 202.567 36.9381C202.926 35.8881 203.653 33.9635 204.177 32.7354H201.355C201.24 32.7354 201.176 32.6003 201.251 32.5115C201.977 31.6424 204.69 28.4825 205.771 27.269C205.871 27.1573 206.051 27.2651 206.001 27.4061L204.683 31.1073C205.07 31.1073 205.382 31.0994 205.694 31.1089C206.261 31.1266 206.829 31.1515 207.397 31.1748C207.505 31.1792 207.565 31.3035 207.501 31.3916C207.103 31.9342 205.928 33.3917 205.289 34.1325L205.288 34.1321Z" fill="url(#paint14_linear_2113_1405)"/>
<path d="M13.2932 134.218L12.5547 133.481L113.974 32.4492H173.791V33.1867H114.22L13.2932 134.218Z" fill="url(#paint15_linear_2113_1405)"/>
<defs>
<linearGradient id="paint0_linear_2113_1405" x1="206.176" y1="33.236" x2="416.891" y2="33.236" gradientUnits="userSpaceOnUse">
<stop stop-color="#00FFFF"/>
<stop offset="1" stop-color="#00A4D4"/>
</linearGradient>
<linearGradient id="paint1_linear_2113_1405" x1="3.19929" y1="133.723" x2="22.6462" y2="133.723" gradientUnits="userSpaceOnUse">
<stop stop-color="#00FFFF"/>
<stop offset="1" stop-color="#00A4D4"/>
</linearGradient>
<linearGradient id="paint2_linear_2113_1405" x1="9.10938" y1="133.722" x2="16.7404" y2="133.722" gradientUnits="userSpaceOnUse">
<stop stop-color="#00FFFF"/>
<stop offset="1" stop-color="#00A4D4"/>
</linearGradient>
<linearGradient id="paint3_linear_2113_1405" x1="0" y1="121.925" x2="1.9693" y2="121.925" gradientUnits="userSpaceOnUse">
<stop stop-color="#00FFFF"/>
<stop offset="1" stop-color="#00A4D4"/>
</linearGradient>
<linearGradient id="paint4_linear_2113_1405" x1="23.8789" y1="121.925" x2="25.8482" y2="121.925" gradientUnits="userSpaceOnUse">
<stop stop-color="#00FFFF"/>
<stop offset="1" stop-color="#00A4D4"/>
</linearGradient>
<linearGradient id="paint5_linear_2113_1405" x1="0" y1="145.768" x2="1.9693" y2="145.768" gradientUnits="userSpaceOnUse">
<stop stop-color="#00FFFF"/>
<stop offset="1" stop-color="#00A4D4"/>
</linearGradient>
<linearGradient id="paint6_linear_2113_1405" x1="23.8789" y1="145.768" x2="25.8482" y2="145.768" gradientUnits="userSpaceOnUse">
<stop stop-color="#00FFFF"/>
<stop offset="1" stop-color="#00A4D4"/>
</linearGradient>
<linearGradient id="paint7_linear_2113_1405" x1="0.738281" y1="133.725" x2="24.8622" y2="133.725" gradientUnits="userSpaceOnUse">
<stop stop-color="#00FFFF"/>
<stop offset="1" stop-color="#00A4D4"/>
</linearGradient>
<linearGradient id="paint8_linear_2113_1405" x1="3.32858" y1="133.825" x2="22.7757" y2="133.825" gradientUnits="userSpaceOnUse">
<stop stop-color="#00FFFF"/>
<stop offset="1" stop-color="#00A4D4"/>
</linearGradient>
<linearGradient id="paint9_linear_2113_1405" x1="3.3287" y1="133.829" x2="22.7756" y2="133.829" gradientUnits="userSpaceOnUse">
<stop stop-color="#00FFFF"/>
<stop offset="1" stop-color="#00A4D4"/>
</linearGradient>
<linearGradient id="paint10_linear_2113_1405" x1="4.18558" y1="135.446" x2="21.6631" y2="135.446" gradientUnits="userSpaceOnUse">
<stop stop-color="#00FFFF"/>
<stop offset="1" stop-color="#00A4D4"/>
</linearGradient>
<linearGradient id="paint11_linear_2113_1405" x1="7.38672" y1="126.843" x2="15.0178" y2="126.843" gradientUnits="userSpaceOnUse">
<stop stop-color="#00FFFF"/>
<stop offset="1" stop-color="#00A4D4"/>
</linearGradient>
<linearGradient id="paint12_linear_2113_1405" x1="173.297" y1="32.694" x2="206.283" y2="32.694" gradientUnits="userSpaceOnUse">
<stop stop-color="#00FFFF"/>
<stop offset="1" stop-color="#00A4D4"/>
</linearGradient>
<linearGradient id="paint13_linear_2113_1405" x1="233.363" y1="32.6937" x2="179.946" y2="32.6937" gradientUnits="userSpaceOnUse">
<stop stop-color="#00FFFF"/>
<stop offset="1" stop-color="#00A4D4"/>
</linearGradient>
<linearGradient id="paint14_linear_2113_1405" x1="194.698" y1="32.1711" x2="215.614" y2="32.1711" gradientUnits="userSpaceOnUse">
<stop stop-color="#00A4D4"/>
<stop offset="1" stop-color="#00FFFF"/>
</linearGradient>
<linearGradient id="paint15_linear_2113_1405" x1="12.5547" y1="83.3338" x2="173.791" y2="83.3338" gradientUnits="userSpaceOnUse">
<stop stop-color="#00FFFF"/>
<stop offset="1" stop-color="#00A4D4"/>
</linearGradient>
</defs>
</svg>
