<svg width="150" height="128" viewBox="0 0 150 128" fill="none" xmlns="http://www.w3.org/2000/svg">
<g clip-path="url(#clip0_2304_60023)">
<g opacity="0.2">
<path d="M15.8789 50.2268H134.077C133.866 48.9118 133.591 47.5968 133.295 46.3242H16.6613C16.3652 47.618 16.0904 48.9118 15.8789 50.2268Z" fill="url(#paint0_linear_2304_60023)"/>
<path d="M74.9786 120.365C82.2312 120.365 89.1878 119.071 95.6369 116.695H54.3203C60.7483 119.071 67.726 120.365 74.9786 120.365Z" fill="url(#paint1_linear_2304_60023)"/>
<path d="M15.0742 58.051H134.859C134.816 56.736 134.732 55.421 134.605 54.1484H15.3491C15.2222 55.4422 15.1377 56.736 15.0954 58.051H15.0742Z" fill="url(#paint2_linear_2304_60023)"/>
<path d="M17.7188 42.3987H132.217C131.815 41.0837 131.35 39.7687 130.864 38.4961H19.072C18.5857 39.7899 18.1205 41.0837 17.7188 42.3987Z" fill="url(#paint3_linear_2304_60023)"/>
<path d="M20.7633 34.594H129.193C128.559 33.2578 127.882 31.964 127.163 30.6914H22.7721C22.0532 31.964 21.3765 33.279 20.7422 34.594H20.7633Z" fill="url(#paint4_linear_2304_60023)"/>
<path d="M22.4977 89.3362H127.417C128.115 88.0636 128.792 86.7486 129.384 85.4336H20.5312C21.1444 86.7698 21.7999 88.0636 22.4977 89.3362Z" fill="url(#paint5_linear_2304_60023)"/>
<path d="M45.8413 112.793H104.116C106.23 111.605 108.26 110.312 110.206 108.891H39.7305C41.6758 110.312 43.7057 111.627 45.8201 112.793H45.8413Z" fill="url(#paint6_linear_2304_60023)"/>
<path d="M15.3084 65.8791H134.649C134.776 64.5853 134.86 63.2916 134.881 61.9766H15.0547C15.097 63.2916 15.1816 64.5853 15.2873 65.8791H15.3084Z" fill="url(#paint7_linear_2304_60023)"/>
<path d="M18.9024 81.5119H131.054C131.54 80.2182 131.984 78.9244 132.386 77.6094H17.5703C17.9721 78.9244 18.4161 80.2394 18.9024 81.5119Z" fill="url(#paint8_linear_2304_60023)"/>
<path d="M27.6583 97.1409H122.28C123.253 95.8683 124.184 94.5745 125.072 93.2383H24.8672C25.7553 94.5745 26.6856 95.8895 27.6583 97.1409Z" fill="url(#paint9_linear_2304_60023)"/>
<path d="M16.533 73.6838H133.399C133.695 72.39 133.949 71.0962 134.161 69.7812H15.793C16.0044 71.0962 16.2582 72.4112 16.5542 73.6838H16.533Z" fill="url(#paint10_linear_2304_60023)"/>
<path d="M34.9306 104.969H115.026C116.401 103.718 117.712 102.424 118.981 101.066H30.9766C32.2241 102.424 33.5562 103.739 34.9306 104.969Z" fill="url(#paint11_linear_2304_60023)"/>
<path d="M74.9792 0.128906C68.2341 0.128906 61.7638 1.25302 55.6953 3.31035H94.242C88.1946 1.25302 81.7243 0.128906 74.9792 0.128906Z" fill="url(#paint12_linear_2304_60023)"/>
<path d="M40.4062 11.1369H109.528C107.519 9.7159 105.405 8.4009 103.227 7.23438H46.7285C44.5506 8.4009 42.4361 9.7159 40.4274 11.1369H40.4062Z" fill="url(#paint13_linear_2304_60023)"/>
<path d="M25.1836 26.7698H124.754C123.844 25.4336 122.893 24.1186 121.899 22.8672H28.0381C27.0443 24.1398 26.0928 25.4336 25.1836 26.7698Z" fill="url(#paint14_linear_2304_60023)"/>
<path d="M31.4219 18.9416H118.517C117.227 17.5842 115.874 16.2692 114.478 15.0391H35.4816C34.065 16.2692 32.7117 17.5842 31.443 18.9416H31.4219Z" fill="url(#paint15_linear_2304_60023)"/>
</g>
<path d="M112.802 7.93137C117.412 10.5614 121.662 13.8488 125.468 17.6454C129.063 21.6116 132.192 26.0232 134.729 30.7529C139.825 40.2124 142.511 50.9445 142.489 61.6977C142.489 72.451 139.825 83.1831 134.729 92.6426C132.192 97.3723 129.063 101.784 125.447 105.75C121.62 109.504 117.391 112.834 112.781 115.464C116.989 112.24 120.837 108.613 124.136 104.562C127.646 100.702 130.691 96.4179 133.165 91.8154C138.134 82.6104 140.734 72.1753 140.734 61.6977C140.734 51.2202 138.134 40.7851 133.165 31.5801C130.691 26.9776 127.667 22.672 124.136 18.8331C120.816 14.8033 116.989 11.1552 112.781 7.91016L112.802 7.93137Z" fill="url(#paint16_linear_2304_60023)"/>
<path d="M118.789 16.8828C121.982 19.5976 124.858 22.7155 127.416 26.0666C129.848 29.5025 131.941 33.2142 133.633 37.0744C137.016 44.8159 138.75 53.2573 138.75 61.7199C138.75 70.1614 137.016 78.624 133.633 86.3655C131.941 90.2257 129.869 93.9373 127.416 97.3733C124.858 100.724 121.982 103.842 118.789 106.557C121.728 103.567 124.414 100.343 126.697 96.8643C129.108 93.4707 131.159 89.8227 132.829 86.0049C136.17 78.3695 137.883 70.0553 137.883 61.7199C137.883 53.3846 136.17 45.0704 132.829 37.4349C131.159 33.6172 129.108 29.9691 126.697 26.5756C124.414 23.0972 121.728 19.8734 118.789 16.8828Z" fill="url(#paint17_linear_2304_60023)"/>
<path d="M127.414 111.753C128.091 111.138 128.789 110.523 129.465 109.887C129.36 109.102 129.233 108.318 129.085 107.533L130.057 106.557C130.375 106.239 130.671 105.878 130.988 105.539C131.749 105.645 132.531 105.751 133.335 105.836C133.588 105.56 133.842 105.285 134.075 104.988L132.066 103.227L134.096 104.966C135.576 103.206 137.014 101.382 138.304 99.4519C138.029 98.7096 137.754 97.9672 137.479 97.2461C137.733 96.8643 137.987 96.4826 138.219 96.0796L138.938 94.9131C139.446 94.1495 139.847 93.3223 140.291 92.5164C141.074 92.4315 141.877 92.3467 142.66 92.2194C143.146 91.2014 143.674 90.1833 144.14 89.1653L144.816 87.5957C145.028 87.0867 145.281 86.5565 145.451 86.0262C145.007 85.3687 144.584 84.7112 144.119 84.0749C144.267 83.6508 144.436 83.2266 144.584 82.7812L145.007 81.4662C145.768 81.2329 146.508 80.9995 147.269 80.745C147.544 79.7694 147.798 78.7725 148.073 77.7757C147.565 77.1818 147.036 76.588 146.487 75.9941L146.783 74.6579L146.931 73.9792L147.036 73.3005C147.734 72.9611 148.453 72.6218 149.151 72.2612C149.214 71.7946 149.299 71.3492 149.362 70.8826L149.51 69.5039C148.918 68.9737 148.326 68.4647 147.755 67.9556C147.84 67.0436 147.882 66.1316 147.946 65.2196L148.961 64.5833L149.933 63.9258V62.8017L146.571 62.7593H149.954C149.954 62.1866 149.976 61.5928 149.954 61.0201L149.891 59.2809C149.87 58.1144 149.743 56.9691 149.658 55.8237C148.961 55.4208 148.305 55.039 147.607 54.6784L147.227 51.9424C147.079 51.0304 146.888 50.1396 146.719 49.2276C147.269 48.6761 147.819 48.0822 148.326 47.4884L147.925 45.834C147.777 45.2826 147.671 44.7311 147.502 44.1797L147.015 42.5465C146.846 41.9951 146.698 41.4648 146.508 40.9346C145.747 40.7013 144.985 40.4892 144.245 40.2771C144.097 39.8529 143.949 39.4075 143.78 38.9833L143.273 37.7107C143.696 37.0532 144.119 36.3745 144.52 35.6958C144.119 34.7626 143.653 33.8294 143.23 32.9174C142.448 32.7689 141.666 32.6628 140.883 32.578C140.439 31.772 140.038 30.9449 139.572 30.1601C139.911 29.439 140.228 28.7391 140.545 27.9967L139.826 26.809L139.044 25.6637C138.261 25.6425 137.458 25.6213 136.697 25.6C136.189 24.8365 135.618 24.1154 135.069 23.373C135.322 22.6307 135.555 21.8672 135.766 21.1036L135.047 20.234L133.25 21.7187H133.229L135.026 20.2128C134.667 19.7674 134.307 19.3008 133.927 18.8766L132.764 17.5828C132.003 16.7132 131.178 15.9073 130.353 15.0801C129.592 15.2073 128.81 15.3558 128.049 15.5255C127.943 15.4194 127.816 15.3134 127.689 15.2073C126.484 13.956 125.215 12.7682 123.925 11.6017L121.98 9.96856C121.24 9.35348 120.479 8.75961 119.718 8.16574C116.567 6.02357 113.247 4.13592 109.801 2.56641V3.54205C112.93 5.30245 115.912 7.31736 118.682 9.58679C119.823 10.4352 120.923 11.3472 122.001 12.2592C122.001 12.2592 122.192 12.4289 122.297 12.4925C126.209 15.8648 129.719 19.6826 132.722 23.8821C133.229 24.5608 133.694 25.2395 134.138 25.9394C134.603 26.6605 135.069 27.3392 135.492 28.0604C136.316 29.5238 137.183 30.9449 137.902 32.472C138.684 33.9566 139.319 35.5049 139.995 37.032L140.883 39.3863C141.201 40.1711 141.454 40.9558 141.708 41.7618C143.78 48.1459 144.753 54.8693 144.816 61.5715C144.774 68.2738 143.801 74.9972 141.729 81.3813C141.264 82.9933 140.609 84.5416 140.038 86.1111C139.361 87.6382 138.727 89.2077 137.944 90.6923C136.464 93.7041 134.709 96.5674 132.764 99.3034C128.873 104.776 124.116 109.59 118.766 113.641C115.975 115.932 112.972 117.968 109.801 119.75V120.704C113.29 119.113 116.63 117.226 119.802 115.041C120.542 114.49 122.213 113.387 122.932 112.814C123.672 112.263 124.369 111.669 125.067 111.096C125.828 111.308 126.611 111.52 127.351 111.69L127.414 111.753Z" fill="url(#paint18_linear_2304_60023)"/>
<path d="M37.1911 114.509C32.5816 111.879 28.3315 108.592 24.5255 104.795C20.9309 100.829 17.8015 96.4175 15.2641 91.6878C10.1683 82.2283 7.48289 71.4962 7.50403 60.7429C7.50403 49.9897 10.1683 39.2576 15.2641 29.7981C17.8015 25.0684 20.9309 20.6568 24.5466 16.6906C28.3738 12.9365 32.6027 9.60655 37.2122 6.97656C33.0045 10.2004 29.1561 13.8273 25.8576 17.8783C22.3476 21.7385 19.3027 26.0228 16.8288 30.6253C11.8598 39.8302 9.25903 50.2654 9.25903 60.7429C9.25903 71.2205 11.8598 81.6556 16.8288 90.8606C19.3027 95.4631 22.3264 99.7686 25.8576 103.608C29.1773 107.637 33.0045 111.285 37.2122 114.531L37.1911 114.509Z" fill="url(#paint19_linear_2304_60023)"/>
<path d="M31.2066 105.561C28.0138 102.846 25.1381 99.7283 22.5796 96.3772C20.148 92.9412 18.0547 89.2296 16.3631 85.3694C12.98 77.6279 11.2461 69.1865 11.2461 60.7238C11.2461 52.2824 12.98 43.8198 16.3631 36.0783C18.0547 32.2181 20.148 28.5064 22.5796 25.0705C25.1381 21.7194 28.0138 18.6015 31.2066 15.8867C28.2675 18.8773 25.5822 22.1011 23.2985 25.5795C20.888 28.9731 18.837 32.6211 17.1666 36.4388C13.8257 44.0743 12.113 52.3885 12.113 60.7238C12.113 69.0592 13.8257 77.3734 17.1666 85.0089C18.837 88.8266 20.888 92.4746 23.2985 95.8682C25.5822 99.3465 28.2675 102.57 31.2066 105.561Z" fill="url(#paint20_linear_2304_60023)"/>
<path d="M22.5597 10.6887C21.883 11.3038 21.1853 11.9189 20.5086 12.5552C20.6144 13.3399 20.7412 14.1247 20.8893 14.9095L19.9166 15.8851C19.5994 16.2032 19.3034 16.5638 18.9862 16.9032C18.2039 16.7971 17.4427 16.6911 16.6392 16.6062C16.3854 16.8819 16.1317 17.1577 15.8991 17.4546L17.9079 19.215L15.878 17.4758C14.3979 19.2362 12.96 21.0602 11.6702 22.9903C11.9451 23.7326 12.22 24.475 12.4948 25.1961C12.2411 25.5779 11.9874 25.9597 11.7548 26.3626L11.0359 27.5292C10.5284 28.3139 10.1266 29.1199 9.6826 29.9259C8.90025 30.0107 8.09675 30.0955 7.3144 30.2228C6.82807 31.2409 6.29946 32.2589 5.83428 33.277L5.15765 34.8465C4.9462 35.3555 4.69247 35.8858 4.52331 36.416C4.96735 37.0947 5.39024 37.731 5.85542 38.3885C5.70741 38.8127 5.53825 39.2369 5.39024 39.6823L4.98849 40.9973C4.22728 41.2306 3.48722 41.4639 2.72602 41.7184C2.45114 42.694 2.1974 43.6909 1.92252 44.6877C2.42999 45.2816 2.95861 45.8755 3.50837 46.4694L3.21234 47.8056L3.06433 48.4843L2.95861 49.163C2.26083 49.5023 1.54192 49.8417 0.844144 50.2022C0.78071 50.6689 0.696131 51.1143 0.632697 51.5809L0.484685 52.9595C1.07673 53.4897 1.66878 53.9988 2.23969 54.5078C2.15511 55.4198 2.11282 56.3318 2.04939 57.2438L1.03445 57.8801L0.0617922 58.5376V59.6617L3.42379 59.7042H0.0406476C0.0406476 60.2768 0.019503 60.8707 0.0406476 61.4433L0.104081 63.1825C0.125226 64.3491 0.252094 65.4944 0.336672 66.6397C1.03445 67.0427 1.68993 67.4244 2.3877 67.785L2.7683 70.521C2.91632 71.4331 3.10662 72.3239 3.27578 73.2359C2.72602 73.7873 2.17626 74.3812 1.66878 74.9751L2.07053 76.6294C2.21854 77.1809 2.32427 77.7323 2.49342 78.2838L2.97975 79.9169C3.14891 80.4684 3.29692 80.9986 3.48722 81.5288C4.24843 81.7621 5.00964 81.9742 5.7497 82.1863C5.89771 82.6105 6.04572 83.0559 6.21488 83.4801L6.72235 84.7527C6.29946 85.4102 5.87656 86.0889 5.47482 86.7676C5.87656 87.7008 6.34175 88.6341 6.76464 89.5461C7.54699 89.6945 8.32934 89.8006 9.11169 89.8854C9.55573 90.6914 9.95748 91.5186 10.4227 92.3033C10.0843 93.0245 9.76718 93.7244 9.45001 94.4667L10.1689 95.6544L10.9513 96.7998C11.7336 96.821 12.5371 96.8422 13.2983 96.8422C13.8058 97.6057 14.3767 98.3269 14.9265 99.0692C14.6727 99.8115 14.4401 100.575 14.2287 101.339L14.9476 102.208L16.7449 100.724H16.766L14.9688 102.229C15.3282 102.675 15.6877 103.141 16.0683 103.566L17.2312 104.859C17.9924 105.75 18.8171 106.535 19.6417 107.362C20.4029 107.235 21.1853 107.086 21.9465 106.917C22.0522 107.023 22.1791 107.129 22.3059 107.235C23.5112 108.486 24.7799 109.674 26.0697 110.841L28.015 112.474C28.7551 113.089 29.5163 113.683 30.2775 114.276C33.428 116.419 36.7477 118.306 40.1943 119.876V118.9C37.0649 117.14 34.0835 115.125 31.3136 112.855C30.1717 112.007 29.0722 111.116 27.9938 110.183C27.9938 110.183 27.8035 110.013 27.6978 109.95C23.7861 106.577 20.2761 102.76 17.2735 98.5602C16.766 97.8815 16.3009 97.2027 15.8568 96.5028C15.3916 95.7817 14.9265 95.103 14.5036 94.3819C13.6789 92.9184 12.812 91.4974 12.0931 89.9703C11.3107 88.4856 10.6764 86.9373 9.99977 85.4102L9.11169 83.0559C8.79452 82.2712 8.54079 81.4864 8.28705 80.6805C6.21488 74.2964 5.24223 67.5729 5.17879 60.8707C5.22108 54.1684 6.19373 47.445 8.26591 41.0609C8.73109 39.449 9.38657 37.9007 9.95748 36.3312C10.6341 34.8041 11.2684 33.2346 12.0508 31.7499C13.5309 28.7381 15.2859 25.8748 17.2312 23.1388C21.1218 17.6667 25.8794 12.8521 31.229 8.80108C34.0201 6.51044 37.0226 4.47432 40.1943 2.69271V1.73828C36.7054 3.329 33.3646 5.21666 30.1929 7.40125C29.4528 7.9527 27.7824 9.0556 27.0635 9.62826C26.3234 10.1797 25.6256 10.7736 24.9279 11.3462C24.1667 11.1341 23.3843 10.922 22.6443 10.7524L22.5597 10.6887Z" fill="url(#paint21_linear_2304_60023)"/>
<path style="mix-blend-mode:color-dodge" d="M74.3871 127.979C109.619 127.979 138.18 99.3298 138.18 63.9894C138.18 28.649 109.619 0 74.3871 0C39.155 0 10.5938 28.649 10.5938 63.9894C10.5938 99.3298 39.155 127.979 74.3871 127.979Z" fill="url(#paint22_radial_2304_60023)"/>
<path d="M107.035 40.4243L101.791 45.8964V55.8861L102.658 57.1799H103.123V89.164C102.552 90.1396 101.579 90.7547 100.564 90.7759C99.1264 90.7971 97.8155 89.673 97.456 88.1247C97.456 85.1342 97.456 82.1012 97.5194 79.0894C97.5194 78.8137 97.5194 78.538 97.5194 78.2623C97.5617 76.1413 97.5829 74.7415 97.456 73.6598C97.308 72.4508 96.9697 71.6237 96.3353 70.9237C95.4473 69.9481 94.1574 69.3754 92.4659 69.227V34.316C92.4659 30.9648 89.7594 28.25 86.4185 28.25H56.8795C53.5386 28.25 50.8321 30.9648 50.8321 34.316V98.0508H46.3706C45.9477 98.0508 45.6094 98.3902 45.6094 98.8144C45.6094 99.2386 45.9477 99.5779 46.3706 99.5779H97.3926C97.8155 99.5779 98.1538 99.2386 98.1538 98.8144C98.1538 98.3902 97.8155 98.0508 97.3926 98.0508H92.4659V70.7753C93.6711 70.9025 94.5803 71.3055 95.1935 71.963C96.0393 72.875 96.0605 74.1052 95.9759 78.2411C95.9759 78.4956 95.9759 78.7713 95.9759 79.0682C95.9336 82.1012 95.9124 85.1766 95.9124 88.2096V88.2944V88.3792C96.145 89.5034 96.7371 90.5214 97.604 91.2425C98.4287 91.9425 99.4647 92.3242 100.48 92.3242C100.501 92.3242 100.543 92.3242 100.564 92.3242C102.214 92.2818 103.736 91.285 104.539 89.7367L104.624 89.567V57.2011H104.878L106.379 55.9073V49.2687L108.303 47.5507H109.931L111.982 45.4934L106.95 40.4455L107.035 40.4243Z" fill="#00FFFF"/>
<path d="M109.891 37.9844L107.734 40.0417L112.111 44.4321L114.205 42.3111L109.891 37.9844Z" fill="white"/>
<path d="M77.8349 55.7171H77.1582C76.7988 53.9991 75.2764 52.7266 73.4579 52.7266H70.0325C69.0175 52.7266 68.066 53.1295 67.3683 53.8295C66.8397 54.3597 66.5013 55.0172 66.3533 55.7171H65.6767C63.4988 55.7171 61.7227 57.4987 61.7227 59.6833V86.8104C61.7227 88.995 63.4988 90.7766 65.6767 90.7766H77.8772C80.0551 90.7766 81.8312 88.995 81.8312 86.8104V59.6833C81.8312 57.4987 80.0551 55.7171 77.8772 55.7171H77.8349ZM68.4466 54.9111C68.8695 54.487 69.4193 54.2537 70.0325 54.2537H73.4579C74.4094 54.2537 75.2341 54.8687 75.5512 55.6959H67.9392C68.0449 55.399 68.2141 55.1232 68.4466 54.8899V54.9111ZM80.2454 86.8104C80.2454 88.1466 79.167 89.2283 77.8349 89.2283H65.6344C64.3023 89.2283 63.2239 88.1466 63.2239 86.8104V59.6833C63.2239 58.3471 64.3023 57.2654 65.6344 57.2654H77.8349C79.167 57.2654 80.2454 58.3471 80.2454 59.6833V86.8104Z" fill="white"/>
<path d="M73.6062 64.582L66.4805 74.6566H71.1111L69.3138 80.6801L77.0316 70.6904L72.9084 71.0298L73.6062 64.582Z" fill="white"/>
<path d="M83.4794 34.6133H60.2414C58.2679 34.6133 56.668 36.2181 56.668 38.1977V43.3729C56.668 45.3525 58.2679 46.9573 60.2414 46.9573H83.4794C85.4529 46.9573 87.0528 45.3525 87.0528 43.3729V38.1977C87.0528 36.2181 85.4529 34.6133 83.4794 34.6133Z" fill="white"/>
</g>
<defs>
<linearGradient id="paint0_linear_2304_60023" x1="15.8789" y1="48.2755" x2="134.077" y2="48.2755" gradientUnits="userSpaceOnUse">
<stop stop-color="#0071BC"/>
<stop offset="1" stop-color="#00FFFF"/>
</linearGradient>
<linearGradient id="paint1_linear_2304_60023" x1="54.3203" y1="118.541" x2="95.6158" y2="118.541" gradientUnits="userSpaceOnUse">
<stop stop-color="#0071BC"/>
<stop offset="1" stop-color="#00FFFF"/>
</linearGradient>
<linearGradient id="paint2_linear_2304_60023" x1="15.0742" y1="56.0997" x2="134.859" y2="56.0997" gradientUnits="userSpaceOnUse">
<stop stop-color="#0071BC"/>
<stop offset="1" stop-color="#00FFFF"/>
</linearGradient>
<linearGradient id="paint3_linear_2304_60023" x1="17.7188" y1="40.4474" x2="132.217" y2="40.4474" gradientUnits="userSpaceOnUse">
<stop stop-color="#0071BC"/>
<stop offset="1" stop-color="#00FFFF"/>
</linearGradient>
<linearGradient id="paint4_linear_2304_60023" x1="20.7633" y1="32.6215" x2="129.172" y2="32.6215" gradientUnits="userSpaceOnUse">
<stop stop-color="#0071BC"/>
<stop offset="1" stop-color="#00FFFF"/>
</linearGradient>
<linearGradient id="paint5_linear_2304_60023" x1="20.5312" y1="87.3637" x2="129.405" y2="87.3637" gradientUnits="userSpaceOnUse">
<stop stop-color="#0071BC"/>
<stop offset="1" stop-color="#00FFFF"/>
</linearGradient>
<linearGradient id="paint6_linear_2304_60023" x1="39.7305" y1="110.842" x2="110.206" y2="110.842" gradientUnits="userSpaceOnUse">
<stop stop-color="#0071BC"/>
<stop offset="1" stop-color="#00FFFF"/>
</linearGradient>
<linearGradient id="paint7_linear_2304_60023" x1="15.0547" y1="63.9066" x2="134.881" y2="63.9066" gradientUnits="userSpaceOnUse">
<stop stop-color="#0071BC"/>
<stop offset="1" stop-color="#00FFFF"/>
</linearGradient>
<linearGradient id="paint8_linear_2304_60023" x1="17.5703" y1="79.5607" x2="132.365" y2="79.5607" gradientUnits="userSpaceOnUse">
<stop stop-color="#0071BC"/>
<stop offset="1" stop-color="#00FFFF"/>
</linearGradient>
<linearGradient id="paint9_linear_2304_60023" x1="24.8672" y1="95.1896" x2="125.072" y2="95.1896" gradientUnits="userSpaceOnUse">
<stop stop-color="#0071BC"/>
<stop offset="1" stop-color="#00FFFF"/>
</linearGradient>
<linearGradient id="paint10_linear_2304_60023" x1="15.793" y1="71.7325" x2="134.161" y2="71.7325" gradientUnits="userSpaceOnUse">
<stop stop-color="#0071BC"/>
<stop offset="1" stop-color="#00FFFF"/>
</linearGradient>
<linearGradient id="paint11_linear_2304_60023" x1="30.9766" y1="103.018" x2="118.981" y2="103.018" gradientUnits="userSpaceOnUse">
<stop stop-color="#0071BC"/>
<stop offset="1" stop-color="#00FFFF"/>
</linearGradient>
<linearGradient id="paint12_linear_2304_60023" x1="55.6953" y1="1.71963" x2="94.242" y2="1.71963" gradientUnits="userSpaceOnUse">
<stop stop-color="#0071BC"/>
<stop offset="1" stop-color="#00FFFF"/>
</linearGradient>
<linearGradient id="paint13_linear_2304_60023" x1="40.4062" y1="9.16445" x2="109.528" y2="9.16445" gradientUnits="userSpaceOnUse">
<stop stop-color="#0071BC"/>
<stop offset="1" stop-color="#00FFFF"/>
</linearGradient>
<linearGradient id="paint14_linear_2304_60023" x1="25.1836" y1="24.8185" x2="124.754" y2="24.8185" gradientUnits="userSpaceOnUse">
<stop stop-color="#0071BC"/>
<stop offset="1" stop-color="#00FFFF"/>
</linearGradient>
<linearGradient id="paint15_linear_2304_60023" x1="31.4219" y1="16.9903" x2="118.517" y2="16.9903" gradientUnits="userSpaceOnUse">
<stop stop-color="#0071BC"/>
<stop offset="1" stop-color="#00FFFF"/>
</linearGradient>
<linearGradient id="paint16_linear_2304_60023" x1="183.51" y1="61.6977" x2="113.352" y2="61.6977" gradientUnits="userSpaceOnUse">
<stop stop-color="#0071BC"/>
<stop offset="1" stop-color="#00FFFF"/>
</linearGradient>
<linearGradient id="paint17_linear_2304_60023" x1="183.513" y1="61.6987" x2="113.355" y2="61.6987" gradientUnits="userSpaceOnUse">
<stop stop-color="#0071BC"/>
<stop offset="1" stop-color="#00FFFF"/>
</linearGradient>
<linearGradient id="paint18_linear_2304_60023" x1="183.511" y1="61.72" x2="113.353" y2="61.72" gradientUnits="userSpaceOnUse">
<stop stop-color="#0071BC"/>
<stop offset="1" stop-color="#00FFFF"/>
</linearGradient>
<linearGradient id="paint19_linear_2304_60023" x1="-38.993" y1="60.7429" x2="40.3839" y2="60.7429" gradientUnits="userSpaceOnUse">
<stop stop-color="#0071BC"/>
<stop offset="1" stop-color="#00FFFF"/>
</linearGradient>
<linearGradient id="paint20_linear_2304_60023" x1="-38.9935" y1="60.745" x2="40.3834" y2="60.745" gradientUnits="userSpaceOnUse">
<stop stop-color="#0071BC"/>
<stop offset="1" stop-color="#00FFFF"/>
</linearGradient>
<linearGradient id="paint21_linear_2304_60023" x1="-38.9923" y1="60.7222" x2="40.3846" y2="60.7222" gradientUnits="userSpaceOnUse">
<stop stop-color="#0071BC"/>
<stop offset="1" stop-color="#00FFFF"/>
</linearGradient>
<radialGradient id="paint22_radial_2304_60023" cx="0" cy="0" r="1" gradientUnits="userSpaceOnUse" gradientTransform="translate(79.3299 67.9528) scale(63.7022 63.898)">
<stop offset="0.02" stop-color="#BCBCBC"/>
<stop offset="0.88"/>
</radialGradient>
<clipPath id="clip0_2304_60023">
<rect width="150" height="128" fill="white"/>
</clipPath>
</defs>
</svg>
